G04 #@! TF.FileFunction,Legend,Bot*
%FSLAX46Y46*%
G04 Gerber Fmt 4.6, Leading zero omitted, Abs format (unit mm)*
G04 Created by KiCad (PCBNEW 4.0.6) date 2018 February 05, Monday 13:52:32*
%MOMM*%
%LPD*%
G01*
G04 APERTURE LIST*
%ADD10C,0.100000*%
%ADD11C,0.300000*%
%ADD12C,0.120000*%
%ADD13C,1.000000*%
%ADD14C,0.150000*%
%ADD15C,0.450000*%
G04 APERTURE END LIST*
D10*
D11*
X39121428Y-69457143D02*
X37978571Y-69457143D01*
X38550000Y-70028571D02*
X38550000Y-68885714D01*
X39071428Y-51507143D02*
X37928571Y-51507143D01*
D12*
X34152382Y-57027381D02*
X34152382Y-56360714D01*
X34152382Y-56551190D02*
X34104763Y-56455952D01*
X34057144Y-56408333D01*
X33961906Y-56360714D01*
X33866667Y-56360714D01*
X33152381Y-56979762D02*
X33247619Y-57027381D01*
X33438096Y-57027381D01*
X33533334Y-56979762D01*
X33580953Y-56884524D01*
X33580953Y-56503571D01*
X33533334Y-56408333D01*
X33438096Y-56360714D01*
X33247619Y-56360714D01*
X33152381Y-56408333D01*
X33104762Y-56503571D01*
X33104762Y-56598810D01*
X33580953Y-56694048D01*
X32247619Y-57027381D02*
X32247619Y-56027381D01*
X32247619Y-56979762D02*
X32342857Y-57027381D01*
X32533334Y-57027381D01*
X32628572Y-56979762D01*
X32676191Y-56932143D01*
X32723810Y-56836905D01*
X32723810Y-56551190D01*
X32676191Y-56455952D01*
X32628572Y-56408333D01*
X32533334Y-56360714D01*
X32342857Y-56360714D01*
X32247619Y-56408333D01*
X31057143Y-56979762D02*
X30961905Y-57027381D01*
X30771429Y-57027381D01*
X30676190Y-56979762D01*
X30628571Y-56884524D01*
X30628571Y-56836905D01*
X30676190Y-56741667D01*
X30771429Y-56694048D01*
X30914286Y-56694048D01*
X31009524Y-56646429D01*
X31057143Y-56551190D01*
X31057143Y-56503571D01*
X31009524Y-56408333D01*
X30914286Y-56360714D01*
X30771429Y-56360714D01*
X30676190Y-56408333D01*
X30342857Y-56360714D02*
X29961905Y-56360714D01*
X30200000Y-56027381D02*
X30200000Y-56884524D01*
X30152381Y-56979762D01*
X30057143Y-57027381D01*
X29961905Y-57027381D01*
X29628571Y-57027381D02*
X29628571Y-56360714D01*
X29628571Y-56551190D02*
X29580952Y-56455952D01*
X29533333Y-56408333D01*
X29438095Y-56360714D01*
X29342856Y-56360714D01*
X29009523Y-57027381D02*
X29009523Y-56360714D01*
X29009523Y-56027381D02*
X29057142Y-56075000D01*
X29009523Y-56122619D01*
X28961904Y-56075000D01*
X29009523Y-56027381D01*
X29009523Y-56122619D01*
X28533333Y-56360714D02*
X28533333Y-57360714D01*
X28533333Y-56408333D02*
X28438095Y-56360714D01*
X28247618Y-56360714D01*
X28152380Y-56408333D01*
X28104761Y-56455952D01*
X28057142Y-56551190D01*
X28057142Y-56836905D01*
X28104761Y-56932143D01*
X28152380Y-56979762D01*
X28247618Y-57027381D01*
X28438095Y-57027381D01*
X28533333Y-56979762D01*
X27247618Y-56979762D02*
X27342856Y-57027381D01*
X27533333Y-57027381D01*
X27628571Y-56979762D01*
X27676190Y-56884524D01*
X27676190Y-56503571D01*
X27628571Y-56408333D01*
X27533333Y-56360714D01*
X27342856Y-56360714D01*
X27247618Y-56408333D01*
X27199999Y-56503571D01*
X27199999Y-56598810D01*
X27676190Y-56694048D01*
D13*
X26300000Y-55400000D02*
X33950000Y-55400000D01*
D14*
X6100000Y-41200000D02*
X5200000Y-42200000D01*
X21300000Y-46300000D02*
X20900000Y-47300000D01*
X14500000Y-91400000D02*
X13500000Y-92600000D01*
X22625000Y-36625000D02*
X22400000Y-36625000D01*
X22625000Y-31975000D02*
X22400000Y-31975000D01*
X17375000Y-31975000D02*
X17600000Y-31975000D01*
X17375000Y-36625000D02*
X17600000Y-36625000D01*
X22625000Y-36625000D02*
X22625000Y-31975000D01*
X17375000Y-36625000D02*
X17375000Y-31975000D01*
X22400000Y-36625000D02*
X22400000Y-37975000D01*
D15*
X19400000Y-65700000D02*
X16600000Y-65700000D01*
D12*
X20150000Y-67350000D02*
X20150000Y-60050000D01*
X15850000Y-67350000D02*
X15850000Y-60050000D01*
D14*
X24900000Y-5275000D02*
X25900000Y-5275000D01*
X25900000Y-3925000D02*
X24900000Y-3925000D01*
X32150000Y-18900000D02*
X31450000Y-18900000D01*
X31450000Y-20100000D02*
X32150000Y-20100000D01*
X5100000Y-40150000D02*
X5100000Y-39450000D01*
X3900000Y-39450000D02*
X3900000Y-40150000D01*
X5100000Y-25150000D02*
X5100000Y-25850000D01*
X6300000Y-25850000D02*
X6300000Y-25150000D01*
D12*
X320000Y-60140000D02*
X1250000Y-60140000D01*
X3480000Y-60140000D02*
X2550000Y-60140000D01*
X3480000Y-60140000D02*
X3480000Y-62300000D01*
X320000Y-60140000D02*
X320000Y-61600000D01*
D14*
X9050000Y-60700000D02*
G75*
G03X9050000Y-60700000I-100000J0D01*
G01*
X9450000Y-61350000D02*
X9450000Y-60850000D01*
X12350000Y-61350000D02*
X9450000Y-61350000D01*
X12350000Y-60850000D02*
X12350000Y-61350000D01*
X9450000Y-60850000D02*
X12350000Y-60850000D01*
X4725000Y-65200000D02*
X4725000Y-66200000D01*
X6075000Y-66200000D02*
X6075000Y-65200000D01*
X7875000Y-66200000D02*
X7875000Y-65200000D01*
X6525000Y-65200000D02*
X6525000Y-66200000D01*
X8325000Y-65200000D02*
X8325000Y-66200000D01*
X9675000Y-66200000D02*
X9675000Y-65200000D01*
X10225000Y-65200000D02*
X10225000Y-66200000D01*
X11575000Y-66200000D02*
X11575000Y-65200000D01*
X2050000Y-63300000D02*
X1350000Y-63300000D01*
X1350000Y-64500000D02*
X2050000Y-64500000D01*
X1928249Y-57376777D02*
X2423223Y-57871751D01*
X3271751Y-57023223D02*
X2776777Y-56528249D01*
X14200000Y-63650000D02*
X14200000Y-62950000D01*
X13000000Y-62950000D02*
X13000000Y-63650000D01*
D15*
X5000000Y-56900000D02*
X7800000Y-56900000D01*
D12*
X4250000Y-55250000D02*
X4250000Y-62550000D01*
X8550000Y-55250000D02*
X8550000Y-62550000D01*
D15*
X19400000Y-56700000D02*
X16600000Y-56700000D01*
D12*
X20150000Y-58350000D02*
X20150000Y-51050000D01*
X15850000Y-58350000D02*
X15850000Y-51050000D01*
D14*
X19000000Y-70900000D02*
X22000000Y-70900000D01*
X19000000Y-68700000D02*
X22000000Y-68700000D01*
X24700000Y-51100000D02*
X21700000Y-51100000D01*
X24700000Y-53300000D02*
X21700000Y-53300000D01*
X19000000Y-49050000D02*
X19000000Y-48350000D01*
X17800000Y-48350000D02*
X17800000Y-49050000D01*
X5350000Y-48100000D02*
X5350000Y-47400000D01*
X4150000Y-47400000D02*
X4150000Y-48100000D01*
X7650000Y-49600000D02*
X8350000Y-49600000D01*
X8350000Y-48400000D02*
X7650000Y-48400000D01*
X8500000Y-40150000D02*
X8500000Y-39450000D01*
X7300000Y-39450000D02*
X7300000Y-40150000D01*
X20900000Y-49050000D02*
X20900000Y-48350000D01*
X19700000Y-48350000D02*
X19700000Y-49050000D01*
X8450000Y-43400000D02*
X7750000Y-43400000D01*
X7750000Y-44600000D02*
X8450000Y-44600000D01*
X900000Y-41650000D02*
X900000Y-42350000D01*
X2100000Y-42350000D02*
X2100000Y-41650000D01*
X39300000Y-38850000D02*
X39300000Y-38150000D01*
X38100000Y-38150000D02*
X38100000Y-38850000D01*
X14000000Y-89550000D02*
X14000000Y-90250000D01*
X15200000Y-90250000D02*
X15200000Y-89550000D01*
X24800000Y-89550000D02*
X24800000Y-90250000D01*
X26000000Y-90250000D02*
X26000000Y-89550000D01*
X26000000Y-102350000D02*
X26000000Y-101650000D01*
X24800000Y-101650000D02*
X24800000Y-102350000D01*
X15200000Y-102350000D02*
X15200000Y-101650000D01*
X14000000Y-101650000D02*
X14000000Y-102350000D01*
X23000000Y-38950000D02*
X23000000Y-39650000D01*
X24200000Y-39650000D02*
X24200000Y-38950000D01*
X15800000Y-38950000D02*
X15800000Y-39650000D01*
X17000000Y-39650000D02*
X17000000Y-38950000D01*
X17000000Y-29650000D02*
X17000000Y-28950000D01*
X15800000Y-28950000D02*
X15800000Y-29650000D01*
X24200000Y-29650000D02*
X24200000Y-28950000D01*
X23000000Y-28950000D02*
X23000000Y-29650000D01*
D12*
X23760000Y-47120000D02*
X23760000Y-48050000D01*
X23760000Y-50280000D02*
X23760000Y-49350000D01*
X23760000Y-50280000D02*
X21600000Y-50280000D01*
X23760000Y-47120000D02*
X22300000Y-47120000D01*
X4660000Y-76520000D02*
X4660000Y-77450000D01*
X4660000Y-79680000D02*
X4660000Y-78750000D01*
X4660000Y-79680000D02*
X2500000Y-79680000D01*
X4660000Y-76520000D02*
X3200000Y-76520000D01*
X14660000Y-76520000D02*
X14660000Y-77450000D01*
X14660000Y-79680000D02*
X14660000Y-78750000D01*
X14660000Y-79680000D02*
X12500000Y-79680000D01*
X14660000Y-76520000D02*
X13200000Y-76520000D01*
X24660000Y-76520000D02*
X24660000Y-77450000D01*
X24660000Y-79680000D02*
X24660000Y-78750000D01*
X24660000Y-79680000D02*
X22500000Y-79680000D01*
X24660000Y-76520000D02*
X23200000Y-76520000D01*
X34560000Y-76520000D02*
X34560000Y-77450000D01*
X34560000Y-79680000D02*
X34560000Y-78750000D01*
X34560000Y-79680000D02*
X32400000Y-79680000D01*
X34560000Y-76520000D02*
X33100000Y-76520000D01*
D14*
X18800000Y-46975000D02*
X19800000Y-46975000D01*
X19800000Y-45625000D02*
X18800000Y-45625000D01*
X3175000Y-48250000D02*
X3175000Y-47250000D01*
X1825000Y-47250000D02*
X1825000Y-48250000D01*
X7500000Y-47675000D02*
X8500000Y-47675000D01*
X8500000Y-46325000D02*
X7500000Y-46325000D01*
X5525000Y-39300000D02*
X5525000Y-40300000D01*
X6875000Y-40300000D02*
X6875000Y-39300000D01*
X7600000Y-42875000D02*
X8600000Y-42875000D01*
X8600000Y-41525000D02*
X7600000Y-41525000D01*
X18875000Y-90400000D02*
X18875000Y-89400000D01*
X17525000Y-89400000D02*
X17525000Y-90400000D01*
X17075000Y-90400000D02*
X17075000Y-89400000D01*
X15725000Y-89400000D02*
X15725000Y-90400000D01*
X22475000Y-90400000D02*
X22475000Y-89400000D01*
X21125000Y-89400000D02*
X21125000Y-90400000D01*
X24275000Y-90400000D02*
X24275000Y-89400000D01*
X22925000Y-89400000D02*
X22925000Y-90400000D01*
X22925000Y-101500000D02*
X22925000Y-102500000D01*
X24275000Y-102500000D02*
X24275000Y-101500000D01*
X21125000Y-101500000D02*
X21125000Y-102500000D01*
X22475000Y-102500000D02*
X22475000Y-101500000D01*
X15725000Y-101500000D02*
X15725000Y-102500000D01*
X17075000Y-102500000D02*
X17075000Y-101500000D01*
X17525000Y-101500000D02*
X17525000Y-102500000D01*
X18875000Y-102500000D02*
X18875000Y-101500000D01*
X12125000Y-89400000D02*
X12125000Y-90400000D01*
X13475000Y-90400000D02*
X13475000Y-89400000D01*
X26525000Y-89400000D02*
X26525000Y-90400000D01*
X27875000Y-90400000D02*
X27875000Y-89400000D01*
X27875000Y-102500000D02*
X27875000Y-101500000D01*
X26525000Y-101500000D02*
X26525000Y-102500000D01*
X13475000Y-102400000D02*
X13475000Y-101400000D01*
X12125000Y-101400000D02*
X12125000Y-102400000D01*
X2400000Y-80225000D02*
X1400000Y-80225000D01*
X1400000Y-81575000D02*
X2400000Y-81575000D01*
X12500000Y-80225000D02*
X11500000Y-80225000D01*
X11500000Y-81575000D02*
X12500000Y-81575000D01*
X11675000Y-90400000D02*
X11675000Y-89400000D01*
X10325000Y-89400000D02*
X10325000Y-90400000D01*
X29675000Y-90400000D02*
X29675000Y-89400000D01*
X28325000Y-89400000D02*
X28325000Y-90400000D01*
X28325000Y-101500000D02*
X28325000Y-102500000D01*
X29675000Y-102500000D02*
X29675000Y-101500000D01*
X10325000Y-101500000D02*
X10325000Y-102500000D01*
X11675000Y-102500000D02*
X11675000Y-101500000D01*
X1775000Y-78700000D02*
X1775000Y-77700000D01*
X425000Y-77700000D02*
X425000Y-78700000D01*
X11775000Y-78600000D02*
X11775000Y-77600000D01*
X10425000Y-77600000D02*
X10425000Y-78600000D01*
X21125000Y-40500000D02*
X21125000Y-41500000D01*
X22475000Y-41500000D02*
X22475000Y-40500000D01*
X17525000Y-40500000D02*
X17525000Y-41500000D01*
X18875000Y-41500000D02*
X18875000Y-40500000D01*
X18875000Y-28300000D02*
X18875000Y-27300000D01*
X17525000Y-27300000D02*
X17525000Y-28300000D01*
X22475000Y-28300000D02*
X22475000Y-27300000D01*
X21125000Y-27300000D02*
X21125000Y-28300000D01*
X22500000Y-80225000D02*
X21500000Y-80225000D01*
X21500000Y-81575000D02*
X22500000Y-81575000D01*
X32500000Y-80225000D02*
X31500000Y-80225000D01*
X31500000Y-81575000D02*
X32500000Y-81575000D01*
X24275000Y-42700000D02*
X24275000Y-41700000D01*
X22925000Y-41700000D02*
X22925000Y-42700000D01*
X17075000Y-42700000D02*
X17075000Y-41700000D01*
X15725000Y-41700000D02*
X15725000Y-42700000D01*
X15725000Y-25900000D02*
X15725000Y-26900000D01*
X17075000Y-26900000D02*
X17075000Y-25900000D01*
X22925000Y-25800000D02*
X22925000Y-26800000D01*
X24275000Y-26800000D02*
X24275000Y-25800000D01*
X21775000Y-78600000D02*
X21775000Y-77600000D01*
X20425000Y-77600000D02*
X20425000Y-78600000D01*
X31775000Y-78600000D02*
X31775000Y-77600000D01*
X30425000Y-77600000D02*
X30425000Y-78600000D01*
X26425000Y-38000000D02*
X26425000Y-37000000D01*
X25075000Y-37000000D02*
X25075000Y-38000000D01*
X15175000Y-43000000D02*
X15175000Y-42000000D01*
X13825000Y-42000000D02*
X13825000Y-43000000D01*
X13925000Y-27300000D02*
X13925000Y-28300000D01*
X15275000Y-28300000D02*
X15275000Y-27300000D01*
X24725000Y-27300000D02*
X24725000Y-28300000D01*
X26075000Y-28300000D02*
X26075000Y-27300000D01*
X17375000Y-93575000D02*
X17600000Y-93575000D01*
X17375000Y-98225000D02*
X17600000Y-98225000D01*
X22625000Y-98225000D02*
X22400000Y-98225000D01*
X22625000Y-93575000D02*
X22400000Y-93575000D01*
X17375000Y-93575000D02*
X17375000Y-98225000D01*
X22625000Y-93575000D02*
X22625000Y-98225000D01*
X17600000Y-93575000D02*
X17600000Y-92225000D01*
X19400000Y-89550000D02*
X19400000Y-90250000D01*
X20600000Y-90250000D02*
X20600000Y-89550000D01*
X20600000Y-41350000D02*
X20600000Y-40650000D01*
X19400000Y-40650000D02*
X19400000Y-41350000D01*
X20600000Y-28150000D02*
X20600000Y-27450000D01*
X19400000Y-27450000D02*
X19400000Y-28150000D01*
X1450000Y-35875000D02*
X1450000Y-31475000D01*
X6975000Y-37450000D02*
X6975000Y-31475000D01*
X12500000Y-5200000D02*
X13200000Y-5200000D01*
X13200000Y-4000000D02*
X12500000Y-4000000D01*
X24461905Y-33752381D02*
X24461905Y-34561905D01*
X24414286Y-34657143D01*
X24366667Y-34704762D01*
X24271429Y-34752381D01*
X24080952Y-34752381D01*
X23985714Y-34704762D01*
X23938095Y-34657143D01*
X23890476Y-34561905D01*
X23890476Y-33752381D01*
X22985714Y-33752381D02*
X23176191Y-33752381D01*
X23271429Y-33800000D01*
X23319048Y-33847619D01*
X23414286Y-33990476D01*
X23461905Y-34180952D01*
X23461905Y-34561905D01*
X23414286Y-34657143D01*
X23366667Y-34704762D01*
X23271429Y-34752381D01*
X23080952Y-34752381D01*
X22985714Y-34704762D01*
X22938095Y-34657143D01*
X22890476Y-34561905D01*
X22890476Y-34323810D01*
X22938095Y-34228571D01*
X22985714Y-34180952D01*
X23080952Y-34133333D01*
X23271429Y-34133333D01*
X23366667Y-34180952D01*
X23414286Y-34228571D01*
X23461905Y-34323810D01*
X15457143Y-67033334D02*
X15504762Y-66985715D01*
X15552381Y-66842858D01*
X15552381Y-66747620D01*
X15504762Y-66604762D01*
X15409524Y-66509524D01*
X15314286Y-66461905D01*
X15123810Y-66414286D01*
X14980952Y-66414286D01*
X14790476Y-66461905D01*
X14695238Y-66509524D01*
X14600000Y-66604762D01*
X14552381Y-66747620D01*
X14552381Y-66842858D01*
X14600000Y-66985715D01*
X14647619Y-67033334D01*
X15552381Y-67985715D02*
X15552381Y-67414286D01*
X15552381Y-67700000D02*
X14552381Y-67700000D01*
X14695238Y-67604762D01*
X14790476Y-67509524D01*
X14838095Y-67414286D01*
X28016666Y-5052381D02*
X28350000Y-4576190D01*
X28588095Y-5052381D02*
X28588095Y-4052381D01*
X28207142Y-4052381D01*
X28111904Y-4100000D01*
X28064285Y-4147619D01*
X28016666Y-4242857D01*
X28016666Y-4385714D01*
X28064285Y-4480952D01*
X28111904Y-4528571D01*
X28207142Y-4576190D01*
X28588095Y-4576190D01*
X27111904Y-4052381D02*
X27588095Y-4052381D01*
X27635714Y-4528571D01*
X27588095Y-4480952D01*
X27492857Y-4433333D01*
X27254761Y-4433333D01*
X27159523Y-4480952D01*
X27111904Y-4528571D01*
X27064285Y-4623810D01*
X27064285Y-4861905D01*
X27111904Y-4957143D01*
X27159523Y-5004762D01*
X27254761Y-5052381D01*
X27492857Y-5052381D01*
X27588095Y-5004762D01*
X27635714Y-4957143D01*
X29466666Y-19857143D02*
X29514285Y-19904762D01*
X29657142Y-19952381D01*
X29752380Y-19952381D01*
X29895238Y-19904762D01*
X29990476Y-19809524D01*
X30038095Y-19714286D01*
X30085714Y-19523810D01*
X30085714Y-19380952D01*
X30038095Y-19190476D01*
X29990476Y-19095238D01*
X29895238Y-19000000D01*
X29752380Y-18952381D01*
X29657142Y-18952381D01*
X29514285Y-19000000D01*
X29466666Y-19047619D01*
X28990476Y-19952381D02*
X28800000Y-19952381D01*
X28704761Y-19904762D01*
X28657142Y-19857143D01*
X28561904Y-19714286D01*
X28514285Y-19523810D01*
X28514285Y-19142857D01*
X28561904Y-19047619D01*
X28609523Y-19000000D01*
X28704761Y-18952381D01*
X28895238Y-18952381D01*
X28990476Y-19000000D01*
X29038095Y-19047619D01*
X29085714Y-19142857D01*
X29085714Y-19380952D01*
X29038095Y-19476190D01*
X28990476Y-19523810D01*
X28895238Y-19571429D01*
X28704761Y-19571429D01*
X28609523Y-19523810D01*
X28561904Y-19476190D01*
X28514285Y-19380952D01*
X3457143Y-39633334D02*
X3504762Y-39585715D01*
X3552381Y-39442858D01*
X3552381Y-39347620D01*
X3504762Y-39204762D01*
X3409524Y-39109524D01*
X3314286Y-39061905D01*
X3123810Y-39014286D01*
X2980952Y-39014286D01*
X2790476Y-39061905D01*
X2695238Y-39109524D01*
X2600000Y-39204762D01*
X2552381Y-39347620D01*
X2552381Y-39442858D01*
X2600000Y-39585715D01*
X2647619Y-39633334D01*
X2980952Y-40204762D02*
X2933333Y-40109524D01*
X2885714Y-40061905D01*
X2790476Y-40014286D01*
X2742857Y-40014286D01*
X2647619Y-40061905D01*
X2600000Y-40109524D01*
X2552381Y-40204762D01*
X2552381Y-40395239D01*
X2600000Y-40490477D01*
X2647619Y-40538096D01*
X2742857Y-40585715D01*
X2790476Y-40585715D01*
X2885714Y-40538096D01*
X2933333Y-40490477D01*
X2980952Y-40395239D01*
X2980952Y-40204762D01*
X3028571Y-40109524D01*
X3076190Y-40061905D01*
X3171429Y-40014286D01*
X3361905Y-40014286D01*
X3457143Y-40061905D01*
X3504762Y-40109524D01*
X3552381Y-40204762D01*
X3552381Y-40395239D01*
X3504762Y-40490477D01*
X3457143Y-40538096D01*
X3361905Y-40585715D01*
X3171429Y-40585715D01*
X3076190Y-40538096D01*
X3028571Y-40490477D01*
X2980952Y-40395239D01*
X4457143Y-25333334D02*
X4504762Y-25285715D01*
X4552381Y-25142858D01*
X4552381Y-25047620D01*
X4504762Y-24904762D01*
X4409524Y-24809524D01*
X4314286Y-24761905D01*
X4123810Y-24714286D01*
X3980952Y-24714286D01*
X3790476Y-24761905D01*
X3695238Y-24809524D01*
X3600000Y-24904762D01*
X3552381Y-25047620D01*
X3552381Y-25142858D01*
X3600000Y-25285715D01*
X3647619Y-25333334D01*
X3552381Y-25666667D02*
X3552381Y-26333334D01*
X4552381Y-25904762D01*
X1961905Y-58052381D02*
X1961905Y-58861905D01*
X1914286Y-58957143D01*
X1866667Y-59004762D01*
X1771429Y-59052381D01*
X1580952Y-59052381D01*
X1485714Y-59004762D01*
X1438095Y-58957143D01*
X1390476Y-58861905D01*
X1390476Y-58052381D01*
X485714Y-58385714D02*
X485714Y-59052381D01*
X723810Y-58004762D02*
X961905Y-58719048D01*
X342857Y-58719048D01*
X12952381Y-59038095D02*
X13761905Y-59038095D01*
X13857143Y-59085714D01*
X13904762Y-59133333D01*
X13952381Y-59228571D01*
X13952381Y-59419048D01*
X13904762Y-59514286D01*
X13857143Y-59561905D01*
X13761905Y-59609524D01*
X12952381Y-59609524D01*
X12952381Y-59990476D02*
X12952381Y-60609524D01*
X13333333Y-60276190D01*
X13333333Y-60419048D01*
X13380952Y-60514286D01*
X13428571Y-60561905D01*
X13523810Y-60609524D01*
X13761905Y-60609524D01*
X13857143Y-60561905D01*
X13904762Y-60514286D01*
X13952381Y-60419048D01*
X13952381Y-60133333D01*
X13904762Y-60038095D01*
X13857143Y-59990476D01*
X5852381Y-67933334D02*
X5376190Y-67600000D01*
X5852381Y-67361905D02*
X4852381Y-67361905D01*
X4852381Y-67742858D01*
X4900000Y-67838096D01*
X4947619Y-67885715D01*
X5042857Y-67933334D01*
X5185714Y-67933334D01*
X5280952Y-67885715D01*
X5328571Y-67838096D01*
X5376190Y-67742858D01*
X5376190Y-67361905D01*
X5185714Y-68790477D02*
X5852381Y-68790477D01*
X4804762Y-68552381D02*
X5519048Y-68314286D01*
X5519048Y-68933334D01*
X7652381Y-67933334D02*
X7176190Y-67600000D01*
X7652381Y-67361905D02*
X6652381Y-67361905D01*
X6652381Y-67742858D01*
X6700000Y-67838096D01*
X6747619Y-67885715D01*
X6842857Y-67933334D01*
X6985714Y-67933334D01*
X7080952Y-67885715D01*
X7128571Y-67838096D01*
X7176190Y-67742858D01*
X7176190Y-67361905D01*
X6652381Y-68266667D02*
X6652381Y-68885715D01*
X7033333Y-68552381D01*
X7033333Y-68695239D01*
X7080952Y-68790477D01*
X7128571Y-68838096D01*
X7223810Y-68885715D01*
X7461905Y-68885715D01*
X7557143Y-68838096D01*
X7604762Y-68790477D01*
X7652381Y-68695239D01*
X7652381Y-68409524D01*
X7604762Y-68314286D01*
X7557143Y-68266667D01*
X9452381Y-67933334D02*
X8976190Y-67600000D01*
X9452381Y-67361905D02*
X8452381Y-67361905D01*
X8452381Y-67742858D01*
X8500000Y-67838096D01*
X8547619Y-67885715D01*
X8642857Y-67933334D01*
X8785714Y-67933334D01*
X8880952Y-67885715D01*
X8928571Y-67838096D01*
X8976190Y-67742858D01*
X8976190Y-67361905D01*
X8547619Y-68314286D02*
X8500000Y-68361905D01*
X8452381Y-68457143D01*
X8452381Y-68695239D01*
X8500000Y-68790477D01*
X8547619Y-68838096D01*
X8642857Y-68885715D01*
X8738095Y-68885715D01*
X8880952Y-68838096D01*
X9452381Y-68266667D01*
X9452381Y-68885715D01*
X11352381Y-67933334D02*
X10876190Y-67600000D01*
X11352381Y-67361905D02*
X10352381Y-67361905D01*
X10352381Y-67742858D01*
X10400000Y-67838096D01*
X10447619Y-67885715D01*
X10542857Y-67933334D01*
X10685714Y-67933334D01*
X10780952Y-67885715D01*
X10828571Y-67838096D01*
X10876190Y-67742858D01*
X10876190Y-67361905D01*
X11352381Y-68885715D02*
X11352381Y-68314286D01*
X11352381Y-68600000D02*
X10352381Y-68600000D01*
X10495238Y-68504762D01*
X10590476Y-68409524D01*
X10638095Y-68314286D01*
X1866666Y-65757143D02*
X1914285Y-65804762D01*
X2057142Y-65852381D01*
X2152380Y-65852381D01*
X2295238Y-65804762D01*
X2390476Y-65709524D01*
X2438095Y-65614286D01*
X2485714Y-65423810D01*
X2485714Y-65280952D01*
X2438095Y-65090476D01*
X2390476Y-64995238D01*
X2295238Y-64900000D01*
X2152380Y-64852381D01*
X2057142Y-64852381D01*
X1914285Y-64900000D01*
X1866666Y-64947619D01*
X1009523Y-64852381D02*
X1200000Y-64852381D01*
X1295238Y-64900000D01*
X1342857Y-64947619D01*
X1438095Y-65090476D01*
X1485714Y-65280952D01*
X1485714Y-65661905D01*
X1438095Y-65757143D01*
X1390476Y-65804762D01*
X1295238Y-65852381D01*
X1104761Y-65852381D01*
X1009523Y-65804762D01*
X961904Y-65757143D01*
X914285Y-65661905D01*
X914285Y-65423810D01*
X961904Y-65328571D01*
X1009523Y-65280952D01*
X1104761Y-65233333D01*
X1295238Y-65233333D01*
X1390476Y-65280952D01*
X1438095Y-65328571D01*
X1485714Y-65423810D01*
X865312Y-55970389D02*
X865312Y-56037732D01*
X932656Y-56172419D01*
X999999Y-56239763D01*
X1134687Y-56307107D01*
X1269374Y-56307107D01*
X1370389Y-56273435D01*
X1538747Y-56172420D01*
X1639763Y-56071404D01*
X1740778Y-55903045D01*
X1774450Y-55802030D01*
X1774450Y-55667343D01*
X1707106Y-55532656D01*
X1639763Y-55465312D01*
X1505076Y-55397969D01*
X1437732Y-55397969D01*
X865312Y-54690862D02*
X1202030Y-55027580D01*
X898985Y-55397969D01*
X898985Y-55330626D01*
X865313Y-55229610D01*
X696954Y-55061251D01*
X595939Y-55027579D01*
X528595Y-55027579D01*
X427579Y-55061252D01*
X259221Y-55229610D01*
X225549Y-55330626D01*
X225549Y-55397969D01*
X259221Y-55498984D01*
X427580Y-55667343D01*
X528595Y-55701015D01*
X595939Y-55701015D01*
X13957143Y-65433334D02*
X14004762Y-65385715D01*
X14052381Y-65242858D01*
X14052381Y-65147620D01*
X14004762Y-65004762D01*
X13909524Y-64909524D01*
X13814286Y-64861905D01*
X13623810Y-64814286D01*
X13480952Y-64814286D01*
X13290476Y-64861905D01*
X13195238Y-64909524D01*
X13100000Y-65004762D01*
X13052381Y-65147620D01*
X13052381Y-65242858D01*
X13100000Y-65385715D01*
X13147619Y-65433334D01*
X13052381Y-65766667D02*
X13052381Y-66385715D01*
X13433333Y-66052381D01*
X13433333Y-66195239D01*
X13480952Y-66290477D01*
X13528571Y-66338096D01*
X13623810Y-66385715D01*
X13861905Y-66385715D01*
X13957143Y-66338096D01*
X14004762Y-66290477D01*
X14052381Y-66195239D01*
X14052381Y-65909524D01*
X14004762Y-65814286D01*
X13957143Y-65766667D01*
X4457143Y-53933334D02*
X4504762Y-53885715D01*
X4552381Y-53742858D01*
X4552381Y-53647620D01*
X4504762Y-53504762D01*
X4409524Y-53409524D01*
X4314286Y-53361905D01*
X4123810Y-53314286D01*
X3980952Y-53314286D01*
X3790476Y-53361905D01*
X3695238Y-53409524D01*
X3600000Y-53504762D01*
X3552381Y-53647620D01*
X3552381Y-53742858D01*
X3600000Y-53885715D01*
X3647619Y-53933334D01*
X3885714Y-54790477D02*
X4552381Y-54790477D01*
X3504762Y-54552381D02*
X4219048Y-54314286D01*
X4219048Y-54933334D01*
X15457143Y-51233334D02*
X15504762Y-51185715D01*
X15552381Y-51042858D01*
X15552381Y-50947620D01*
X15504762Y-50804762D01*
X15409524Y-50709524D01*
X15314286Y-50661905D01*
X15123810Y-50614286D01*
X14980952Y-50614286D01*
X14790476Y-50661905D01*
X14695238Y-50709524D01*
X14600000Y-50804762D01*
X14552381Y-50947620D01*
X14552381Y-51042858D01*
X14600000Y-51185715D01*
X14647619Y-51233334D01*
X14647619Y-51614286D02*
X14600000Y-51661905D01*
X14552381Y-51757143D01*
X14552381Y-51995239D01*
X14600000Y-52090477D01*
X14647619Y-52138096D01*
X14742857Y-52185715D01*
X14838095Y-52185715D01*
X14980952Y-52138096D01*
X15552381Y-51566667D01*
X15552381Y-52185715D01*
X11766666Y-53152381D02*
X12242857Y-53152381D01*
X12242857Y-52152381D01*
X11528571Y-52152381D02*
X10909523Y-52152381D01*
X11242857Y-52533333D01*
X11099999Y-52533333D01*
X11004761Y-52580952D01*
X10957142Y-52628571D01*
X10909523Y-52723810D01*
X10909523Y-52961905D01*
X10957142Y-53057143D01*
X11004761Y-53104762D01*
X11099999Y-53152381D01*
X11385714Y-53152381D01*
X11480952Y-53104762D01*
X11528571Y-53057143D01*
X20666666Y-72752381D02*
X21142857Y-72752381D01*
X21142857Y-71752381D01*
X19809523Y-72752381D02*
X20380952Y-72752381D01*
X20095238Y-72752381D02*
X20095238Y-71752381D01*
X20190476Y-71895238D01*
X20285714Y-71990476D01*
X20380952Y-72038095D01*
X26966666Y-52652381D02*
X27442857Y-52652381D01*
X27442857Y-51652381D01*
X26680952Y-51747619D02*
X26633333Y-51700000D01*
X26538095Y-51652381D01*
X26299999Y-51652381D01*
X26204761Y-51700000D01*
X26157142Y-51747619D01*
X26109523Y-51842857D01*
X26109523Y-51938095D01*
X26157142Y-52080952D01*
X26728571Y-52652381D01*
X26109523Y-52652381D01*
X17257143Y-48057143D02*
X17304762Y-48009524D01*
X17352381Y-47866667D01*
X17352381Y-47771429D01*
X17304762Y-47628571D01*
X17209524Y-47533333D01*
X17114286Y-47485714D01*
X16923810Y-47438095D01*
X16780952Y-47438095D01*
X16590476Y-47485714D01*
X16495238Y-47533333D01*
X16400000Y-47628571D01*
X16352381Y-47771429D01*
X16352381Y-47866667D01*
X16400000Y-48009524D01*
X16447619Y-48057143D01*
X17352381Y-49009524D02*
X17352381Y-48438095D01*
X17352381Y-48723809D02*
X16352381Y-48723809D01*
X16495238Y-48628571D01*
X16590476Y-48533333D01*
X16638095Y-48438095D01*
X16352381Y-49628571D02*
X16352381Y-49723810D01*
X16400000Y-49819048D01*
X16447619Y-49866667D01*
X16542857Y-49914286D01*
X16733333Y-49961905D01*
X16971429Y-49961905D01*
X17161905Y-49914286D01*
X17257143Y-49866667D01*
X17304762Y-49819048D01*
X17352381Y-49723810D01*
X17352381Y-49628571D01*
X17304762Y-49533333D01*
X17257143Y-49485714D01*
X17161905Y-49438095D01*
X16971429Y-49390476D01*
X16733333Y-49390476D01*
X16542857Y-49438095D01*
X16447619Y-49485714D01*
X16400000Y-49533333D01*
X16352381Y-49628571D01*
X6707143Y-47107143D02*
X6754762Y-47059524D01*
X6802381Y-46916667D01*
X6802381Y-46821429D01*
X6754762Y-46678571D01*
X6659524Y-46583333D01*
X6564286Y-46535714D01*
X6373810Y-46488095D01*
X6230952Y-46488095D01*
X6040476Y-46535714D01*
X5945238Y-46583333D01*
X5850000Y-46678571D01*
X5802381Y-46821429D01*
X5802381Y-46916667D01*
X5850000Y-47059524D01*
X5897619Y-47107143D01*
X6802381Y-48059524D02*
X6802381Y-47488095D01*
X6802381Y-47773809D02*
X5802381Y-47773809D01*
X5945238Y-47678571D01*
X6040476Y-47583333D01*
X6088095Y-47488095D01*
X6802381Y-49011905D02*
X6802381Y-48440476D01*
X6802381Y-48726190D02*
X5802381Y-48726190D01*
X5945238Y-48630952D01*
X6040476Y-48535714D01*
X6088095Y-48440476D01*
X8642857Y-50957143D02*
X8690476Y-51004762D01*
X8833333Y-51052381D01*
X8928571Y-51052381D01*
X9071429Y-51004762D01*
X9166667Y-50909524D01*
X9214286Y-50814286D01*
X9261905Y-50623810D01*
X9261905Y-50480952D01*
X9214286Y-50290476D01*
X9166667Y-50195238D01*
X9071429Y-50100000D01*
X8928571Y-50052381D01*
X8833333Y-50052381D01*
X8690476Y-50100000D01*
X8642857Y-50147619D01*
X7690476Y-51052381D02*
X8261905Y-51052381D01*
X7976191Y-51052381D02*
X7976191Y-50052381D01*
X8071429Y-50195238D01*
X8166667Y-50290476D01*
X8261905Y-50338095D01*
X7309524Y-50147619D02*
X7261905Y-50100000D01*
X7166667Y-50052381D01*
X6928571Y-50052381D01*
X6833333Y-50100000D01*
X6785714Y-50147619D01*
X6738095Y-50242857D01*
X6738095Y-50338095D01*
X6785714Y-50480952D01*
X7357143Y-51052381D01*
X6738095Y-51052381D01*
X9657143Y-39157143D02*
X9704762Y-39109524D01*
X9752381Y-38966667D01*
X9752381Y-38871429D01*
X9704762Y-38728571D01*
X9609524Y-38633333D01*
X9514286Y-38585714D01*
X9323810Y-38538095D01*
X9180952Y-38538095D01*
X8990476Y-38585714D01*
X8895238Y-38633333D01*
X8800000Y-38728571D01*
X8752381Y-38871429D01*
X8752381Y-38966667D01*
X8800000Y-39109524D01*
X8847619Y-39157143D01*
X9752381Y-40109524D02*
X9752381Y-39538095D01*
X9752381Y-39823809D02*
X8752381Y-39823809D01*
X8895238Y-39728571D01*
X8990476Y-39633333D01*
X9038095Y-39538095D01*
X8752381Y-40442857D02*
X8752381Y-41061905D01*
X9133333Y-40728571D01*
X9133333Y-40871429D01*
X9180952Y-40966667D01*
X9228571Y-41014286D01*
X9323810Y-41061905D01*
X9561905Y-41061905D01*
X9657143Y-41014286D01*
X9704762Y-40966667D01*
X9752381Y-40871429D01*
X9752381Y-40585714D01*
X9704762Y-40490476D01*
X9657143Y-40442857D01*
X23442857Y-46057143D02*
X23490476Y-46104762D01*
X23633333Y-46152381D01*
X23728571Y-46152381D01*
X23871429Y-46104762D01*
X23966667Y-46009524D01*
X24014286Y-45914286D01*
X24061905Y-45723810D01*
X24061905Y-45580952D01*
X24014286Y-45390476D01*
X23966667Y-45295238D01*
X23871429Y-45200000D01*
X23728571Y-45152381D01*
X23633333Y-45152381D01*
X23490476Y-45200000D01*
X23442857Y-45247619D01*
X22490476Y-46152381D02*
X23061905Y-46152381D01*
X22776191Y-46152381D02*
X22776191Y-45152381D01*
X22871429Y-45295238D01*
X22966667Y-45390476D01*
X23061905Y-45438095D01*
X21633333Y-45485714D02*
X21633333Y-46152381D01*
X21871429Y-45104762D02*
X22109524Y-45819048D01*
X21490476Y-45819048D01*
X11642857Y-44357143D02*
X11690476Y-44404762D01*
X11833333Y-44452381D01*
X11928571Y-44452381D01*
X12071429Y-44404762D01*
X12166667Y-44309524D01*
X12214286Y-44214286D01*
X12261905Y-44023810D01*
X12261905Y-43880952D01*
X12214286Y-43690476D01*
X12166667Y-43595238D01*
X12071429Y-43500000D01*
X11928571Y-43452381D01*
X11833333Y-43452381D01*
X11690476Y-43500000D01*
X11642857Y-43547619D01*
X10690476Y-44452381D02*
X11261905Y-44452381D01*
X10976191Y-44452381D02*
X10976191Y-43452381D01*
X11071429Y-43595238D01*
X11166667Y-43690476D01*
X11261905Y-43738095D01*
X9785714Y-43452381D02*
X10261905Y-43452381D01*
X10309524Y-43928571D01*
X10261905Y-43880952D01*
X10166667Y-43833333D01*
X9928571Y-43833333D01*
X9833333Y-43880952D01*
X9785714Y-43928571D01*
X9738095Y-44023810D01*
X9738095Y-44261905D01*
X9785714Y-44357143D01*
X9833333Y-44404762D01*
X9928571Y-44452381D01*
X10166667Y-44452381D01*
X10261905Y-44404762D01*
X10309524Y-44357143D01*
X1857143Y-44407143D02*
X1904762Y-44359524D01*
X1952381Y-44216667D01*
X1952381Y-44121429D01*
X1904762Y-43978571D01*
X1809524Y-43883333D01*
X1714286Y-43835714D01*
X1523810Y-43788095D01*
X1380952Y-43788095D01*
X1190476Y-43835714D01*
X1095238Y-43883333D01*
X1000000Y-43978571D01*
X952381Y-44121429D01*
X952381Y-44216667D01*
X1000000Y-44359524D01*
X1047619Y-44407143D01*
X1952381Y-45359524D02*
X1952381Y-44788095D01*
X1952381Y-45073809D02*
X952381Y-45073809D01*
X1095238Y-44978571D01*
X1190476Y-44883333D01*
X1238095Y-44788095D01*
X952381Y-46216667D02*
X952381Y-46026190D01*
X1000000Y-45930952D01*
X1047619Y-45883333D01*
X1190476Y-45788095D01*
X1380952Y-45740476D01*
X1761905Y-45740476D01*
X1857143Y-45788095D01*
X1904762Y-45835714D01*
X1952381Y-45930952D01*
X1952381Y-46121429D01*
X1904762Y-46216667D01*
X1857143Y-46264286D01*
X1761905Y-46311905D01*
X1523810Y-46311905D01*
X1428571Y-46264286D01*
X1380952Y-46216667D01*
X1333333Y-46121429D01*
X1333333Y-45930952D01*
X1380952Y-45835714D01*
X1428571Y-45788095D01*
X1523810Y-45740476D01*
X39057143Y-34557143D02*
X39104762Y-34509524D01*
X39152381Y-34366667D01*
X39152381Y-34271429D01*
X39104762Y-34128571D01*
X39009524Y-34033333D01*
X38914286Y-33985714D01*
X38723810Y-33938095D01*
X38580952Y-33938095D01*
X38390476Y-33985714D01*
X38295238Y-34033333D01*
X38200000Y-34128571D01*
X38152381Y-34271429D01*
X38152381Y-34366667D01*
X38200000Y-34509524D01*
X38247619Y-34557143D01*
X39152381Y-35509524D02*
X39152381Y-34938095D01*
X39152381Y-35223809D02*
X38152381Y-35223809D01*
X38295238Y-35128571D01*
X38390476Y-35033333D01*
X38438095Y-34938095D01*
X38152381Y-35842857D02*
X38152381Y-36509524D01*
X39152381Y-36080952D01*
X12642857Y-93257143D02*
X12690476Y-93304762D01*
X12833333Y-93352381D01*
X12928571Y-93352381D01*
X13071429Y-93304762D01*
X13166667Y-93209524D01*
X13214286Y-93114286D01*
X13261905Y-92923810D01*
X13261905Y-92780952D01*
X13214286Y-92590476D01*
X13166667Y-92495238D01*
X13071429Y-92400000D01*
X12928571Y-92352381D01*
X12833333Y-92352381D01*
X12690476Y-92400000D01*
X12642857Y-92447619D01*
X11690476Y-93352381D02*
X12261905Y-93352381D01*
X11976191Y-93352381D02*
X11976191Y-92352381D01*
X12071429Y-92495238D01*
X12166667Y-92590476D01*
X12261905Y-92638095D01*
X11119048Y-92780952D02*
X11214286Y-92733333D01*
X11261905Y-92685714D01*
X11309524Y-92590476D01*
X11309524Y-92542857D01*
X11261905Y-92447619D01*
X11214286Y-92400000D01*
X11119048Y-92352381D01*
X10928571Y-92352381D01*
X10833333Y-92400000D01*
X10785714Y-92447619D01*
X10738095Y-92542857D01*
X10738095Y-92590476D01*
X10785714Y-92685714D01*
X10833333Y-92733333D01*
X10928571Y-92780952D01*
X11119048Y-92780952D01*
X11214286Y-92828571D01*
X11261905Y-92876190D01*
X11309524Y-92971429D01*
X11309524Y-93161905D01*
X11261905Y-93257143D01*
X11214286Y-93304762D01*
X11119048Y-93352381D01*
X10928571Y-93352381D01*
X10833333Y-93304762D01*
X10785714Y-93257143D01*
X10738095Y-93161905D01*
X10738095Y-92971429D01*
X10785714Y-92876190D01*
X10833333Y-92828571D01*
X10928571Y-92780952D01*
X26042857Y-92557143D02*
X26090476Y-92604762D01*
X26233333Y-92652381D01*
X26328571Y-92652381D01*
X26471429Y-92604762D01*
X26566667Y-92509524D01*
X26614286Y-92414286D01*
X26661905Y-92223810D01*
X26661905Y-92080952D01*
X26614286Y-91890476D01*
X26566667Y-91795238D01*
X26471429Y-91700000D01*
X26328571Y-91652381D01*
X26233333Y-91652381D01*
X26090476Y-91700000D01*
X26042857Y-91747619D01*
X25090476Y-92652381D02*
X25661905Y-92652381D01*
X25376191Y-92652381D02*
X25376191Y-91652381D01*
X25471429Y-91795238D01*
X25566667Y-91890476D01*
X25661905Y-91938095D01*
X24614286Y-92652381D02*
X24423810Y-92652381D01*
X24328571Y-92604762D01*
X24280952Y-92557143D01*
X24185714Y-92414286D01*
X24138095Y-92223810D01*
X24138095Y-91842857D01*
X24185714Y-91747619D01*
X24233333Y-91700000D01*
X24328571Y-91652381D01*
X24519048Y-91652381D01*
X24614286Y-91700000D01*
X24661905Y-91747619D01*
X24709524Y-91842857D01*
X24709524Y-92080952D01*
X24661905Y-92176190D01*
X24614286Y-92223810D01*
X24519048Y-92271429D01*
X24328571Y-92271429D01*
X24233333Y-92223810D01*
X24185714Y-92176190D01*
X24138095Y-92080952D01*
X25757143Y-104057143D02*
X25804762Y-104009524D01*
X25852381Y-103866667D01*
X25852381Y-103771429D01*
X25804762Y-103628571D01*
X25709524Y-103533333D01*
X25614286Y-103485714D01*
X25423810Y-103438095D01*
X25280952Y-103438095D01*
X25090476Y-103485714D01*
X24995238Y-103533333D01*
X24900000Y-103628571D01*
X24852381Y-103771429D01*
X24852381Y-103866667D01*
X24900000Y-104009524D01*
X24947619Y-104057143D01*
X24947619Y-104438095D02*
X24900000Y-104485714D01*
X24852381Y-104580952D01*
X24852381Y-104819048D01*
X24900000Y-104914286D01*
X24947619Y-104961905D01*
X25042857Y-105009524D01*
X25138095Y-105009524D01*
X25280952Y-104961905D01*
X25852381Y-104390476D01*
X25852381Y-105009524D01*
X24852381Y-105628571D02*
X24852381Y-105723810D01*
X24900000Y-105819048D01*
X24947619Y-105866667D01*
X25042857Y-105914286D01*
X25233333Y-105961905D01*
X25471429Y-105961905D01*
X25661905Y-105914286D01*
X25757143Y-105866667D01*
X25804762Y-105819048D01*
X25852381Y-105723810D01*
X25852381Y-105628571D01*
X25804762Y-105533333D01*
X25757143Y-105485714D01*
X25661905Y-105438095D01*
X25471429Y-105390476D01*
X25233333Y-105390476D01*
X25042857Y-105438095D01*
X24947619Y-105485714D01*
X24900000Y-105533333D01*
X24852381Y-105628571D01*
X14957143Y-104157143D02*
X15004762Y-104109524D01*
X15052381Y-103966667D01*
X15052381Y-103871429D01*
X15004762Y-103728571D01*
X14909524Y-103633333D01*
X14814286Y-103585714D01*
X14623810Y-103538095D01*
X14480952Y-103538095D01*
X14290476Y-103585714D01*
X14195238Y-103633333D01*
X14100000Y-103728571D01*
X14052381Y-103871429D01*
X14052381Y-103966667D01*
X14100000Y-104109524D01*
X14147619Y-104157143D01*
X14147619Y-104538095D02*
X14100000Y-104585714D01*
X14052381Y-104680952D01*
X14052381Y-104919048D01*
X14100000Y-105014286D01*
X14147619Y-105061905D01*
X14242857Y-105109524D01*
X14338095Y-105109524D01*
X14480952Y-105061905D01*
X15052381Y-104490476D01*
X15052381Y-105109524D01*
X15052381Y-106061905D02*
X15052381Y-105490476D01*
X15052381Y-105776190D02*
X14052381Y-105776190D01*
X14195238Y-105680952D01*
X14290476Y-105585714D01*
X14338095Y-105490476D01*
X23957143Y-35857143D02*
X24004762Y-35809524D01*
X24052381Y-35666667D01*
X24052381Y-35571429D01*
X24004762Y-35428571D01*
X23909524Y-35333333D01*
X23814286Y-35285714D01*
X23623810Y-35238095D01*
X23480952Y-35238095D01*
X23290476Y-35285714D01*
X23195238Y-35333333D01*
X23100000Y-35428571D01*
X23052381Y-35571429D01*
X23052381Y-35666667D01*
X23100000Y-35809524D01*
X23147619Y-35857143D01*
X23147619Y-36238095D02*
X23100000Y-36285714D01*
X23052381Y-36380952D01*
X23052381Y-36619048D01*
X23100000Y-36714286D01*
X23147619Y-36761905D01*
X23242857Y-36809524D01*
X23338095Y-36809524D01*
X23480952Y-36761905D01*
X24052381Y-36190476D01*
X24052381Y-36809524D01*
X23147619Y-37190476D02*
X23100000Y-37238095D01*
X23052381Y-37333333D01*
X23052381Y-37571429D01*
X23100000Y-37666667D01*
X23147619Y-37714286D01*
X23242857Y-37761905D01*
X23338095Y-37761905D01*
X23480952Y-37714286D01*
X24052381Y-37142857D01*
X24052381Y-37761905D01*
X16757143Y-35757143D02*
X16804762Y-35709524D01*
X16852381Y-35566667D01*
X16852381Y-35471429D01*
X16804762Y-35328571D01*
X16709524Y-35233333D01*
X16614286Y-35185714D01*
X16423810Y-35138095D01*
X16280952Y-35138095D01*
X16090476Y-35185714D01*
X15995238Y-35233333D01*
X15900000Y-35328571D01*
X15852381Y-35471429D01*
X15852381Y-35566667D01*
X15900000Y-35709524D01*
X15947619Y-35757143D01*
X15947619Y-36138095D02*
X15900000Y-36185714D01*
X15852381Y-36280952D01*
X15852381Y-36519048D01*
X15900000Y-36614286D01*
X15947619Y-36661905D01*
X16042857Y-36709524D01*
X16138095Y-36709524D01*
X16280952Y-36661905D01*
X16852381Y-36090476D01*
X16852381Y-36709524D01*
X15852381Y-37042857D02*
X15852381Y-37661905D01*
X16233333Y-37328571D01*
X16233333Y-37471429D01*
X16280952Y-37566667D01*
X16328571Y-37614286D01*
X16423810Y-37661905D01*
X16661905Y-37661905D01*
X16757143Y-37614286D01*
X16804762Y-37566667D01*
X16852381Y-37471429D01*
X16852381Y-37185714D01*
X16804762Y-37090476D01*
X16757143Y-37042857D01*
X16757143Y-31457143D02*
X16804762Y-31409524D01*
X16852381Y-31266667D01*
X16852381Y-31171429D01*
X16804762Y-31028571D01*
X16709524Y-30933333D01*
X16614286Y-30885714D01*
X16423810Y-30838095D01*
X16280952Y-30838095D01*
X16090476Y-30885714D01*
X15995238Y-30933333D01*
X15900000Y-31028571D01*
X15852381Y-31171429D01*
X15852381Y-31266667D01*
X15900000Y-31409524D01*
X15947619Y-31457143D01*
X15947619Y-31838095D02*
X15900000Y-31885714D01*
X15852381Y-31980952D01*
X15852381Y-32219048D01*
X15900000Y-32314286D01*
X15947619Y-32361905D01*
X16042857Y-32409524D01*
X16138095Y-32409524D01*
X16280952Y-32361905D01*
X16852381Y-31790476D01*
X16852381Y-32409524D01*
X16185714Y-33266667D02*
X16852381Y-33266667D01*
X15804762Y-33028571D02*
X16519048Y-32790476D01*
X16519048Y-33409524D01*
X23957143Y-31457143D02*
X24004762Y-31409524D01*
X24052381Y-31266667D01*
X24052381Y-31171429D01*
X24004762Y-31028571D01*
X23909524Y-30933333D01*
X23814286Y-30885714D01*
X23623810Y-30838095D01*
X23480952Y-30838095D01*
X23290476Y-30885714D01*
X23195238Y-30933333D01*
X23100000Y-31028571D01*
X23052381Y-31171429D01*
X23052381Y-31266667D01*
X23100000Y-31409524D01*
X23147619Y-31457143D01*
X23147619Y-31838095D02*
X23100000Y-31885714D01*
X23052381Y-31980952D01*
X23052381Y-32219048D01*
X23100000Y-32314286D01*
X23147619Y-32361905D01*
X23242857Y-32409524D01*
X23338095Y-32409524D01*
X23480952Y-32361905D01*
X24052381Y-31790476D01*
X24052381Y-32409524D01*
X23052381Y-33314286D02*
X23052381Y-32838095D01*
X23528571Y-32790476D01*
X23480952Y-32838095D01*
X23433333Y-32933333D01*
X23433333Y-33171429D01*
X23480952Y-33266667D01*
X23528571Y-33314286D01*
X23623810Y-33361905D01*
X23861905Y-33361905D01*
X23957143Y-33314286D01*
X24004762Y-33266667D01*
X24052381Y-33171429D01*
X24052381Y-32933333D01*
X24004762Y-32838095D01*
X23957143Y-32790476D01*
X26438095Y-49152381D02*
X26438095Y-48152381D01*
X26200000Y-48152381D01*
X26057142Y-48200000D01*
X25961904Y-48295238D01*
X25914285Y-48390476D01*
X25866666Y-48580952D01*
X25866666Y-48723810D01*
X25914285Y-48914286D01*
X25961904Y-49009524D01*
X26057142Y-49104762D01*
X26200000Y-49152381D01*
X26438095Y-49152381D01*
X24914285Y-49152381D02*
X25485714Y-49152381D01*
X25200000Y-49152381D02*
X25200000Y-48152381D01*
X25295238Y-48295238D01*
X25390476Y-48390476D01*
X25485714Y-48438095D01*
X6795238Y-78647619D02*
X6890476Y-78600000D01*
X6985714Y-78504762D01*
X7128571Y-78361905D01*
X7223810Y-78314286D01*
X7319048Y-78314286D01*
X7271429Y-78552381D02*
X7366667Y-78504762D01*
X7461905Y-78409524D01*
X7509524Y-78219048D01*
X7509524Y-77885714D01*
X7461905Y-77695238D01*
X7366667Y-77600000D01*
X7271429Y-77552381D01*
X7080952Y-77552381D01*
X6985714Y-77600000D01*
X6890476Y-77695238D01*
X6842857Y-77885714D01*
X6842857Y-78219048D01*
X6890476Y-78409524D01*
X6985714Y-78504762D01*
X7080952Y-78552381D01*
X7271429Y-78552381D01*
X5890476Y-78552381D02*
X6461905Y-78552381D01*
X6176191Y-78552381D02*
X6176191Y-77552381D01*
X6271429Y-77695238D01*
X6366667Y-77790476D01*
X6461905Y-77838095D01*
X16895238Y-78647619D02*
X16990476Y-78600000D01*
X17085714Y-78504762D01*
X17228571Y-78361905D01*
X17323810Y-78314286D01*
X17419048Y-78314286D01*
X17371429Y-78552381D02*
X17466667Y-78504762D01*
X17561905Y-78409524D01*
X17609524Y-78219048D01*
X17609524Y-77885714D01*
X17561905Y-77695238D01*
X17466667Y-77600000D01*
X17371429Y-77552381D01*
X17180952Y-77552381D01*
X17085714Y-77600000D01*
X16990476Y-77695238D01*
X16942857Y-77885714D01*
X16942857Y-78219048D01*
X16990476Y-78409524D01*
X17085714Y-78504762D01*
X17180952Y-78552381D01*
X17371429Y-78552381D01*
X16561905Y-77647619D02*
X16514286Y-77600000D01*
X16419048Y-77552381D01*
X16180952Y-77552381D01*
X16085714Y-77600000D01*
X16038095Y-77647619D01*
X15990476Y-77742857D01*
X15990476Y-77838095D01*
X16038095Y-77980952D01*
X16609524Y-78552381D01*
X15990476Y-78552381D01*
X26795238Y-78747619D02*
X26890476Y-78700000D01*
X26985714Y-78604762D01*
X27128571Y-78461905D01*
X27223810Y-78414286D01*
X27319048Y-78414286D01*
X27271429Y-78652381D02*
X27366667Y-78604762D01*
X27461905Y-78509524D01*
X27509524Y-78319048D01*
X27509524Y-77985714D01*
X27461905Y-77795238D01*
X27366667Y-77700000D01*
X27271429Y-77652381D01*
X27080952Y-77652381D01*
X26985714Y-77700000D01*
X26890476Y-77795238D01*
X26842857Y-77985714D01*
X26842857Y-78319048D01*
X26890476Y-78509524D01*
X26985714Y-78604762D01*
X27080952Y-78652381D01*
X27271429Y-78652381D01*
X26509524Y-77652381D02*
X25890476Y-77652381D01*
X26223810Y-78033333D01*
X26080952Y-78033333D01*
X25985714Y-78080952D01*
X25938095Y-78128571D01*
X25890476Y-78223810D01*
X25890476Y-78461905D01*
X25938095Y-78557143D01*
X25985714Y-78604762D01*
X26080952Y-78652381D01*
X26366667Y-78652381D01*
X26461905Y-78604762D01*
X26509524Y-78557143D01*
X36895238Y-78647619D02*
X36990476Y-78600000D01*
X37085714Y-78504762D01*
X37228571Y-78361905D01*
X37323810Y-78314286D01*
X37419048Y-78314286D01*
X37371429Y-78552381D02*
X37466667Y-78504762D01*
X37561905Y-78409524D01*
X37609524Y-78219048D01*
X37609524Y-77885714D01*
X37561905Y-77695238D01*
X37466667Y-77600000D01*
X37371429Y-77552381D01*
X37180952Y-77552381D01*
X37085714Y-77600000D01*
X36990476Y-77695238D01*
X36942857Y-77885714D01*
X36942857Y-78219048D01*
X36990476Y-78409524D01*
X37085714Y-78504762D01*
X37180952Y-78552381D01*
X37371429Y-78552381D01*
X36085714Y-77885714D02*
X36085714Y-78552381D01*
X36323810Y-77504762D02*
X36561905Y-78219048D01*
X35942857Y-78219048D01*
X17166666Y-46752381D02*
X17500000Y-46276190D01*
X17738095Y-46752381D02*
X17738095Y-45752381D01*
X17357142Y-45752381D01*
X17261904Y-45800000D01*
X17214285Y-45847619D01*
X17166666Y-45942857D01*
X17166666Y-46085714D01*
X17214285Y-46180952D01*
X17261904Y-46228571D01*
X17357142Y-46276190D01*
X17738095Y-46276190D01*
X16309523Y-45752381D02*
X16500000Y-45752381D01*
X16595238Y-45800000D01*
X16642857Y-45847619D01*
X16738095Y-45990476D01*
X16785714Y-46180952D01*
X16785714Y-46561905D01*
X16738095Y-46657143D01*
X16690476Y-46704762D01*
X16595238Y-46752381D01*
X16404761Y-46752381D01*
X16309523Y-46704762D01*
X16261904Y-46657143D01*
X16214285Y-46561905D01*
X16214285Y-46323810D01*
X16261904Y-46228571D01*
X16309523Y-46180952D01*
X16404761Y-46133333D01*
X16595238Y-46133333D01*
X16690476Y-46180952D01*
X16738095Y-46228571D01*
X16785714Y-46323810D01*
X1452381Y-47583334D02*
X976190Y-47250000D01*
X1452381Y-47011905D02*
X452381Y-47011905D01*
X452381Y-47392858D01*
X500000Y-47488096D01*
X547619Y-47535715D01*
X642857Y-47583334D01*
X785714Y-47583334D01*
X880952Y-47535715D01*
X928571Y-47488096D01*
X976190Y-47392858D01*
X976190Y-47011905D01*
X452381Y-47916667D02*
X452381Y-48583334D01*
X1452381Y-48154762D01*
X8166666Y-45952381D02*
X8500000Y-45476190D01*
X8738095Y-45952381D02*
X8738095Y-44952381D01*
X8357142Y-44952381D01*
X8261904Y-45000000D01*
X8214285Y-45047619D01*
X8166666Y-45142857D01*
X8166666Y-45285714D01*
X8214285Y-45380952D01*
X8261904Y-45428571D01*
X8357142Y-45476190D01*
X8738095Y-45476190D01*
X7595238Y-45380952D02*
X7690476Y-45333333D01*
X7738095Y-45285714D01*
X7785714Y-45190476D01*
X7785714Y-45142857D01*
X7738095Y-45047619D01*
X7690476Y-45000000D01*
X7595238Y-44952381D01*
X7404761Y-44952381D01*
X7309523Y-45000000D01*
X7261904Y-45047619D01*
X7214285Y-45142857D01*
X7214285Y-45190476D01*
X7261904Y-45285714D01*
X7309523Y-45333333D01*
X7404761Y-45380952D01*
X7595238Y-45380952D01*
X7690476Y-45428571D01*
X7738095Y-45476190D01*
X7785714Y-45571429D01*
X7785714Y-45761905D01*
X7738095Y-45857143D01*
X7690476Y-45904762D01*
X7595238Y-45952381D01*
X7404761Y-45952381D01*
X7309523Y-45904762D01*
X7261904Y-45857143D01*
X7214285Y-45761905D01*
X7214285Y-45571429D01*
X7261904Y-45476190D01*
X7309523Y-45428571D01*
X7404761Y-45380952D01*
X5066666Y-43452381D02*
X5400000Y-42976190D01*
X5638095Y-43452381D02*
X5638095Y-42452381D01*
X5257142Y-42452381D01*
X5161904Y-42500000D01*
X5114285Y-42547619D01*
X5066666Y-42642857D01*
X5066666Y-42785714D01*
X5114285Y-42880952D01*
X5161904Y-42928571D01*
X5257142Y-42976190D01*
X5638095Y-42976190D01*
X4590476Y-43452381D02*
X4400000Y-43452381D01*
X4304761Y-43404762D01*
X4257142Y-43357143D01*
X4161904Y-43214286D01*
X4114285Y-43023810D01*
X4114285Y-42642857D01*
X4161904Y-42547619D01*
X4209523Y-42500000D01*
X4304761Y-42452381D01*
X4495238Y-42452381D01*
X4590476Y-42500000D01*
X4638095Y-42547619D01*
X4685714Y-42642857D01*
X4685714Y-42880952D01*
X4638095Y-42976190D01*
X4590476Y-43023810D01*
X4495238Y-43071429D01*
X4304761Y-43071429D01*
X4209523Y-43023810D01*
X4161904Y-42976190D01*
X4114285Y-42880952D01*
X11642857Y-42452381D02*
X11976191Y-41976190D01*
X12214286Y-42452381D02*
X12214286Y-41452381D01*
X11833333Y-41452381D01*
X11738095Y-41500000D01*
X11690476Y-41547619D01*
X11642857Y-41642857D01*
X11642857Y-41785714D01*
X11690476Y-41880952D01*
X11738095Y-41928571D01*
X11833333Y-41976190D01*
X12214286Y-41976190D01*
X10690476Y-42452381D02*
X11261905Y-42452381D01*
X10976191Y-42452381D02*
X10976191Y-41452381D01*
X11071429Y-41595238D01*
X11166667Y-41690476D01*
X11261905Y-41738095D01*
X10071429Y-41452381D02*
X9976190Y-41452381D01*
X9880952Y-41500000D01*
X9833333Y-41547619D01*
X9785714Y-41642857D01*
X9738095Y-41833333D01*
X9738095Y-42071429D01*
X9785714Y-42261905D01*
X9833333Y-42357143D01*
X9880952Y-42404762D01*
X9976190Y-42452381D01*
X10071429Y-42452381D01*
X10166667Y-42404762D01*
X10214286Y-42357143D01*
X10261905Y-42261905D01*
X10309524Y-42071429D01*
X10309524Y-41833333D01*
X10261905Y-41642857D01*
X10214286Y-41547619D01*
X10166667Y-41500000D01*
X10071429Y-41452381D01*
X18652381Y-86457143D02*
X18176190Y-86123809D01*
X18652381Y-85885714D02*
X17652381Y-85885714D01*
X17652381Y-86266667D01*
X17700000Y-86361905D01*
X17747619Y-86409524D01*
X17842857Y-86457143D01*
X17985714Y-86457143D01*
X18080952Y-86409524D01*
X18128571Y-86361905D01*
X18176190Y-86266667D01*
X18176190Y-85885714D01*
X18652381Y-87409524D02*
X18652381Y-86838095D01*
X18652381Y-87123809D02*
X17652381Y-87123809D01*
X17795238Y-87028571D01*
X17890476Y-86933333D01*
X17938095Y-86838095D01*
X18652381Y-88361905D02*
X18652381Y-87790476D01*
X18652381Y-88076190D02*
X17652381Y-88076190D01*
X17795238Y-87980952D01*
X17890476Y-87885714D01*
X17938095Y-87790476D01*
X16852381Y-86457143D02*
X16376190Y-86123809D01*
X16852381Y-85885714D02*
X15852381Y-85885714D01*
X15852381Y-86266667D01*
X15900000Y-86361905D01*
X15947619Y-86409524D01*
X16042857Y-86457143D01*
X16185714Y-86457143D01*
X16280952Y-86409524D01*
X16328571Y-86361905D01*
X16376190Y-86266667D01*
X16376190Y-85885714D01*
X16852381Y-87409524D02*
X16852381Y-86838095D01*
X16852381Y-87123809D02*
X15852381Y-87123809D01*
X15995238Y-87028571D01*
X16090476Y-86933333D01*
X16138095Y-86838095D01*
X15947619Y-87790476D02*
X15900000Y-87838095D01*
X15852381Y-87933333D01*
X15852381Y-88171429D01*
X15900000Y-88266667D01*
X15947619Y-88314286D01*
X16042857Y-88361905D01*
X16138095Y-88361905D01*
X16280952Y-88314286D01*
X16852381Y-87742857D01*
X16852381Y-88361905D01*
X22252381Y-86457143D02*
X21776190Y-86123809D01*
X22252381Y-85885714D02*
X21252381Y-85885714D01*
X21252381Y-86266667D01*
X21300000Y-86361905D01*
X21347619Y-86409524D01*
X21442857Y-86457143D01*
X21585714Y-86457143D01*
X21680952Y-86409524D01*
X21728571Y-86361905D01*
X21776190Y-86266667D01*
X21776190Y-85885714D01*
X22252381Y-87409524D02*
X22252381Y-86838095D01*
X22252381Y-87123809D02*
X21252381Y-87123809D01*
X21395238Y-87028571D01*
X21490476Y-86933333D01*
X21538095Y-86838095D01*
X21252381Y-87742857D02*
X21252381Y-88361905D01*
X21633333Y-88028571D01*
X21633333Y-88171429D01*
X21680952Y-88266667D01*
X21728571Y-88314286D01*
X21823810Y-88361905D01*
X22061905Y-88361905D01*
X22157143Y-88314286D01*
X22204762Y-88266667D01*
X22252381Y-88171429D01*
X22252381Y-87885714D01*
X22204762Y-87790476D01*
X22157143Y-87742857D01*
X23952381Y-86457143D02*
X23476190Y-86123809D01*
X23952381Y-85885714D02*
X22952381Y-85885714D01*
X22952381Y-86266667D01*
X23000000Y-86361905D01*
X23047619Y-86409524D01*
X23142857Y-86457143D01*
X23285714Y-86457143D01*
X23380952Y-86409524D01*
X23428571Y-86361905D01*
X23476190Y-86266667D01*
X23476190Y-85885714D01*
X23952381Y-87409524D02*
X23952381Y-86838095D01*
X23952381Y-87123809D02*
X22952381Y-87123809D01*
X23095238Y-87028571D01*
X23190476Y-86933333D01*
X23238095Y-86838095D01*
X23285714Y-88266667D02*
X23952381Y-88266667D01*
X22904762Y-88028571D02*
X23619048Y-87790476D01*
X23619048Y-88409524D01*
X24052381Y-104157143D02*
X23576190Y-103823809D01*
X24052381Y-103585714D02*
X23052381Y-103585714D01*
X23052381Y-103966667D01*
X23100000Y-104061905D01*
X23147619Y-104109524D01*
X23242857Y-104157143D01*
X23385714Y-104157143D01*
X23480952Y-104109524D01*
X23528571Y-104061905D01*
X23576190Y-103966667D01*
X23576190Y-103585714D01*
X24052381Y-105109524D02*
X24052381Y-104538095D01*
X24052381Y-104823809D02*
X23052381Y-104823809D01*
X23195238Y-104728571D01*
X23290476Y-104633333D01*
X23338095Y-104538095D01*
X23052381Y-106014286D02*
X23052381Y-105538095D01*
X23528571Y-105490476D01*
X23480952Y-105538095D01*
X23433333Y-105633333D01*
X23433333Y-105871429D01*
X23480952Y-105966667D01*
X23528571Y-106014286D01*
X23623810Y-106061905D01*
X23861905Y-106061905D01*
X23957143Y-106014286D01*
X24004762Y-105966667D01*
X24052381Y-105871429D01*
X24052381Y-105633333D01*
X24004762Y-105538095D01*
X23957143Y-105490476D01*
X22352381Y-104157143D02*
X21876190Y-103823809D01*
X22352381Y-103585714D02*
X21352381Y-103585714D01*
X21352381Y-103966667D01*
X21400000Y-104061905D01*
X21447619Y-104109524D01*
X21542857Y-104157143D01*
X21685714Y-104157143D01*
X21780952Y-104109524D01*
X21828571Y-104061905D01*
X21876190Y-103966667D01*
X21876190Y-103585714D01*
X22352381Y-105109524D02*
X22352381Y-104538095D01*
X22352381Y-104823809D02*
X21352381Y-104823809D01*
X21495238Y-104728571D01*
X21590476Y-104633333D01*
X21638095Y-104538095D01*
X21352381Y-105966667D02*
X21352381Y-105776190D01*
X21400000Y-105680952D01*
X21447619Y-105633333D01*
X21590476Y-105538095D01*
X21780952Y-105490476D01*
X22161905Y-105490476D01*
X22257143Y-105538095D01*
X22304762Y-105585714D01*
X22352381Y-105680952D01*
X22352381Y-105871429D01*
X22304762Y-105966667D01*
X22257143Y-106014286D01*
X22161905Y-106061905D01*
X21923810Y-106061905D01*
X21828571Y-106014286D01*
X21780952Y-105966667D01*
X21733333Y-105871429D01*
X21733333Y-105680952D01*
X21780952Y-105585714D01*
X21828571Y-105538095D01*
X21923810Y-105490476D01*
X16852381Y-104157143D02*
X16376190Y-103823809D01*
X16852381Y-103585714D02*
X15852381Y-103585714D01*
X15852381Y-103966667D01*
X15900000Y-104061905D01*
X15947619Y-104109524D01*
X16042857Y-104157143D01*
X16185714Y-104157143D01*
X16280952Y-104109524D01*
X16328571Y-104061905D01*
X16376190Y-103966667D01*
X16376190Y-103585714D01*
X16852381Y-105109524D02*
X16852381Y-104538095D01*
X16852381Y-104823809D02*
X15852381Y-104823809D01*
X15995238Y-104728571D01*
X16090476Y-104633333D01*
X16138095Y-104538095D01*
X15852381Y-105442857D02*
X15852381Y-106109524D01*
X16852381Y-105680952D01*
X18652381Y-104157143D02*
X18176190Y-103823809D01*
X18652381Y-103585714D02*
X17652381Y-103585714D01*
X17652381Y-103966667D01*
X17700000Y-104061905D01*
X17747619Y-104109524D01*
X17842857Y-104157143D01*
X17985714Y-104157143D01*
X18080952Y-104109524D01*
X18128571Y-104061905D01*
X18176190Y-103966667D01*
X18176190Y-103585714D01*
X18652381Y-105109524D02*
X18652381Y-104538095D01*
X18652381Y-104823809D02*
X17652381Y-104823809D01*
X17795238Y-104728571D01*
X17890476Y-104633333D01*
X17938095Y-104538095D01*
X18080952Y-105680952D02*
X18033333Y-105585714D01*
X17985714Y-105538095D01*
X17890476Y-105490476D01*
X17842857Y-105490476D01*
X17747619Y-105538095D01*
X17700000Y-105585714D01*
X17652381Y-105680952D01*
X17652381Y-105871429D01*
X17700000Y-105966667D01*
X17747619Y-106014286D01*
X17842857Y-106061905D01*
X17890476Y-106061905D01*
X17985714Y-106014286D01*
X18033333Y-105966667D01*
X18080952Y-105871429D01*
X18080952Y-105680952D01*
X18128571Y-105585714D01*
X18176190Y-105538095D01*
X18271429Y-105490476D01*
X18461905Y-105490476D01*
X18557143Y-105538095D01*
X18604762Y-105585714D01*
X18652381Y-105680952D01*
X18652381Y-105871429D01*
X18604762Y-105966667D01*
X18557143Y-106014286D01*
X18461905Y-106061905D01*
X18271429Y-106061905D01*
X18176190Y-106014286D01*
X18128571Y-105966667D01*
X18080952Y-105871429D01*
X13252381Y-86457143D02*
X12776190Y-86123809D01*
X13252381Y-85885714D02*
X12252381Y-85885714D01*
X12252381Y-86266667D01*
X12300000Y-86361905D01*
X12347619Y-86409524D01*
X12442857Y-86457143D01*
X12585714Y-86457143D01*
X12680952Y-86409524D01*
X12728571Y-86361905D01*
X12776190Y-86266667D01*
X12776190Y-85885714D01*
X13252381Y-87409524D02*
X13252381Y-86838095D01*
X13252381Y-87123809D02*
X12252381Y-87123809D01*
X12395238Y-87028571D01*
X12490476Y-86933333D01*
X12538095Y-86838095D01*
X13252381Y-87885714D02*
X13252381Y-88076190D01*
X13204762Y-88171429D01*
X13157143Y-88219048D01*
X13014286Y-88314286D01*
X12823810Y-88361905D01*
X12442857Y-88361905D01*
X12347619Y-88314286D01*
X12300000Y-88266667D01*
X12252381Y-88171429D01*
X12252381Y-87980952D01*
X12300000Y-87885714D01*
X12347619Y-87838095D01*
X12442857Y-87790476D01*
X12680952Y-87790476D01*
X12776190Y-87838095D01*
X12823810Y-87885714D01*
X12871429Y-87980952D01*
X12871429Y-88171429D01*
X12823810Y-88266667D01*
X12776190Y-88314286D01*
X12680952Y-88361905D01*
X27652381Y-86457143D02*
X27176190Y-86123809D01*
X27652381Y-85885714D02*
X26652381Y-85885714D01*
X26652381Y-86266667D01*
X26700000Y-86361905D01*
X26747619Y-86409524D01*
X26842857Y-86457143D01*
X26985714Y-86457143D01*
X27080952Y-86409524D01*
X27128571Y-86361905D01*
X27176190Y-86266667D01*
X27176190Y-85885714D01*
X26747619Y-86838095D02*
X26700000Y-86885714D01*
X26652381Y-86980952D01*
X26652381Y-87219048D01*
X26700000Y-87314286D01*
X26747619Y-87361905D01*
X26842857Y-87409524D01*
X26938095Y-87409524D01*
X27080952Y-87361905D01*
X27652381Y-86790476D01*
X27652381Y-87409524D01*
X26652381Y-88028571D02*
X26652381Y-88123810D01*
X26700000Y-88219048D01*
X26747619Y-88266667D01*
X26842857Y-88314286D01*
X27033333Y-88361905D01*
X27271429Y-88361905D01*
X27461905Y-88314286D01*
X27557143Y-88266667D01*
X27604762Y-88219048D01*
X27652381Y-88123810D01*
X27652381Y-88028571D01*
X27604762Y-87933333D01*
X27557143Y-87885714D01*
X27461905Y-87838095D01*
X27271429Y-87790476D01*
X27033333Y-87790476D01*
X26842857Y-87838095D01*
X26747619Y-87885714D01*
X26700000Y-87933333D01*
X26652381Y-88028571D01*
X27752381Y-104157143D02*
X27276190Y-103823809D01*
X27752381Y-103585714D02*
X26752381Y-103585714D01*
X26752381Y-103966667D01*
X26800000Y-104061905D01*
X26847619Y-104109524D01*
X26942857Y-104157143D01*
X27085714Y-104157143D01*
X27180952Y-104109524D01*
X27228571Y-104061905D01*
X27276190Y-103966667D01*
X27276190Y-103585714D01*
X26847619Y-104538095D02*
X26800000Y-104585714D01*
X26752381Y-104680952D01*
X26752381Y-104919048D01*
X26800000Y-105014286D01*
X26847619Y-105061905D01*
X26942857Y-105109524D01*
X27038095Y-105109524D01*
X27180952Y-105061905D01*
X27752381Y-104490476D01*
X27752381Y-105109524D01*
X27752381Y-106061905D02*
X27752381Y-105490476D01*
X27752381Y-105776190D02*
X26752381Y-105776190D01*
X26895238Y-105680952D01*
X26990476Y-105585714D01*
X27038095Y-105490476D01*
X13252381Y-104157143D02*
X12776190Y-103823809D01*
X13252381Y-103585714D02*
X12252381Y-103585714D01*
X12252381Y-103966667D01*
X12300000Y-104061905D01*
X12347619Y-104109524D01*
X12442857Y-104157143D01*
X12585714Y-104157143D01*
X12680952Y-104109524D01*
X12728571Y-104061905D01*
X12776190Y-103966667D01*
X12776190Y-103585714D01*
X12347619Y-104538095D02*
X12300000Y-104585714D01*
X12252381Y-104680952D01*
X12252381Y-104919048D01*
X12300000Y-105014286D01*
X12347619Y-105061905D01*
X12442857Y-105109524D01*
X12538095Y-105109524D01*
X12680952Y-105061905D01*
X13252381Y-104490476D01*
X13252381Y-105109524D01*
X12347619Y-105490476D02*
X12300000Y-105538095D01*
X12252381Y-105633333D01*
X12252381Y-105871429D01*
X12300000Y-105966667D01*
X12347619Y-106014286D01*
X12442857Y-106061905D01*
X12538095Y-106061905D01*
X12680952Y-106014286D01*
X13252381Y-105442857D01*
X13252381Y-106061905D01*
X2542857Y-83252381D02*
X2876191Y-82776190D01*
X3114286Y-83252381D02*
X3114286Y-82252381D01*
X2733333Y-82252381D01*
X2638095Y-82300000D01*
X2590476Y-82347619D01*
X2542857Y-82442857D01*
X2542857Y-82585714D01*
X2590476Y-82680952D01*
X2638095Y-82728571D01*
X2733333Y-82776190D01*
X3114286Y-82776190D01*
X2161905Y-82347619D02*
X2114286Y-82300000D01*
X2019048Y-82252381D01*
X1780952Y-82252381D01*
X1685714Y-82300000D01*
X1638095Y-82347619D01*
X1590476Y-82442857D01*
X1590476Y-82538095D01*
X1638095Y-82680952D01*
X2209524Y-83252381D01*
X1590476Y-83252381D01*
X1257143Y-82252381D02*
X638095Y-82252381D01*
X971429Y-82633333D01*
X828571Y-82633333D01*
X733333Y-82680952D01*
X685714Y-82728571D01*
X638095Y-82823810D01*
X638095Y-83061905D01*
X685714Y-83157143D01*
X733333Y-83204762D01*
X828571Y-83252381D01*
X1114286Y-83252381D01*
X1209524Y-83204762D01*
X1257143Y-83157143D01*
X12642857Y-83252381D02*
X12976191Y-82776190D01*
X13214286Y-83252381D02*
X13214286Y-82252381D01*
X12833333Y-82252381D01*
X12738095Y-82300000D01*
X12690476Y-82347619D01*
X12642857Y-82442857D01*
X12642857Y-82585714D01*
X12690476Y-82680952D01*
X12738095Y-82728571D01*
X12833333Y-82776190D01*
X13214286Y-82776190D01*
X12261905Y-82347619D02*
X12214286Y-82300000D01*
X12119048Y-82252381D01*
X11880952Y-82252381D01*
X11785714Y-82300000D01*
X11738095Y-82347619D01*
X11690476Y-82442857D01*
X11690476Y-82538095D01*
X11738095Y-82680952D01*
X12309524Y-83252381D01*
X11690476Y-83252381D01*
X10833333Y-82585714D02*
X10833333Y-83252381D01*
X11071429Y-82204762D02*
X11309524Y-82919048D01*
X10690476Y-82919048D01*
X11452381Y-86457143D02*
X10976190Y-86123809D01*
X11452381Y-85885714D02*
X10452381Y-85885714D01*
X10452381Y-86266667D01*
X10500000Y-86361905D01*
X10547619Y-86409524D01*
X10642857Y-86457143D01*
X10785714Y-86457143D01*
X10880952Y-86409524D01*
X10928571Y-86361905D01*
X10976190Y-86266667D01*
X10976190Y-85885714D01*
X10547619Y-86838095D02*
X10500000Y-86885714D01*
X10452381Y-86980952D01*
X10452381Y-87219048D01*
X10500000Y-87314286D01*
X10547619Y-87361905D01*
X10642857Y-87409524D01*
X10738095Y-87409524D01*
X10880952Y-87361905D01*
X11452381Y-86790476D01*
X11452381Y-87409524D01*
X10452381Y-88314286D02*
X10452381Y-87838095D01*
X10928571Y-87790476D01*
X10880952Y-87838095D01*
X10833333Y-87933333D01*
X10833333Y-88171429D01*
X10880952Y-88266667D01*
X10928571Y-88314286D01*
X11023810Y-88361905D01*
X11261905Y-88361905D01*
X11357143Y-88314286D01*
X11404762Y-88266667D01*
X11452381Y-88171429D01*
X11452381Y-87933333D01*
X11404762Y-87838095D01*
X11357143Y-87790476D01*
X29452381Y-86457143D02*
X28976190Y-86123809D01*
X29452381Y-85885714D02*
X28452381Y-85885714D01*
X28452381Y-86266667D01*
X28500000Y-86361905D01*
X28547619Y-86409524D01*
X28642857Y-86457143D01*
X28785714Y-86457143D01*
X28880952Y-86409524D01*
X28928571Y-86361905D01*
X28976190Y-86266667D01*
X28976190Y-85885714D01*
X28547619Y-86838095D02*
X28500000Y-86885714D01*
X28452381Y-86980952D01*
X28452381Y-87219048D01*
X28500000Y-87314286D01*
X28547619Y-87361905D01*
X28642857Y-87409524D01*
X28738095Y-87409524D01*
X28880952Y-87361905D01*
X29452381Y-86790476D01*
X29452381Y-87409524D01*
X28452381Y-88266667D02*
X28452381Y-88076190D01*
X28500000Y-87980952D01*
X28547619Y-87933333D01*
X28690476Y-87838095D01*
X28880952Y-87790476D01*
X29261905Y-87790476D01*
X29357143Y-87838095D01*
X29404762Y-87885714D01*
X29452381Y-87980952D01*
X29452381Y-88171429D01*
X29404762Y-88266667D01*
X29357143Y-88314286D01*
X29261905Y-88361905D01*
X29023810Y-88361905D01*
X28928571Y-88314286D01*
X28880952Y-88266667D01*
X28833333Y-88171429D01*
X28833333Y-87980952D01*
X28880952Y-87885714D01*
X28928571Y-87838095D01*
X29023810Y-87790476D01*
X29452381Y-104157143D02*
X28976190Y-103823809D01*
X29452381Y-103585714D02*
X28452381Y-103585714D01*
X28452381Y-103966667D01*
X28500000Y-104061905D01*
X28547619Y-104109524D01*
X28642857Y-104157143D01*
X28785714Y-104157143D01*
X28880952Y-104109524D01*
X28928571Y-104061905D01*
X28976190Y-103966667D01*
X28976190Y-103585714D01*
X28547619Y-104538095D02*
X28500000Y-104585714D01*
X28452381Y-104680952D01*
X28452381Y-104919048D01*
X28500000Y-105014286D01*
X28547619Y-105061905D01*
X28642857Y-105109524D01*
X28738095Y-105109524D01*
X28880952Y-105061905D01*
X29452381Y-104490476D01*
X29452381Y-105109524D01*
X28452381Y-105442857D02*
X28452381Y-106109524D01*
X29452381Y-105680952D01*
X11452381Y-104157143D02*
X10976190Y-103823809D01*
X11452381Y-103585714D02*
X10452381Y-103585714D01*
X10452381Y-103966667D01*
X10500000Y-104061905D01*
X10547619Y-104109524D01*
X10642857Y-104157143D01*
X10785714Y-104157143D01*
X10880952Y-104109524D01*
X10928571Y-104061905D01*
X10976190Y-103966667D01*
X10976190Y-103585714D01*
X10547619Y-104538095D02*
X10500000Y-104585714D01*
X10452381Y-104680952D01*
X10452381Y-104919048D01*
X10500000Y-105014286D01*
X10547619Y-105061905D01*
X10642857Y-105109524D01*
X10738095Y-105109524D01*
X10880952Y-105061905D01*
X11452381Y-104490476D01*
X11452381Y-105109524D01*
X10880952Y-105680952D02*
X10833333Y-105585714D01*
X10785714Y-105538095D01*
X10690476Y-105490476D01*
X10642857Y-105490476D01*
X10547619Y-105538095D01*
X10500000Y-105585714D01*
X10452381Y-105680952D01*
X10452381Y-105871429D01*
X10500000Y-105966667D01*
X10547619Y-106014286D01*
X10642857Y-106061905D01*
X10690476Y-106061905D01*
X10785714Y-106014286D01*
X10833333Y-105966667D01*
X10880952Y-105871429D01*
X10880952Y-105680952D01*
X10928571Y-105585714D01*
X10976190Y-105538095D01*
X11071429Y-105490476D01*
X11261905Y-105490476D01*
X11357143Y-105538095D01*
X11404762Y-105585714D01*
X11452381Y-105680952D01*
X11452381Y-105871429D01*
X11404762Y-105966667D01*
X11357143Y-106014286D01*
X11261905Y-106061905D01*
X11071429Y-106061905D01*
X10976190Y-106014286D01*
X10928571Y-105966667D01*
X10880952Y-105871429D01*
X1552381Y-74657143D02*
X1076190Y-74323809D01*
X1552381Y-74085714D02*
X552381Y-74085714D01*
X552381Y-74466667D01*
X600000Y-74561905D01*
X647619Y-74609524D01*
X742857Y-74657143D01*
X885714Y-74657143D01*
X980952Y-74609524D01*
X1028571Y-74561905D01*
X1076190Y-74466667D01*
X1076190Y-74085714D01*
X647619Y-75038095D02*
X600000Y-75085714D01*
X552381Y-75180952D01*
X552381Y-75419048D01*
X600000Y-75514286D01*
X647619Y-75561905D01*
X742857Y-75609524D01*
X838095Y-75609524D01*
X980952Y-75561905D01*
X1552381Y-74990476D01*
X1552381Y-75609524D01*
X1552381Y-76085714D02*
X1552381Y-76276190D01*
X1504762Y-76371429D01*
X1457143Y-76419048D01*
X1314286Y-76514286D01*
X1123810Y-76561905D01*
X742857Y-76561905D01*
X647619Y-76514286D01*
X600000Y-76466667D01*
X552381Y-76371429D01*
X552381Y-76180952D01*
X600000Y-76085714D01*
X647619Y-76038095D01*
X742857Y-75990476D01*
X980952Y-75990476D01*
X1076190Y-76038095D01*
X1123810Y-76085714D01*
X1171429Y-76180952D01*
X1171429Y-76371429D01*
X1123810Y-76466667D01*
X1076190Y-76514286D01*
X980952Y-76561905D01*
X9652381Y-77457143D02*
X9176190Y-77123809D01*
X9652381Y-76885714D02*
X8652381Y-76885714D01*
X8652381Y-77266667D01*
X8700000Y-77361905D01*
X8747619Y-77409524D01*
X8842857Y-77457143D01*
X8985714Y-77457143D01*
X9080952Y-77409524D01*
X9128571Y-77361905D01*
X9176190Y-77266667D01*
X9176190Y-76885714D01*
X8652381Y-77790476D02*
X8652381Y-78409524D01*
X9033333Y-78076190D01*
X9033333Y-78219048D01*
X9080952Y-78314286D01*
X9128571Y-78361905D01*
X9223810Y-78409524D01*
X9461905Y-78409524D01*
X9557143Y-78361905D01*
X9604762Y-78314286D01*
X9652381Y-78219048D01*
X9652381Y-77933333D01*
X9604762Y-77838095D01*
X9557143Y-77790476D01*
X8652381Y-79028571D02*
X8652381Y-79123810D01*
X8700000Y-79219048D01*
X8747619Y-79266667D01*
X8842857Y-79314286D01*
X9033333Y-79361905D01*
X9271429Y-79361905D01*
X9461905Y-79314286D01*
X9557143Y-79266667D01*
X9604762Y-79219048D01*
X9652381Y-79123810D01*
X9652381Y-79028571D01*
X9604762Y-78933333D01*
X9557143Y-78885714D01*
X9461905Y-78838095D01*
X9271429Y-78790476D01*
X9033333Y-78790476D01*
X8842857Y-78838095D01*
X8747619Y-78885714D01*
X8700000Y-78933333D01*
X8652381Y-79028571D01*
X22352381Y-43157143D02*
X21876190Y-42823809D01*
X22352381Y-42585714D02*
X21352381Y-42585714D01*
X21352381Y-42966667D01*
X21400000Y-43061905D01*
X21447619Y-43109524D01*
X21542857Y-43157143D01*
X21685714Y-43157143D01*
X21780952Y-43109524D01*
X21828571Y-43061905D01*
X21876190Y-42966667D01*
X21876190Y-42585714D01*
X21352381Y-43490476D02*
X21352381Y-44109524D01*
X21733333Y-43776190D01*
X21733333Y-43919048D01*
X21780952Y-44014286D01*
X21828571Y-44061905D01*
X21923810Y-44109524D01*
X22161905Y-44109524D01*
X22257143Y-44061905D01*
X22304762Y-44014286D01*
X22352381Y-43919048D01*
X22352381Y-43633333D01*
X22304762Y-43538095D01*
X22257143Y-43490476D01*
X22352381Y-45061905D02*
X22352381Y-44490476D01*
X22352381Y-44776190D02*
X21352381Y-44776190D01*
X21495238Y-44680952D01*
X21590476Y-44585714D01*
X21638095Y-44490476D01*
X18652381Y-43257143D02*
X18176190Y-42923809D01*
X18652381Y-42685714D02*
X17652381Y-42685714D01*
X17652381Y-43066667D01*
X17700000Y-43161905D01*
X17747619Y-43209524D01*
X17842857Y-43257143D01*
X17985714Y-43257143D01*
X18080952Y-43209524D01*
X18128571Y-43161905D01*
X18176190Y-43066667D01*
X18176190Y-42685714D01*
X17652381Y-43590476D02*
X17652381Y-44209524D01*
X18033333Y-43876190D01*
X18033333Y-44019048D01*
X18080952Y-44114286D01*
X18128571Y-44161905D01*
X18223810Y-44209524D01*
X18461905Y-44209524D01*
X18557143Y-44161905D01*
X18604762Y-44114286D01*
X18652381Y-44019048D01*
X18652381Y-43733333D01*
X18604762Y-43638095D01*
X18557143Y-43590476D01*
X17747619Y-44590476D02*
X17700000Y-44638095D01*
X17652381Y-44733333D01*
X17652381Y-44971429D01*
X17700000Y-45066667D01*
X17747619Y-45114286D01*
X17842857Y-45161905D01*
X17938095Y-45161905D01*
X18080952Y-45114286D01*
X18652381Y-44542857D01*
X18652381Y-45161905D01*
X18752381Y-24157143D02*
X18276190Y-23823809D01*
X18752381Y-23585714D02*
X17752381Y-23585714D01*
X17752381Y-23966667D01*
X17800000Y-24061905D01*
X17847619Y-24109524D01*
X17942857Y-24157143D01*
X18085714Y-24157143D01*
X18180952Y-24109524D01*
X18228571Y-24061905D01*
X18276190Y-23966667D01*
X18276190Y-23585714D01*
X17752381Y-24490476D02*
X17752381Y-25109524D01*
X18133333Y-24776190D01*
X18133333Y-24919048D01*
X18180952Y-25014286D01*
X18228571Y-25061905D01*
X18323810Y-25109524D01*
X18561905Y-25109524D01*
X18657143Y-25061905D01*
X18704762Y-25014286D01*
X18752381Y-24919048D01*
X18752381Y-24633333D01*
X18704762Y-24538095D01*
X18657143Y-24490476D01*
X17752381Y-25442857D02*
X17752381Y-26061905D01*
X18133333Y-25728571D01*
X18133333Y-25871429D01*
X18180952Y-25966667D01*
X18228571Y-26014286D01*
X18323810Y-26061905D01*
X18561905Y-26061905D01*
X18657143Y-26014286D01*
X18704762Y-25966667D01*
X18752381Y-25871429D01*
X18752381Y-25585714D01*
X18704762Y-25490476D01*
X18657143Y-25442857D01*
X22252381Y-24157143D02*
X21776190Y-23823809D01*
X22252381Y-23585714D02*
X21252381Y-23585714D01*
X21252381Y-23966667D01*
X21300000Y-24061905D01*
X21347619Y-24109524D01*
X21442857Y-24157143D01*
X21585714Y-24157143D01*
X21680952Y-24109524D01*
X21728571Y-24061905D01*
X21776190Y-23966667D01*
X21776190Y-23585714D01*
X21252381Y-24490476D02*
X21252381Y-25109524D01*
X21633333Y-24776190D01*
X21633333Y-24919048D01*
X21680952Y-25014286D01*
X21728571Y-25061905D01*
X21823810Y-25109524D01*
X22061905Y-25109524D01*
X22157143Y-25061905D01*
X22204762Y-25014286D01*
X22252381Y-24919048D01*
X22252381Y-24633333D01*
X22204762Y-24538095D01*
X22157143Y-24490476D01*
X21585714Y-25966667D02*
X22252381Y-25966667D01*
X21204762Y-25728571D02*
X21919048Y-25490476D01*
X21919048Y-26109524D01*
X22642857Y-83252381D02*
X22976191Y-82776190D01*
X23214286Y-83252381D02*
X23214286Y-82252381D01*
X22833333Y-82252381D01*
X22738095Y-82300000D01*
X22690476Y-82347619D01*
X22642857Y-82442857D01*
X22642857Y-82585714D01*
X22690476Y-82680952D01*
X22738095Y-82728571D01*
X22833333Y-82776190D01*
X23214286Y-82776190D01*
X22309524Y-82252381D02*
X21690476Y-82252381D01*
X22023810Y-82633333D01*
X21880952Y-82633333D01*
X21785714Y-82680952D01*
X21738095Y-82728571D01*
X21690476Y-82823810D01*
X21690476Y-83061905D01*
X21738095Y-83157143D01*
X21785714Y-83204762D01*
X21880952Y-83252381D01*
X22166667Y-83252381D01*
X22261905Y-83204762D01*
X22309524Y-83157143D01*
X20785714Y-82252381D02*
X21261905Y-82252381D01*
X21309524Y-82728571D01*
X21261905Y-82680952D01*
X21166667Y-82633333D01*
X20928571Y-82633333D01*
X20833333Y-82680952D01*
X20785714Y-82728571D01*
X20738095Y-82823810D01*
X20738095Y-83061905D01*
X20785714Y-83157143D01*
X20833333Y-83204762D01*
X20928571Y-83252381D01*
X21166667Y-83252381D01*
X21261905Y-83204762D01*
X21309524Y-83157143D01*
X32642857Y-83252381D02*
X32976191Y-82776190D01*
X33214286Y-83252381D02*
X33214286Y-82252381D01*
X32833333Y-82252381D01*
X32738095Y-82300000D01*
X32690476Y-82347619D01*
X32642857Y-82442857D01*
X32642857Y-82585714D01*
X32690476Y-82680952D01*
X32738095Y-82728571D01*
X32833333Y-82776190D01*
X33214286Y-82776190D01*
X32309524Y-82252381D02*
X31690476Y-82252381D01*
X32023810Y-82633333D01*
X31880952Y-82633333D01*
X31785714Y-82680952D01*
X31738095Y-82728571D01*
X31690476Y-82823810D01*
X31690476Y-83061905D01*
X31738095Y-83157143D01*
X31785714Y-83204762D01*
X31880952Y-83252381D01*
X32166667Y-83252381D01*
X32261905Y-83204762D01*
X32309524Y-83157143D01*
X30833333Y-82252381D02*
X31023810Y-82252381D01*
X31119048Y-82300000D01*
X31166667Y-82347619D01*
X31261905Y-82490476D01*
X31309524Y-82680952D01*
X31309524Y-83061905D01*
X31261905Y-83157143D01*
X31214286Y-83204762D01*
X31119048Y-83252381D01*
X30928571Y-83252381D01*
X30833333Y-83204762D01*
X30785714Y-83157143D01*
X30738095Y-83061905D01*
X30738095Y-82823810D01*
X30785714Y-82728571D01*
X30833333Y-82680952D01*
X30928571Y-82633333D01*
X31119048Y-82633333D01*
X31214286Y-82680952D01*
X31261905Y-82728571D01*
X31309524Y-82823810D01*
X26342857Y-44752381D02*
X26676191Y-44276190D01*
X26914286Y-44752381D02*
X26914286Y-43752381D01*
X26533333Y-43752381D01*
X26438095Y-43800000D01*
X26390476Y-43847619D01*
X26342857Y-43942857D01*
X26342857Y-44085714D01*
X26390476Y-44180952D01*
X26438095Y-44228571D01*
X26533333Y-44276190D01*
X26914286Y-44276190D01*
X26009524Y-43752381D02*
X25390476Y-43752381D01*
X25723810Y-44133333D01*
X25580952Y-44133333D01*
X25485714Y-44180952D01*
X25438095Y-44228571D01*
X25390476Y-44323810D01*
X25390476Y-44561905D01*
X25438095Y-44657143D01*
X25485714Y-44704762D01*
X25580952Y-44752381D01*
X25866667Y-44752381D01*
X25961905Y-44704762D01*
X26009524Y-44657143D01*
X25057143Y-43752381D02*
X24390476Y-43752381D01*
X24819048Y-44752381D01*
X15342857Y-44752381D02*
X15676191Y-44276190D01*
X15914286Y-44752381D02*
X15914286Y-43752381D01*
X15533333Y-43752381D01*
X15438095Y-43800000D01*
X15390476Y-43847619D01*
X15342857Y-43942857D01*
X15342857Y-44085714D01*
X15390476Y-44180952D01*
X15438095Y-44228571D01*
X15533333Y-44276190D01*
X15914286Y-44276190D01*
X15009524Y-43752381D02*
X14390476Y-43752381D01*
X14723810Y-44133333D01*
X14580952Y-44133333D01*
X14485714Y-44180952D01*
X14438095Y-44228571D01*
X14390476Y-44323810D01*
X14390476Y-44561905D01*
X14438095Y-44657143D01*
X14485714Y-44704762D01*
X14580952Y-44752381D01*
X14866667Y-44752381D01*
X14961905Y-44704762D01*
X15009524Y-44657143D01*
X13819048Y-44180952D02*
X13914286Y-44133333D01*
X13961905Y-44085714D01*
X14009524Y-43990476D01*
X14009524Y-43942857D01*
X13961905Y-43847619D01*
X13914286Y-43800000D01*
X13819048Y-43752381D01*
X13628571Y-43752381D01*
X13533333Y-43800000D01*
X13485714Y-43847619D01*
X13438095Y-43942857D01*
X13438095Y-43990476D01*
X13485714Y-44085714D01*
X13533333Y-44133333D01*
X13628571Y-44180952D01*
X13819048Y-44180952D01*
X13914286Y-44228571D01*
X13961905Y-44276190D01*
X14009524Y-44371429D01*
X14009524Y-44561905D01*
X13961905Y-44657143D01*
X13914286Y-44704762D01*
X13819048Y-44752381D01*
X13628571Y-44752381D01*
X13533333Y-44704762D01*
X13485714Y-44657143D01*
X13438095Y-44561905D01*
X13438095Y-44371429D01*
X13485714Y-44276190D01*
X13533333Y-44228571D01*
X13628571Y-44180952D01*
X16442857Y-24652381D02*
X16776191Y-24176190D01*
X17014286Y-24652381D02*
X17014286Y-23652381D01*
X16633333Y-23652381D01*
X16538095Y-23700000D01*
X16490476Y-23747619D01*
X16442857Y-23842857D01*
X16442857Y-23985714D01*
X16490476Y-24080952D01*
X16538095Y-24128571D01*
X16633333Y-24176190D01*
X17014286Y-24176190D01*
X16109524Y-23652381D02*
X15490476Y-23652381D01*
X15823810Y-24033333D01*
X15680952Y-24033333D01*
X15585714Y-24080952D01*
X15538095Y-24128571D01*
X15490476Y-24223810D01*
X15490476Y-24461905D01*
X15538095Y-24557143D01*
X15585714Y-24604762D01*
X15680952Y-24652381D01*
X15966667Y-24652381D01*
X16061905Y-24604762D01*
X16109524Y-24557143D01*
X15014286Y-24652381D02*
X14823810Y-24652381D01*
X14728571Y-24604762D01*
X14680952Y-24557143D01*
X14585714Y-24414286D01*
X14538095Y-24223810D01*
X14538095Y-23842857D01*
X14585714Y-23747619D01*
X14633333Y-23700000D01*
X14728571Y-23652381D01*
X14919048Y-23652381D01*
X15014286Y-23700000D01*
X15061905Y-23747619D01*
X15109524Y-23842857D01*
X15109524Y-24080952D01*
X15061905Y-24176190D01*
X15014286Y-24223810D01*
X14919048Y-24271429D01*
X14728571Y-24271429D01*
X14633333Y-24223810D01*
X14585714Y-24176190D01*
X14538095Y-24080952D01*
X24842857Y-24652381D02*
X25176191Y-24176190D01*
X25414286Y-24652381D02*
X25414286Y-23652381D01*
X25033333Y-23652381D01*
X24938095Y-23700000D01*
X24890476Y-23747619D01*
X24842857Y-23842857D01*
X24842857Y-23985714D01*
X24890476Y-24080952D01*
X24938095Y-24128571D01*
X25033333Y-24176190D01*
X25414286Y-24176190D01*
X23985714Y-23985714D02*
X23985714Y-24652381D01*
X24223810Y-23604762D02*
X24461905Y-24319048D01*
X23842857Y-24319048D01*
X23271429Y-23652381D02*
X23176190Y-23652381D01*
X23080952Y-23700000D01*
X23033333Y-23747619D01*
X22985714Y-23842857D01*
X22938095Y-24033333D01*
X22938095Y-24271429D01*
X22985714Y-24461905D01*
X23033333Y-24557143D01*
X23080952Y-24604762D01*
X23176190Y-24652381D01*
X23271429Y-24652381D01*
X23366667Y-24604762D01*
X23414286Y-24557143D01*
X23461905Y-24461905D01*
X23509524Y-24271429D01*
X23509524Y-24033333D01*
X23461905Y-23842857D01*
X23414286Y-23747619D01*
X23366667Y-23700000D01*
X23271429Y-23652381D01*
X19652381Y-77457143D02*
X19176190Y-77123809D01*
X19652381Y-76885714D02*
X18652381Y-76885714D01*
X18652381Y-77266667D01*
X18700000Y-77361905D01*
X18747619Y-77409524D01*
X18842857Y-77457143D01*
X18985714Y-77457143D01*
X19080952Y-77409524D01*
X19128571Y-77361905D01*
X19176190Y-77266667D01*
X19176190Y-76885714D01*
X18985714Y-78314286D02*
X19652381Y-78314286D01*
X18604762Y-78076190D02*
X19319048Y-77838095D01*
X19319048Y-78457143D01*
X19652381Y-79361905D02*
X19652381Y-78790476D01*
X19652381Y-79076190D02*
X18652381Y-79076190D01*
X18795238Y-78980952D01*
X18890476Y-78885714D01*
X18938095Y-78790476D01*
X29652381Y-77457143D02*
X29176190Y-77123809D01*
X29652381Y-76885714D02*
X28652381Y-76885714D01*
X28652381Y-77266667D01*
X28700000Y-77361905D01*
X28747619Y-77409524D01*
X28842857Y-77457143D01*
X28985714Y-77457143D01*
X29080952Y-77409524D01*
X29128571Y-77361905D01*
X29176190Y-77266667D01*
X29176190Y-76885714D01*
X28985714Y-78314286D02*
X29652381Y-78314286D01*
X28604762Y-78076190D02*
X29319048Y-77838095D01*
X29319048Y-78457143D01*
X28747619Y-78790476D02*
X28700000Y-78838095D01*
X28652381Y-78933333D01*
X28652381Y-79171429D01*
X28700000Y-79266667D01*
X28747619Y-79314286D01*
X28842857Y-79361905D01*
X28938095Y-79361905D01*
X29080952Y-79314286D01*
X29652381Y-78742857D01*
X29652381Y-79361905D01*
X28102381Y-36857143D02*
X27626190Y-36523809D01*
X28102381Y-36285714D02*
X27102381Y-36285714D01*
X27102381Y-36666667D01*
X27150000Y-36761905D01*
X27197619Y-36809524D01*
X27292857Y-36857143D01*
X27435714Y-36857143D01*
X27530952Y-36809524D01*
X27578571Y-36761905D01*
X27626190Y-36666667D01*
X27626190Y-36285714D01*
X27435714Y-37714286D02*
X28102381Y-37714286D01*
X27054762Y-37476190D02*
X27769048Y-37238095D01*
X27769048Y-37857143D01*
X27102381Y-38142857D02*
X27102381Y-38761905D01*
X27483333Y-38428571D01*
X27483333Y-38571429D01*
X27530952Y-38666667D01*
X27578571Y-38714286D01*
X27673810Y-38761905D01*
X27911905Y-38761905D01*
X28007143Y-38714286D01*
X28054762Y-38666667D01*
X28102381Y-38571429D01*
X28102381Y-38285714D01*
X28054762Y-38190476D01*
X28007143Y-38142857D01*
X13352381Y-41857143D02*
X12876190Y-41523809D01*
X13352381Y-41285714D02*
X12352381Y-41285714D01*
X12352381Y-41666667D01*
X12400000Y-41761905D01*
X12447619Y-41809524D01*
X12542857Y-41857143D01*
X12685714Y-41857143D01*
X12780952Y-41809524D01*
X12828571Y-41761905D01*
X12876190Y-41666667D01*
X12876190Y-41285714D01*
X12685714Y-42714286D02*
X13352381Y-42714286D01*
X12304762Y-42476190D02*
X13019048Y-42238095D01*
X13019048Y-42857143D01*
X12685714Y-43666667D02*
X13352381Y-43666667D01*
X12304762Y-43428571D02*
X13019048Y-43190476D01*
X13019048Y-43809524D01*
X13552381Y-27157143D02*
X13076190Y-26823809D01*
X13552381Y-26585714D02*
X12552381Y-26585714D01*
X12552381Y-26966667D01*
X12600000Y-27061905D01*
X12647619Y-27109524D01*
X12742857Y-27157143D01*
X12885714Y-27157143D01*
X12980952Y-27109524D01*
X13028571Y-27061905D01*
X13076190Y-26966667D01*
X13076190Y-26585714D01*
X12885714Y-28014286D02*
X13552381Y-28014286D01*
X12504762Y-27776190D02*
X13219048Y-27538095D01*
X13219048Y-28157143D01*
X12552381Y-29014286D02*
X12552381Y-28538095D01*
X13028571Y-28490476D01*
X12980952Y-28538095D01*
X12933333Y-28633333D01*
X12933333Y-28871429D01*
X12980952Y-28966667D01*
X13028571Y-29014286D01*
X13123810Y-29061905D01*
X13361905Y-29061905D01*
X13457143Y-29014286D01*
X13504762Y-28966667D01*
X13552381Y-28871429D01*
X13552381Y-28633333D01*
X13504762Y-28538095D01*
X13457143Y-28490476D01*
X27752381Y-27157143D02*
X27276190Y-26823809D01*
X27752381Y-26585714D02*
X26752381Y-26585714D01*
X26752381Y-26966667D01*
X26800000Y-27061905D01*
X26847619Y-27109524D01*
X26942857Y-27157143D01*
X27085714Y-27157143D01*
X27180952Y-27109524D01*
X27228571Y-27061905D01*
X27276190Y-26966667D01*
X27276190Y-26585714D01*
X27085714Y-28014286D02*
X27752381Y-28014286D01*
X26704762Y-27776190D02*
X27419048Y-27538095D01*
X27419048Y-28157143D01*
X26752381Y-28966667D02*
X26752381Y-28776190D01*
X26800000Y-28680952D01*
X26847619Y-28633333D01*
X26990476Y-28538095D01*
X27180952Y-28490476D01*
X27561905Y-28490476D01*
X27657143Y-28538095D01*
X27704762Y-28585714D01*
X27752381Y-28680952D01*
X27752381Y-28871429D01*
X27704762Y-28966667D01*
X27657143Y-29014286D01*
X27561905Y-29061905D01*
X27323810Y-29061905D01*
X27228571Y-29014286D01*
X27180952Y-28966667D01*
X27133333Y-28871429D01*
X27133333Y-28680952D01*
X27180952Y-28585714D01*
X27228571Y-28538095D01*
X27323810Y-28490476D01*
X17161905Y-91852381D02*
X17161905Y-92661905D01*
X17114286Y-92757143D01*
X17066667Y-92804762D01*
X16971429Y-92852381D01*
X16780952Y-92852381D01*
X16685714Y-92804762D01*
X16638095Y-92757143D01*
X16590476Y-92661905D01*
X16590476Y-91852381D01*
X15638095Y-91852381D02*
X16114286Y-91852381D01*
X16161905Y-92328571D01*
X16114286Y-92280952D01*
X16019048Y-92233333D01*
X15780952Y-92233333D01*
X15685714Y-92280952D01*
X15638095Y-92328571D01*
X15590476Y-92423810D01*
X15590476Y-92661905D01*
X15638095Y-92757143D01*
X15685714Y-92804762D01*
X15780952Y-92852381D01*
X16019048Y-92852381D01*
X16114286Y-92804762D01*
X16161905Y-92757143D01*
X20357143Y-86457143D02*
X20404762Y-86409524D01*
X20452381Y-86266667D01*
X20452381Y-86171429D01*
X20404762Y-86028571D01*
X20309524Y-85933333D01*
X20214286Y-85885714D01*
X20023810Y-85838095D01*
X19880952Y-85838095D01*
X19690476Y-85885714D01*
X19595238Y-85933333D01*
X19500000Y-86028571D01*
X19452381Y-86171429D01*
X19452381Y-86266667D01*
X19500000Y-86409524D01*
X19547619Y-86457143D01*
X19547619Y-86838095D02*
X19500000Y-86885714D01*
X19452381Y-86980952D01*
X19452381Y-87219048D01*
X19500000Y-87314286D01*
X19547619Y-87361905D01*
X19642857Y-87409524D01*
X19738095Y-87409524D01*
X19880952Y-87361905D01*
X20452381Y-86790476D01*
X20452381Y-87409524D01*
X19452381Y-88266667D02*
X19452381Y-88076190D01*
X19500000Y-87980952D01*
X19547619Y-87933333D01*
X19690476Y-87838095D01*
X19880952Y-87790476D01*
X20261905Y-87790476D01*
X20357143Y-87838095D01*
X20404762Y-87885714D01*
X20452381Y-87980952D01*
X20452381Y-88171429D01*
X20404762Y-88266667D01*
X20357143Y-88314286D01*
X20261905Y-88361905D01*
X20023810Y-88361905D01*
X19928571Y-88314286D01*
X19880952Y-88266667D01*
X19833333Y-88171429D01*
X19833333Y-87980952D01*
X19880952Y-87885714D01*
X19928571Y-87838095D01*
X20023810Y-87790476D01*
X20457143Y-43257143D02*
X20504762Y-43209524D01*
X20552381Y-43066667D01*
X20552381Y-42971429D01*
X20504762Y-42828571D01*
X20409524Y-42733333D01*
X20314286Y-42685714D01*
X20123810Y-42638095D01*
X19980952Y-42638095D01*
X19790476Y-42685714D01*
X19695238Y-42733333D01*
X19600000Y-42828571D01*
X19552381Y-42971429D01*
X19552381Y-43066667D01*
X19600000Y-43209524D01*
X19647619Y-43257143D01*
X19647619Y-43638095D02*
X19600000Y-43685714D01*
X19552381Y-43780952D01*
X19552381Y-44019048D01*
X19600000Y-44114286D01*
X19647619Y-44161905D01*
X19742857Y-44209524D01*
X19838095Y-44209524D01*
X19980952Y-44161905D01*
X20552381Y-43590476D01*
X20552381Y-44209524D01*
X19552381Y-44542857D02*
X19552381Y-45209524D01*
X20552381Y-44780952D01*
X20357143Y-24157143D02*
X20404762Y-24109524D01*
X20452381Y-23966667D01*
X20452381Y-23871429D01*
X20404762Y-23728571D01*
X20309524Y-23633333D01*
X20214286Y-23585714D01*
X20023810Y-23538095D01*
X19880952Y-23538095D01*
X19690476Y-23585714D01*
X19595238Y-23633333D01*
X19500000Y-23728571D01*
X19452381Y-23871429D01*
X19452381Y-23966667D01*
X19500000Y-24109524D01*
X19547619Y-24157143D01*
X19547619Y-24538095D02*
X19500000Y-24585714D01*
X19452381Y-24680952D01*
X19452381Y-24919048D01*
X19500000Y-25014286D01*
X19547619Y-25061905D01*
X19642857Y-25109524D01*
X19738095Y-25109524D01*
X19880952Y-25061905D01*
X20452381Y-24490476D01*
X20452381Y-25109524D01*
X19880952Y-25680952D02*
X19833333Y-25585714D01*
X19785714Y-25538095D01*
X19690476Y-25490476D01*
X19642857Y-25490476D01*
X19547619Y-25538095D01*
X19500000Y-25585714D01*
X19452381Y-25680952D01*
X19452381Y-25871429D01*
X19500000Y-25966667D01*
X19547619Y-26014286D01*
X19642857Y-26061905D01*
X19690476Y-26061905D01*
X19785714Y-26014286D01*
X19833333Y-25966667D01*
X19880952Y-25871429D01*
X19880952Y-25680952D01*
X19928571Y-25585714D01*
X19976190Y-25538095D01*
X20071429Y-25490476D01*
X20261905Y-25490476D01*
X20357143Y-25538095D01*
X20404762Y-25585714D01*
X20452381Y-25680952D01*
X20452381Y-25871429D01*
X20404762Y-25966667D01*
X20357143Y-26014286D01*
X20261905Y-26061905D01*
X20071429Y-26061905D01*
X19976190Y-26014286D01*
X19928571Y-25966667D01*
X19880952Y-25871429D01*
X7452381Y-35738095D02*
X8261905Y-35738095D01*
X8357143Y-35785714D01*
X8404762Y-35833333D01*
X8452381Y-35928571D01*
X8452381Y-36119048D01*
X8404762Y-36214286D01*
X8357143Y-36261905D01*
X8261905Y-36309524D01*
X7452381Y-36309524D01*
X7547619Y-36738095D02*
X7500000Y-36785714D01*
X7452381Y-36880952D01*
X7452381Y-37119048D01*
X7500000Y-37214286D01*
X7547619Y-37261905D01*
X7642857Y-37309524D01*
X7738095Y-37309524D01*
X7880952Y-37261905D01*
X8452381Y-36690476D01*
X8452381Y-37309524D01*
X13492857Y-6857143D02*
X13540476Y-6904762D01*
X13683333Y-6952381D01*
X13778571Y-6952381D01*
X13921429Y-6904762D01*
X14016667Y-6809524D01*
X14064286Y-6714286D01*
X14111905Y-6523810D01*
X14111905Y-6380952D01*
X14064286Y-6190476D01*
X14016667Y-6095238D01*
X13921429Y-6000000D01*
X13778571Y-5952381D01*
X13683333Y-5952381D01*
X13540476Y-6000000D01*
X13492857Y-6047619D01*
X13111905Y-6047619D02*
X13064286Y-6000000D01*
X12969048Y-5952381D01*
X12730952Y-5952381D01*
X12635714Y-6000000D01*
X12588095Y-6047619D01*
X12540476Y-6142857D01*
X12540476Y-6238095D01*
X12588095Y-6380952D01*
X13159524Y-6952381D01*
X12540476Y-6952381D01*
X12064286Y-6952381D02*
X11873810Y-6952381D01*
X11778571Y-6904762D01*
X11730952Y-6857143D01*
X11635714Y-6714286D01*
X11588095Y-6523810D01*
X11588095Y-6142857D01*
X11635714Y-6047619D01*
X11683333Y-6000000D01*
X11778571Y-5952381D01*
X11969048Y-5952381D01*
X12064286Y-6000000D01*
X12111905Y-6047619D01*
X12159524Y-6142857D01*
X12159524Y-6380952D01*
X12111905Y-6476190D01*
X12064286Y-6523810D01*
X11969048Y-6571429D01*
X11778571Y-6571429D01*
X11683333Y-6523810D01*
X11635714Y-6476190D01*
X11588095Y-6380952D01*
M02*
