G04 #@! TF.FileFunction,Soldermask,Top*
%FSLAX46Y46*%
G04 Gerber Fmt 4.6, Leading zero omitted, Abs format (unit mm)*
G04 Created by KiCad (PCBNEW 4.0.6) date 2018 February 05, Monday 13:52:32*
%MOMM*%
%LPD*%
G01*
G04 APERTURE LIST*
%ADD10C,0.100000*%
%ADD11R,2.100000X2.100000*%
%ADD12O,2.100000X2.100000*%
%ADD13C,2.000000*%
%ADD14R,2.000000X2.000000*%
%ADD15R,2.800000X1.700000*%
%ADD16R,4.400000X4.400000*%
%ADD17C,2.120000*%
%ADD18O,2.220000X1.620000*%
%ADD19R,3.600000X2.900000*%
%ADD20O,2.900000X1.900000*%
%ADD21O,2.900000X2.000000*%
%ADD22O,2.800000X2.000000*%
%ADD23R,2.400000X1.900000*%
%ADD24O,1.924000X2.400000*%
%ADD25O,5.300000X3.600000*%
G04 APERTURE END LIST*
D10*
D11*
X22230000Y-55420000D03*
D12*
X24770000Y-55420000D03*
X22230000Y-57960000D03*
X24770000Y-57960000D03*
X22230000Y-60500000D03*
X24770000Y-60500000D03*
X22230000Y-63040000D03*
X24770000Y-63040000D03*
X22230000Y-65580000D03*
X24770000Y-65580000D03*
D13*
X2990000Y-14300000D03*
X2990000Y-16840000D03*
X2990000Y-19380000D03*
X2990000Y-21920000D03*
X2990000Y-11760000D03*
X2990000Y-9220000D03*
X2990000Y-6680000D03*
X5530000Y-21920000D03*
X8070000Y-21920000D03*
X10610000Y-21920000D03*
X13150000Y-21920000D03*
X15690000Y-21920000D03*
X18230000Y-21920000D03*
X20770000Y-21920000D03*
X23310000Y-21920000D03*
X25850000Y-21920000D03*
X28390000Y-21920000D03*
X30930000Y-21920000D03*
X33470000Y-21920000D03*
X36010000Y-21920000D03*
X5530000Y-6680000D03*
X8070000Y-6680000D03*
X10610000Y-6680000D03*
X13150000Y-6680000D03*
X15690000Y-6680000D03*
X18230000Y-6680000D03*
X20770000Y-6680000D03*
X23310000Y-6680000D03*
X25850000Y-6680000D03*
X28390000Y-6680000D03*
X30930000Y-6680000D03*
X33470000Y-6680000D03*
D14*
X36010000Y-6680000D03*
D15*
X22700000Y-37500000D03*
X22700000Y-40000000D03*
X22700000Y-42500000D03*
X37000000Y-42500000D03*
X37000000Y-37500000D03*
D16*
X30000000Y-45700000D03*
X30000000Y-34300000D03*
D17*
X30000000Y-40000000D03*
D18*
X25500000Y-40000000D03*
D19*
X37900000Y-35000000D03*
X22100000Y-35000000D03*
X22100000Y-45000000D03*
X37900000Y-45000000D03*
D15*
X17300000Y-42500000D03*
X17300000Y-40000000D03*
X17300000Y-37500000D03*
X3000000Y-37500000D03*
X3000000Y-42500000D03*
D16*
X10000000Y-34300000D03*
X10000000Y-45700000D03*
D17*
X10000000Y-40000000D03*
D18*
X14500000Y-40000000D03*
D19*
X2100000Y-45000000D03*
X17900000Y-45000000D03*
X17900000Y-35000000D03*
X2100000Y-35000000D03*
D20*
X5000000Y-80920000D03*
D21*
X5000000Y-72620000D03*
D22*
X5000000Y-70200000D03*
D20*
X15000000Y-80920000D03*
D21*
X15000000Y-72620000D03*
D22*
X15000000Y-70200000D03*
D20*
X25000000Y-80920000D03*
D21*
X25000000Y-72620000D03*
D22*
X25000000Y-70200000D03*
D20*
X35000000Y-80920000D03*
D21*
X35000000Y-72620000D03*
D22*
X35000000Y-70200000D03*
D20*
X5000000Y-93920000D03*
D21*
X5000000Y-85620000D03*
D22*
X5000000Y-83200000D03*
D20*
X15000000Y-93920000D03*
D21*
X15000000Y-85620000D03*
D22*
X15000000Y-83200000D03*
D20*
X25000000Y-93920000D03*
D21*
X25000000Y-85620000D03*
D22*
X25000000Y-83200000D03*
D20*
X35000000Y-93920000D03*
D21*
X35000000Y-85620000D03*
D22*
X35000000Y-83200000D03*
D20*
X5000000Y-106920000D03*
D21*
X5000000Y-98620000D03*
D22*
X5000000Y-96200000D03*
D20*
X15000000Y-106920000D03*
D21*
X15000000Y-98620000D03*
D22*
X15000000Y-96200000D03*
D20*
X25000000Y-106920000D03*
D21*
X25000000Y-98620000D03*
D22*
X25000000Y-96200000D03*
D20*
X35000000Y-106920000D03*
D21*
X35000000Y-98620000D03*
D22*
X35000000Y-96200000D03*
D23*
X6025000Y-62750000D03*
X13975000Y-62750000D03*
X13975000Y-67250000D03*
X6025000Y-67250000D03*
X6025000Y-50750000D03*
X13975000Y-50750000D03*
X13975000Y-55250000D03*
X6025000Y-55250000D03*
D24*
X11110000Y-2500000D03*
D25*
X35000000Y-2500000D03*
X5000000Y-2500000D03*
D24*
X13650000Y-2500000D03*
X16190000Y-2500000D03*
X18730000Y-2500000D03*
X21270000Y-2500000D03*
X23810000Y-2500000D03*
X26350000Y-2500000D03*
X28890000Y-2500000D03*
M02*
