G04 #@! TF.FileFunction,Copper,L1,Top,Signal*
%FSLAX46Y46*%
G04 Gerber Fmt 4.6, Leading zero omitted, Abs format (unit mm)*
G04 Created by KiCad (PCBNEW 4.0.6) date 2018 February 05, Monday 13:52:32*
%MOMM*%
%LPD*%
G01*
G04 APERTURE LIST*
%ADD10C,0.100000*%
%ADD11R,1.700000X1.700000*%
%ADD12O,1.700000X1.700000*%
%ADD13C,1.600000*%
%ADD14R,1.600000X1.600000*%
%ADD15R,2.400000X1.300000*%
%ADD16R,4.000000X4.000000*%
%ADD17R,3.200000X2.500000*%
%ADD18O,2.500000X1.500000*%
%ADD19O,2.500000X1.600000*%
%ADD20O,2.400000X1.600000*%
%ADD21R,2.000000X1.500000*%
%ADD22O,1.524000X2.000000*%
%ADD23C,0.600000*%
%ADD24C,1.400000*%
%ADD25C,1.000000*%
%ADD26C,0.650000*%
%ADD27C,0.500000*%
%ADD28C,2.000000*%
%ADD29C,0.250000*%
%ADD30C,1.000000*%
%ADD31C,0.254000*%
G04 APERTURE END LIST*
D10*
D11*
X22230000Y-55420000D03*
D12*
X24770000Y-55420000D03*
X22230000Y-57960000D03*
X24770000Y-57960000D03*
X22230000Y-60500000D03*
X24770000Y-60500000D03*
X22230000Y-63040000D03*
X24770000Y-63040000D03*
X22230000Y-65580000D03*
X24770000Y-65580000D03*
D13*
X2990000Y-14300000D03*
X2990000Y-16840000D03*
X2990000Y-19380000D03*
X2990000Y-21920000D03*
X2990000Y-11760000D03*
X2990000Y-9220000D03*
X2990000Y-6680000D03*
X5530000Y-21920000D03*
X8070000Y-21920000D03*
X10610000Y-21920000D03*
X13150000Y-21920000D03*
X15690000Y-21920000D03*
X18230000Y-21920000D03*
X20770000Y-21920000D03*
X23310000Y-21920000D03*
X25850000Y-21920000D03*
X28390000Y-21920000D03*
X30930000Y-21920000D03*
X33470000Y-21920000D03*
X36010000Y-21920000D03*
X5530000Y-6680000D03*
X8070000Y-6680000D03*
X10610000Y-6680000D03*
X13150000Y-6680000D03*
X15690000Y-6680000D03*
X18230000Y-6680000D03*
X20770000Y-6680000D03*
X23310000Y-6680000D03*
X25850000Y-6680000D03*
X28390000Y-6680000D03*
X30930000Y-6680000D03*
X33470000Y-6680000D03*
D14*
X36010000Y-6680000D03*
D15*
X22700000Y-37500000D03*
X22700000Y-40000000D03*
X22700000Y-42500000D03*
X37000000Y-42500000D03*
X37000000Y-37500000D03*
D16*
X30000000Y-45700000D03*
X30000000Y-34300000D03*
D17*
X37900000Y-35000000D03*
X22100000Y-35000000D03*
X22100000Y-45000000D03*
X37900000Y-45000000D03*
D15*
X17300000Y-42500000D03*
X17300000Y-40000000D03*
X17300000Y-37500000D03*
X3000000Y-37500000D03*
X3000000Y-42500000D03*
D16*
X10000000Y-34300000D03*
X10000000Y-45700000D03*
D17*
X2100000Y-45000000D03*
X17900000Y-45000000D03*
X17900000Y-35000000D03*
X2100000Y-35000000D03*
D18*
X5000000Y-80920000D03*
D19*
X5000000Y-72620000D03*
D20*
X5000000Y-70200000D03*
D18*
X15000000Y-80920000D03*
D19*
X15000000Y-72620000D03*
D20*
X15000000Y-70200000D03*
D18*
X25000000Y-80920000D03*
D19*
X25000000Y-72620000D03*
D20*
X25000000Y-70200000D03*
D18*
X35000000Y-80920000D03*
D19*
X35000000Y-72620000D03*
D20*
X35000000Y-70200000D03*
D18*
X5000000Y-93920000D03*
D19*
X5000000Y-85620000D03*
D20*
X5000000Y-83200000D03*
D18*
X15000000Y-93920000D03*
D19*
X15000000Y-85620000D03*
D20*
X15000000Y-83200000D03*
D18*
X25000000Y-93920000D03*
D19*
X25000000Y-85620000D03*
D20*
X25000000Y-83200000D03*
D18*
X35000000Y-93920000D03*
D19*
X35000000Y-85620000D03*
D20*
X35000000Y-83200000D03*
D18*
X5000000Y-106920000D03*
D19*
X5000000Y-98620000D03*
D20*
X5000000Y-96200000D03*
D18*
X15000000Y-106920000D03*
D19*
X15000000Y-98620000D03*
D20*
X15000000Y-96200000D03*
D18*
X25000000Y-106920000D03*
D19*
X25000000Y-98620000D03*
D20*
X25000000Y-96200000D03*
D18*
X35000000Y-106920000D03*
D19*
X35000000Y-98620000D03*
D20*
X35000000Y-96200000D03*
D21*
X6025000Y-62750000D03*
X13975000Y-62750000D03*
X13975000Y-67250000D03*
X6025000Y-67250000D03*
X6025000Y-50750000D03*
X13975000Y-50750000D03*
X13975000Y-55250000D03*
X6025000Y-55250000D03*
D22*
X11110000Y-2500000D03*
X13650000Y-2500000D03*
X16190000Y-2500000D03*
X18730000Y-2500000D03*
X21270000Y-2500000D03*
X23810000Y-2500000D03*
X26350000Y-2500000D03*
X28890000Y-2500000D03*
D23*
X15750192Y-44674984D03*
D24*
X9100000Y-59500000D03*
X16200000Y-65299982D03*
D23*
X16000000Y-60000000D03*
X38575021Y-37000000D03*
X21900000Y-25000000D03*
X21300000Y-25000000D03*
X20700000Y-25000000D03*
X20100000Y-25000000D03*
X19500000Y-25000000D03*
X18900000Y-25000000D03*
X18300000Y-25000000D03*
X17700000Y-25000000D03*
X27988552Y-49889016D03*
X28000000Y-51100000D03*
X28000000Y-50500000D03*
X28500000Y-50200000D03*
X28500000Y-50800000D03*
X28500000Y-51400000D03*
X5300000Y-44400000D03*
X19750000Y-41500000D03*
X2658607Y-41321275D03*
D25*
X29650000Y-7800000D03*
X29650000Y-8800000D03*
X29650000Y-9800000D03*
X29650000Y-10800000D03*
X28600000Y-13950000D03*
X29300000Y-14650000D03*
X30050000Y-15400000D03*
X30800000Y-16150000D03*
X31550000Y-16900000D03*
X32300000Y-17650000D03*
D26*
X6900000Y-57500000D03*
X5900000Y-57500000D03*
X5400000Y-57800000D03*
X5400000Y-58400000D03*
X5400000Y-59000000D03*
X5400000Y-59600000D03*
X5400000Y-60200000D03*
X5400000Y-60800000D03*
X5900000Y-60500000D03*
X5900000Y-59900000D03*
X5900000Y-59300000D03*
X5900000Y-58700000D03*
X5900000Y-58100000D03*
X6400000Y-57800000D03*
X6400000Y-58400000D03*
X6400000Y-59000000D03*
X6400000Y-59600000D03*
X6400000Y-60200000D03*
X6400000Y-60800000D03*
X6900000Y-60500000D03*
X6900000Y-59900000D03*
X6900000Y-59300000D03*
X6900000Y-58700000D03*
X6900000Y-58100000D03*
X7400000Y-57800000D03*
X7400000Y-58400000D03*
X7400000Y-59000000D03*
X7400000Y-59600000D03*
X7400000Y-60200000D03*
X7400000Y-60800000D03*
X20000000Y-33100006D03*
X17200000Y-48500000D03*
X12300000Y-63774965D03*
X12500000Y-59999996D03*
X4375889Y-44261456D03*
D25*
X19400000Y-91374990D03*
X1000000Y-65400000D03*
D26*
X3849990Y-56418613D03*
D24*
X10750000Y-52250000D03*
D26*
X7200000Y-64200000D03*
X14850000Y-4600000D03*
D23*
X38532626Y-41512671D03*
D26*
X35600000Y-40200000D03*
D23*
X26000000Y-35000000D03*
X24250000Y-36750000D03*
D26*
X32149968Y-42000000D03*
X29051301Y-57587179D03*
X32500000Y-38600000D03*
X27750000Y-55750000D03*
X32599979Y-41100000D03*
X29299979Y-58400000D03*
X28700000Y-24200000D03*
X32400000Y-39700000D03*
X28100000Y-56700000D03*
X15000000Y-33600000D03*
X1000000Y-33224988D03*
D23*
X1500000Y-39500000D03*
X3200000Y-28800000D03*
D26*
X4800000Y-9400000D03*
X1800000Y-28900000D03*
X4600012Y-29078216D03*
X12100000Y-18000000D03*
D23*
X7400000Y-45500000D03*
D26*
X7474982Y-33500000D03*
X9350000Y-23500000D03*
D23*
X13400000Y-17200000D03*
X6500000Y-45500000D03*
X7400000Y-32600000D03*
X8700000Y-20500000D03*
D26*
X32709627Y-72309627D03*
X35800000Y-78900000D03*
X26000000Y-78100000D03*
X33200000Y-71300000D03*
X20900000Y-72500000D03*
X7600000Y-71500000D03*
X23000000Y-48600000D03*
X25985757Y-53014243D03*
X18600000Y-88100000D03*
X23600000Y-103700000D03*
X16400000Y-103800000D03*
X21800000Y-88100000D03*
X12800000Y-88200000D03*
X16800000Y-92500000D03*
X27200000Y-88100000D03*
X23200000Y-92600000D03*
X25300000Y-103844947D03*
X22900000Y-99200000D03*
X14600000Y-103844947D03*
X17000000Y-99200000D03*
D23*
X3750000Y-53500000D03*
X6300000Y-49400000D03*
D26*
X7900021Y-36950000D03*
D23*
X19288589Y-43195309D03*
X15758869Y-43875029D03*
D26*
X7900021Y-38087490D03*
X4400000Y-34400000D03*
X17500000Y-27000021D03*
D23*
X4765208Y-33660225D03*
D26*
X22500000Y-27000021D03*
X11400000Y-37100000D03*
D23*
X12300000Y-40400000D03*
X12750000Y-42374990D03*
D26*
X11374989Y-23152711D03*
D23*
X23600000Y-87800000D03*
D26*
X20700000Y-102800000D03*
X20200000Y-101700000D03*
D23*
X30525010Y-61000000D03*
X29974990Y-59364883D03*
D26*
X16000000Y-25000000D03*
X26599990Y-26509630D03*
D27*
X15750000Y-44675176D02*
X15750192Y-44674984D01*
X9000000Y-51500000D02*
X15750000Y-44750000D01*
X16000000Y-60000000D02*
X9000000Y-53000000D01*
X15750000Y-44750000D02*
X15750000Y-44675176D01*
X9000000Y-53000000D02*
X9000000Y-51500000D01*
D28*
X16200000Y-65299982D02*
X11599982Y-65299982D01*
X11599982Y-65299982D02*
X10200000Y-63900000D01*
X10200000Y-63900000D02*
X10200000Y-60600000D01*
X10200000Y-60600000D02*
X9700000Y-60100000D01*
X9700000Y-60100000D02*
X9100000Y-59500000D01*
D29*
X37000000Y-37500000D02*
X38450000Y-37500000D01*
X38575021Y-37374979D02*
X38575021Y-37000000D01*
X38450000Y-37500000D02*
X38575021Y-37374979D01*
X21300000Y-25000000D02*
X21900000Y-25000000D01*
X20100000Y-25000000D02*
X20700000Y-25000000D01*
X18900000Y-25000000D02*
X19500000Y-25000000D01*
X17700000Y-25000000D02*
X18300000Y-25000000D01*
X28000000Y-50500000D02*
X28000000Y-49900464D01*
X28000000Y-49900464D02*
X27988552Y-49889016D01*
X28500000Y-50800000D02*
X28500000Y-50200000D01*
X25945001Y-55554999D02*
X28500000Y-53000000D01*
X28500000Y-53000000D02*
X28500000Y-51400000D01*
X24770000Y-57960000D02*
X25945001Y-56784999D01*
X25945001Y-56784999D02*
X25945001Y-55554999D01*
D27*
X17300000Y-40000000D02*
X18250000Y-40000000D01*
X18250000Y-40000000D02*
X19750000Y-41500000D01*
D29*
X3000000Y-41600000D02*
X2721275Y-41321275D01*
X2721275Y-41321275D02*
X2658607Y-41321275D01*
X3000000Y-42500000D02*
X3000000Y-41600000D01*
X29650000Y-9800000D02*
X29650000Y-8800000D01*
X28600000Y-13950000D02*
X28600000Y-11850000D01*
X28600000Y-11850000D02*
X29650000Y-10800000D01*
X29300000Y-14650000D02*
X28600000Y-13950000D01*
X30800000Y-16150000D02*
X30050000Y-15400000D01*
X32300000Y-17650000D02*
X31550000Y-16900000D01*
D27*
X5900000Y-57500000D02*
X6900000Y-57500000D01*
X5400000Y-58400000D02*
X5400000Y-57800000D01*
X5400000Y-59600000D02*
X5400000Y-59000000D01*
X5400000Y-60800000D02*
X5400000Y-60200000D01*
X5900000Y-59900000D02*
X5900000Y-60500000D01*
X5900000Y-58700000D02*
X5900000Y-59300000D01*
X6400000Y-57800000D02*
X6200000Y-57800000D01*
X6200000Y-57800000D02*
X5900000Y-58100000D01*
X6400000Y-59000000D02*
X6400000Y-58400000D01*
X6400000Y-60200000D02*
X6400000Y-59600000D01*
X6900000Y-60500000D02*
X6700000Y-60500000D01*
X6700000Y-60500000D02*
X6400000Y-60800000D01*
X6900000Y-59300000D02*
X6900000Y-59900000D01*
X6900000Y-58100000D02*
X6900000Y-58700000D01*
X7400000Y-58400000D02*
X7400000Y-57800000D01*
X7400000Y-59600000D02*
X7400000Y-59000000D01*
X7400000Y-60800000D02*
X7400000Y-60200000D01*
X17200000Y-48500000D02*
X18500000Y-48500000D01*
X20049999Y-46950001D02*
X20049999Y-43389999D01*
X20000000Y-38897002D02*
X20000000Y-33300000D01*
X18500000Y-48500000D02*
X20049999Y-46950001D01*
X20049999Y-43389999D02*
X21000000Y-42439998D01*
X21000000Y-42439998D02*
X21000000Y-39897002D01*
X21000000Y-39897002D02*
X20000000Y-38897002D01*
X20000000Y-33300000D02*
X20000000Y-33100006D01*
X12500000Y-63574965D02*
X12300000Y-63774965D01*
X12500000Y-59999996D02*
X12500000Y-63574965D01*
X1000000Y-65400000D02*
X1000000Y-49760002D01*
X4375889Y-46384113D02*
X4375889Y-44721075D01*
X1000000Y-49760002D02*
X4375889Y-46384113D01*
X4375889Y-44721075D02*
X4375889Y-44261456D01*
D30*
X18692894Y-91374990D02*
X19400000Y-91374990D01*
X18183656Y-91374990D02*
X18692894Y-91374990D01*
X1000000Y-65400000D02*
X1000000Y-74191334D01*
X1000000Y-74191334D02*
X18183656Y-91374990D01*
X26574989Y-42341752D02*
X27825011Y-41091730D01*
X26574989Y-45175011D02*
X26574989Y-42341752D01*
X10750000Y-52250000D02*
X16650000Y-52250000D01*
X16650000Y-52250000D02*
X21500000Y-47400000D01*
X32700001Y-36860001D02*
X32700001Y-31775022D01*
X32524978Y-25305022D02*
X36010000Y-21820000D01*
X21500000Y-47400000D02*
X24350000Y-47400000D01*
X32560001Y-37000001D02*
X32700001Y-36860001D01*
X29999999Y-37000001D02*
X32560001Y-37000001D01*
X27825011Y-39174989D02*
X29999999Y-37000001D01*
X27825011Y-41091730D02*
X27825011Y-39174989D01*
X24350000Y-47400000D02*
X26574989Y-45175011D01*
X32524978Y-31599999D02*
X32524978Y-25305022D01*
X32700001Y-31775022D02*
X32524978Y-31599999D01*
D27*
X3849990Y-56878232D02*
X3849990Y-56418613D01*
X4700000Y-64200000D02*
X3849990Y-63349990D01*
X7200000Y-64200000D02*
X4700000Y-64200000D01*
X3849990Y-63349990D02*
X3849990Y-56878232D01*
X35580000Y-21820000D02*
X36010000Y-21820000D01*
D29*
X26350000Y-2500000D02*
X26350000Y-2738000D01*
X26350000Y-2738000D02*
X24388000Y-4700000D01*
X24388000Y-4700000D02*
X22700000Y-4700000D01*
X22700000Y-4700000D02*
X22000000Y-5400000D01*
X22000000Y-5400000D02*
X22000000Y-7700000D01*
X22000000Y-7700000D02*
X21450000Y-8250000D01*
X21450000Y-8250000D02*
X14820000Y-8250000D01*
X14820000Y-8250000D02*
X13150000Y-6580000D01*
X14850000Y-4078000D02*
X14850000Y-4140381D01*
X14850000Y-4140381D02*
X14850000Y-4600000D01*
X16190000Y-2738000D02*
X14850000Y-4078000D01*
X16190000Y-2500000D02*
X16190000Y-2738000D01*
X28890000Y-2500000D02*
X28890000Y-2262000D01*
X28890000Y-2262000D02*
X27628000Y-1000000D01*
X27628000Y-1000000D02*
X10834736Y-1000000D01*
X10834736Y-1000000D02*
X6534736Y-5300000D01*
X6534736Y-5300000D02*
X4270000Y-5300000D01*
X4270000Y-5300000D02*
X2990000Y-6580000D01*
X37550000Y-42500000D02*
X38532626Y-41517374D01*
X38532626Y-41517374D02*
X38532626Y-41512671D01*
X35600000Y-40200000D02*
X36912671Y-41512671D01*
X38108362Y-41512671D02*
X38532626Y-41512671D01*
X37000000Y-42500000D02*
X37550000Y-42500000D01*
X36912671Y-41512671D02*
X38108362Y-41512671D01*
X26000000Y-28900000D02*
X26000000Y-34575736D01*
X23450011Y-26350011D02*
X26000000Y-28900000D01*
X11238007Y-26350011D02*
X23450011Y-26350011D01*
X8070000Y-23182004D02*
X11238007Y-26350011D01*
X8070000Y-21820000D02*
X8070000Y-23182004D01*
X26000000Y-34575736D02*
X26000000Y-35000000D01*
X22700000Y-37500000D02*
X23500000Y-37500000D01*
X23500000Y-37500000D02*
X24250000Y-36750000D01*
X13160274Y-25900000D02*
X23636411Y-25900000D01*
X24150000Y-42500000D02*
X22700000Y-42500000D01*
X27000000Y-29263589D02*
X27000000Y-40750000D01*
X23636411Y-25900000D02*
X27000000Y-29263589D01*
X10610000Y-21820000D02*
X10610000Y-23349726D01*
X27000000Y-40750000D02*
X25250000Y-42500000D01*
X10610000Y-23349726D02*
X13160274Y-25900000D01*
X25250000Y-42500000D02*
X24150000Y-42500000D01*
X32775012Y-43253599D02*
X32149968Y-42628555D01*
X32149968Y-42628555D02*
X32149968Y-42459619D01*
X31049967Y-49871446D02*
X32775012Y-48146401D01*
X32149968Y-42459619D02*
X32149968Y-42000000D01*
X32775012Y-48146401D02*
X32775012Y-43253599D01*
X31049967Y-55588513D02*
X31049967Y-49871446D01*
X29051301Y-57587179D02*
X31049967Y-55588513D01*
X27750000Y-55750000D02*
X29250000Y-54250000D01*
X29250000Y-49750000D02*
X27400000Y-47900000D01*
X29250000Y-54250000D02*
X29250000Y-49750000D01*
X31499988Y-40483212D02*
X31499988Y-39600012D01*
X29391491Y-42591709D02*
X31499988Y-40483212D01*
X27908291Y-42591709D02*
X29391491Y-42591709D01*
X32175001Y-38924999D02*
X32500000Y-38600000D01*
X27400000Y-43100000D02*
X27908291Y-42591709D01*
X31499988Y-39600012D02*
X32175001Y-38924999D01*
X27400000Y-47900000D02*
X27400000Y-43100000D01*
X32799978Y-42642154D02*
X32799978Y-41299999D01*
X33225023Y-43067199D02*
X32799978Y-42642154D01*
X29299979Y-58400000D02*
X31499978Y-56200001D01*
X33225023Y-48332801D02*
X33225023Y-43067199D01*
X31499978Y-56200001D02*
X31499978Y-50057846D01*
X31499978Y-50057846D02*
X33225023Y-48332801D01*
X32799978Y-41299999D02*
X32599979Y-41100000D01*
X18230000Y-21820000D02*
X19710000Y-23300000D01*
X19710000Y-23300000D02*
X27800000Y-23300000D01*
X28375001Y-23875001D02*
X28700000Y-24200000D01*
X27800000Y-23300000D02*
X28375001Y-23875001D01*
X32325001Y-43439999D02*
X31499967Y-42614965D01*
X31499967Y-42614965D02*
X31499967Y-41171610D01*
X32400000Y-40271577D02*
X32400000Y-40159619D01*
X30599956Y-49685046D02*
X32325001Y-47960001D01*
X28100000Y-56700000D02*
X30599956Y-54200044D01*
X32325001Y-47960001D02*
X32325001Y-43439999D01*
X31499967Y-41171610D02*
X32400000Y-40271577D01*
X32400000Y-40159619D02*
X32400000Y-39700000D01*
X30599956Y-54200044D02*
X30599956Y-49685046D01*
X15000000Y-33600000D02*
X15000000Y-36100000D01*
X15000000Y-36100000D02*
X16400000Y-37500000D01*
X16400000Y-37500000D02*
X17300000Y-37500000D01*
X15100000Y-33500000D02*
X15000000Y-33600000D01*
X1459619Y-33224988D02*
X1000000Y-33224988D01*
X6750000Y-27934607D02*
X1459619Y-33224988D01*
X10672002Y-16274998D02*
X6750000Y-20197000D01*
X22844998Y-16274998D02*
X10672002Y-16274998D01*
X28390000Y-21820000D02*
X22844998Y-16274998D01*
X6750000Y-20197000D02*
X6750000Y-27934607D01*
X3000000Y-37500000D02*
X2450000Y-37500000D01*
X2450000Y-37500000D02*
X1500000Y-38450000D01*
X1500000Y-38450000D02*
X1500000Y-39500000D01*
X4800000Y-9400000D02*
X3700000Y-10500000D01*
X3700000Y-10500000D02*
X2200000Y-10500000D01*
X2200000Y-10500000D02*
X1499988Y-11200012D01*
X1499988Y-27099988D02*
X2900001Y-28500001D01*
X1499988Y-11200012D02*
X1499988Y-27099988D01*
X2900001Y-28500001D02*
X3200000Y-28800000D01*
X18730000Y-2500000D02*
X18730000Y-2738000D01*
X18730000Y-2738000D02*
X16217998Y-5250002D01*
X16217998Y-5250002D02*
X7499998Y-5250002D01*
X7499998Y-5250002D02*
X6969999Y-5780001D01*
X6969999Y-5780001D02*
X6329999Y-5780001D01*
X6329999Y-5780001D02*
X5530000Y-6580000D01*
X1475001Y-28575001D02*
X1800000Y-28900000D01*
X1049977Y-28149977D02*
X1475001Y-28575001D01*
X2000000Y-7900000D02*
X1049977Y-8850023D01*
X8070000Y-6580000D02*
X6750000Y-7900000D01*
X1049977Y-8850023D02*
X1049977Y-28149977D01*
X6750000Y-7900000D02*
X2000000Y-7900000D01*
X10610000Y-6580000D02*
X4200000Y-12990000D01*
X4200000Y-12990000D02*
X4200000Y-28678204D01*
X4275013Y-28753217D02*
X4600012Y-29078216D01*
X4200000Y-28678204D02*
X4275013Y-28753217D01*
X21270000Y-2500000D02*
X21270000Y-2738000D01*
X21270000Y-2738000D02*
X19308000Y-4700000D01*
X19308000Y-4700000D02*
X17570000Y-4700000D01*
X17570000Y-4700000D02*
X16489999Y-5780001D01*
X16489999Y-5780001D02*
X15690000Y-6580000D01*
X23810000Y-2500000D02*
X23810000Y-2738000D01*
X20110000Y-4700000D02*
X19029999Y-5780001D01*
X23810000Y-2738000D02*
X21848000Y-4700000D01*
X21848000Y-4700000D02*
X20110000Y-4700000D01*
X19029999Y-5780001D02*
X18230000Y-6580000D01*
X7250011Y-34184590D02*
X7250011Y-44925747D01*
X7400000Y-45075736D02*
X7400000Y-45500000D01*
X7250011Y-44925747D02*
X7400000Y-45075736D01*
X7474982Y-33959619D02*
X7250011Y-34184590D01*
X7474982Y-33500000D02*
X7474982Y-33959619D01*
X11775001Y-18324999D02*
X12100000Y-18000000D01*
X9350000Y-20750000D02*
X11775001Y-18324999D01*
X9350000Y-23500000D02*
X9350000Y-20750000D01*
X6200001Y-45200001D02*
X6500000Y-45500000D01*
X7400000Y-32600000D02*
X6800000Y-33200000D01*
X6800000Y-33200000D02*
X6800000Y-44600002D01*
X6800000Y-44600002D02*
X6200001Y-45200001D01*
X11575736Y-17200000D02*
X12975736Y-17200000D01*
X8700000Y-20500000D02*
X8700000Y-20075736D01*
X12975736Y-17200000D02*
X13400000Y-17200000D01*
X8700000Y-20075736D02*
X11575736Y-17200000D01*
X32709627Y-72769246D02*
X32709627Y-72309627D01*
X35800000Y-78900000D02*
X32709627Y-75809627D01*
X32709627Y-75809627D02*
X32709627Y-72769246D01*
X32740381Y-71300000D02*
X26000000Y-78040381D01*
X26000000Y-78040381D02*
X26000000Y-78100000D01*
X33200000Y-71300000D02*
X32740381Y-71300000D01*
X20900000Y-72040381D02*
X20900000Y-72500000D01*
X31949989Y-60513600D02*
X20900000Y-71563589D01*
X33249989Y-37476754D02*
X33249989Y-42455754D01*
X33525012Y-37201731D02*
X33249989Y-37476754D01*
X20900000Y-71563589D02*
X20900000Y-72040381D01*
X33249989Y-42455754D02*
X33675034Y-42880799D01*
X33675034Y-42880799D02*
X33675034Y-48519201D01*
X33449989Y-31323246D02*
X33525012Y-31398269D01*
X33449989Y-30413601D02*
X33449989Y-31323246D01*
X33525012Y-31398269D02*
X33525012Y-37201731D01*
X37135001Y-21271411D02*
X37135001Y-26728589D01*
X37135001Y-26728589D02*
X33449989Y-30413601D01*
X31949989Y-50244246D02*
X31949989Y-60513600D01*
X33675034Y-48519201D02*
X31949989Y-50244246D01*
X30930000Y-6580000D02*
X30930000Y-15066410D01*
X30930000Y-15066410D02*
X37135001Y-21271411D01*
X33700000Y-37663154D02*
X33975023Y-37388131D01*
X34125045Y-48705601D02*
X34125045Y-42694399D01*
X33700000Y-42269354D02*
X33700000Y-37663154D01*
X32400000Y-50430646D02*
X34125045Y-48705601D01*
X33470000Y-16970000D02*
X33470000Y-6580000D01*
X7600000Y-71500000D02*
X8059619Y-71500000D01*
X8059619Y-71500000D02*
X8064629Y-71494990D01*
X8064629Y-71494990D02*
X17694990Y-71494990D01*
X17694990Y-71494990D02*
X19600000Y-73400000D01*
X33900000Y-31136846D02*
X33900000Y-30600001D01*
X33900000Y-30600001D02*
X37585012Y-26914989D01*
X19600000Y-73400000D02*
X21112004Y-73400000D01*
X21112004Y-73400000D02*
X22000002Y-72512002D01*
X22000002Y-72512002D02*
X22000002Y-71099998D01*
X37585012Y-26914989D02*
X37585012Y-21085012D01*
X37585012Y-21085012D02*
X33470000Y-16970000D01*
X33975023Y-31211869D02*
X33900000Y-31136846D01*
X33975023Y-37388131D02*
X33975023Y-31211869D01*
X22000002Y-71099998D02*
X32400000Y-60700000D01*
X32400000Y-60700000D02*
X32400000Y-50430646D01*
X34125045Y-42694399D02*
X33700000Y-42269354D01*
X25985757Y-51585757D02*
X23324999Y-48924999D01*
X25985757Y-53014243D02*
X25985757Y-51585757D01*
X23324999Y-48924999D02*
X23000000Y-48600000D01*
X16400000Y-103800000D02*
X18200000Y-102000000D01*
X18200000Y-102000000D02*
X18200000Y-95200000D01*
X18200000Y-95200000D02*
X20900000Y-92500000D01*
X20900000Y-92500000D02*
X20900000Y-90400000D01*
X20900000Y-90400000D02*
X18924999Y-88424999D01*
X18924999Y-88424999D02*
X18600000Y-88100000D01*
X21800000Y-88100000D02*
X18600000Y-88100000D01*
X23300001Y-103999999D02*
X23600000Y-103700000D01*
X23200001Y-104099999D02*
X23300001Y-103999999D01*
X16400000Y-103800000D02*
X16699999Y-104099999D01*
X16699999Y-104099999D02*
X23200001Y-104099999D01*
X16800000Y-92500000D02*
X12800000Y-88500000D01*
X12800000Y-88500000D02*
X12800000Y-88200000D01*
X23200000Y-92600000D02*
X27200000Y-88600000D01*
X27200000Y-88600000D02*
X27200000Y-88100000D01*
X22900000Y-101444947D02*
X24975001Y-103519948D01*
X22900000Y-99200000D02*
X22900000Y-101444947D01*
X24975001Y-103519948D02*
X25300000Y-103844947D01*
X14924999Y-103519948D02*
X14600000Y-103844947D01*
X17000000Y-101444947D02*
X14924999Y-103519948D01*
X17000000Y-99200000D02*
X17000000Y-101444947D01*
X4500000Y-62475000D02*
X4500000Y-54250000D01*
X4500000Y-54250000D02*
X3750000Y-53500000D01*
X4775000Y-62750000D02*
X4500000Y-62475000D01*
X6025000Y-62750000D02*
X4775000Y-62750000D01*
X6025000Y-50750000D02*
X6025000Y-49675000D01*
X6025000Y-49675000D02*
X6300000Y-49400000D01*
X9250000Y-41500000D02*
X8550023Y-40800023D01*
X18750000Y-41500000D02*
X9250000Y-41500000D01*
X19288589Y-43195309D02*
X19288589Y-42038589D01*
X8225020Y-37274999D02*
X7900021Y-36950000D01*
X8550023Y-37600002D02*
X8225020Y-37274999D01*
X8550023Y-40800023D02*
X8550023Y-37600002D01*
X19288589Y-42038589D02*
X18750000Y-41500000D01*
X15458870Y-43575030D02*
X15758869Y-43875029D01*
X14883840Y-43000000D02*
X15458870Y-43575030D01*
X7900021Y-38087490D02*
X7900021Y-41900021D01*
X7900021Y-41900021D02*
X9000000Y-43000000D01*
X9000000Y-43000000D02*
X14883840Y-43000000D01*
X4075001Y-34075001D02*
X4400000Y-34400000D01*
X17500000Y-27000021D02*
X8963568Y-27000021D01*
X8963568Y-27000021D02*
X4075001Y-31888588D01*
X4075001Y-31888588D02*
X4075001Y-34075001D01*
X22500000Y-27000021D02*
X21000021Y-28500000D01*
X21000021Y-28500000D02*
X8300000Y-28500000D01*
X8300000Y-28500000D02*
X4800000Y-32000000D01*
X4800000Y-32000000D02*
X4800000Y-33625433D01*
X4800000Y-33625433D02*
X4765208Y-33660225D01*
X11724999Y-37424999D02*
X11400000Y-37100000D01*
X12300000Y-38000000D02*
X11724999Y-37424999D01*
X12300000Y-40400000D02*
X12300000Y-38000000D01*
X17300000Y-42500000D02*
X12875010Y-42500000D01*
X12875010Y-42500000D02*
X12750000Y-42374990D01*
X25850000Y-21820000D02*
X23430000Y-19400000D01*
X23430000Y-19400000D02*
X13300000Y-19400000D01*
X13300000Y-19400000D02*
X11900000Y-20800000D01*
X11900000Y-20800000D02*
X11900000Y-22627700D01*
X11900000Y-22627700D02*
X11699988Y-22827712D01*
X11699988Y-22827712D02*
X11374989Y-23152711D01*
X15000000Y-93920000D02*
X18380000Y-93920000D01*
X18380000Y-93920000D02*
X20400000Y-91900000D01*
X20400000Y-91900000D02*
X20400000Y-91000000D01*
X17700000Y-88300000D02*
X17700000Y-87600000D01*
X20400000Y-91000000D02*
X17700000Y-88300000D01*
X23000000Y-87200000D02*
X23600000Y-87800000D01*
X17700000Y-87600000D02*
X18100000Y-87200000D01*
X18100000Y-87200000D02*
X23000000Y-87200000D01*
X25000000Y-93920000D02*
X23500000Y-93920000D01*
X23500000Y-93920000D02*
X19500000Y-97920000D01*
X19500000Y-97920000D02*
X19500000Y-102124284D01*
X19500000Y-102124284D02*
X20175716Y-102800000D01*
X20175716Y-102800000D02*
X20275736Y-102800000D01*
X20275736Y-102800000D02*
X20700000Y-102800000D01*
X35000000Y-93920000D02*
X34480000Y-93920000D01*
X34480000Y-93920000D02*
X33400000Y-95000000D01*
X33400000Y-95000000D02*
X23200000Y-95000000D01*
X20200000Y-98000000D02*
X20200000Y-101275736D01*
X23200000Y-95000000D02*
X20200000Y-98000000D01*
X20200000Y-101275736D02*
X20200000Y-101700000D01*
X30225011Y-60700001D02*
X30525010Y-61000000D01*
X29974990Y-60449980D02*
X30225011Y-60700001D01*
X29974990Y-59364883D02*
X29974990Y-60449980D01*
X26599990Y-26509630D02*
X24090360Y-24000000D01*
X24090360Y-24000000D02*
X17000000Y-24000000D01*
X17000000Y-24000000D02*
X16324999Y-24675001D01*
X16324999Y-24675001D02*
X16000000Y-25000000D01*
D31*
G36*
X32587661Y-995984D02*
X32126585Y-1686032D01*
X31964677Y-2500000D01*
X32126585Y-3313968D01*
X32587661Y-4004016D01*
X33277709Y-4465092D01*
X34091677Y-4627000D01*
X35908323Y-4627000D01*
X36722291Y-4465092D01*
X37412339Y-4004016D01*
X37873415Y-3313968D01*
X38035323Y-2500000D01*
X37873415Y-1686032D01*
X37412339Y-995984D01*
X37084607Y-777000D01*
X39223000Y-777000D01*
X39223000Y-8723000D01*
X38000000Y-8723000D01*
X37924942Y-8737930D01*
X37848415Y-8737930D01*
X37465733Y-8814050D01*
X37465732Y-8814050D01*
X37185639Y-8930068D01*
X36861215Y-9146841D01*
X36827892Y-9180164D01*
X36800000Y-9180164D01*
X36750590Y-9190170D01*
X36708965Y-9218611D01*
X36681685Y-9261005D01*
X36673000Y-9307164D01*
X36673000Y-9335056D01*
X36646841Y-9361215D01*
X36430068Y-9685639D01*
X36314050Y-9965732D01*
X36314050Y-9965733D01*
X36237930Y-10348416D01*
X36237930Y-10424942D01*
X36223000Y-10500000D01*
X36223000Y-18000000D01*
X36237930Y-18075058D01*
X36237930Y-18151584D01*
X36314050Y-18534267D01*
X36314050Y-18534268D01*
X36430068Y-18814361D01*
X36646841Y-19138785D01*
X36861215Y-19353159D01*
X37185639Y-19569932D01*
X37465732Y-19685950D01*
X37465733Y-19685950D01*
X37848415Y-19762070D01*
X37924942Y-19762070D01*
X38000000Y-19777000D01*
X39223000Y-19777000D01*
X39223000Y-33212676D01*
X36300000Y-33212676D01*
X36104706Y-33249423D01*
X35925340Y-33364842D01*
X35805010Y-33540951D01*
X35762676Y-33750000D01*
X35762676Y-36250000D01*
X35776412Y-36323000D01*
X35695173Y-36323000D01*
X35501479Y-36403231D01*
X35353231Y-36551478D01*
X35273000Y-36745173D01*
X35273000Y-37195250D01*
X35404750Y-37327000D01*
X36827000Y-37327000D01*
X36827000Y-37307000D01*
X37173000Y-37307000D01*
X37173000Y-37327000D01*
X38595250Y-37327000D01*
X38727000Y-37195250D01*
X38727000Y-36787324D01*
X39223000Y-36787324D01*
X39223000Y-41033675D01*
X39001696Y-40811983D01*
X38697848Y-40685815D01*
X38368847Y-40685528D01*
X38064780Y-40811166D01*
X38015188Y-40860671D01*
X37182739Y-40860671D01*
X36452062Y-40129994D01*
X36452148Y-40031270D01*
X36322712Y-39718011D01*
X36083250Y-39478130D01*
X35770217Y-39348148D01*
X35431270Y-39347852D01*
X35118011Y-39477288D01*
X34878130Y-39716750D01*
X34748148Y-40029783D01*
X34747852Y-40368730D01*
X34877288Y-40681989D01*
X35116750Y-40921870D01*
X35429783Y-41051852D01*
X35529871Y-41051939D01*
X35792095Y-41314163D01*
X35604706Y-41349423D01*
X35425340Y-41464842D01*
X35305010Y-41640951D01*
X35262676Y-41850000D01*
X35262676Y-43150000D01*
X35299423Y-43345294D01*
X35414842Y-43524660D01*
X35590951Y-43644990D01*
X35776339Y-43682532D01*
X35762676Y-43750000D01*
X35762676Y-46250000D01*
X35799423Y-46445294D01*
X35914842Y-46624660D01*
X36090951Y-46744990D01*
X36300000Y-46787324D01*
X39223000Y-46787324D01*
X39223000Y-52223000D01*
X35500000Y-52223000D01*
X35424942Y-52237930D01*
X35348415Y-52237930D01*
X34965733Y-52314050D01*
X34965732Y-52314050D01*
X34685639Y-52430068D01*
X34361215Y-52646841D01*
X34327892Y-52680164D01*
X34300000Y-52680164D01*
X34250590Y-52690170D01*
X34208965Y-52718611D01*
X34181685Y-52761005D01*
X34173000Y-52807164D01*
X34173000Y-52835056D01*
X34146841Y-52861215D01*
X33930068Y-53185639D01*
X33814050Y-53465732D01*
X33814050Y-53465733D01*
X33737930Y-53848416D01*
X33737930Y-53924942D01*
X33723000Y-54000000D01*
X33723000Y-67000000D01*
X33737930Y-67075058D01*
X33737930Y-67151584D01*
X33814050Y-67534267D01*
X33814050Y-67534268D01*
X33930068Y-67814361D01*
X34146841Y-68138785D01*
X34173000Y-68164944D01*
X34173000Y-68207164D01*
X34183006Y-68256574D01*
X34211447Y-68298199D01*
X34253841Y-68325479D01*
X34300000Y-68334164D01*
X34342220Y-68334164D01*
X34361215Y-68353159D01*
X34685639Y-68569932D01*
X34965732Y-68685950D01*
X34965733Y-68685950D01*
X35348415Y-68762070D01*
X35424942Y-68762070D01*
X35500000Y-68777000D01*
X39223000Y-68777000D01*
X39223000Y-107223000D01*
X36751542Y-107223000D01*
X36811813Y-106920000D01*
X36714607Y-106431313D01*
X36437788Y-106017025D01*
X36023500Y-105740206D01*
X35534813Y-105643000D01*
X34465187Y-105643000D01*
X33976500Y-105740206D01*
X33562212Y-106017025D01*
X33285393Y-106431313D01*
X33188187Y-106920000D01*
X33248458Y-107223000D01*
X26751542Y-107223000D01*
X26811813Y-106920000D01*
X26714607Y-106431313D01*
X26437788Y-106017025D01*
X26023500Y-105740206D01*
X25534813Y-105643000D01*
X24465187Y-105643000D01*
X23976500Y-105740206D01*
X23562212Y-106017025D01*
X23285393Y-106431313D01*
X23188187Y-106920000D01*
X23248458Y-107223000D01*
X16751542Y-107223000D01*
X16811813Y-106920000D01*
X16714607Y-106431313D01*
X16437788Y-106017025D01*
X16023500Y-105740206D01*
X15534813Y-105643000D01*
X14465187Y-105643000D01*
X13976500Y-105740206D01*
X13562212Y-106017025D01*
X13285393Y-106431313D01*
X13188187Y-106920000D01*
X13248458Y-107223000D01*
X6751542Y-107223000D01*
X6811813Y-106920000D01*
X6714607Y-106431313D01*
X6437788Y-106017025D01*
X6023500Y-105740206D01*
X5534813Y-105643000D01*
X4465187Y-105643000D01*
X3976500Y-105740206D01*
X3562212Y-106017025D01*
X3285393Y-106431313D01*
X3188187Y-106920000D01*
X3248458Y-107223000D01*
X777000Y-107223000D01*
X777000Y-98620000D01*
X3188187Y-98620000D01*
X3289199Y-99127821D01*
X3576856Y-99558331D01*
X4007366Y-99845988D01*
X4515187Y-99947000D01*
X5484813Y-99947000D01*
X5992634Y-99845988D01*
X6423144Y-99558331D01*
X6710801Y-99127821D01*
X6811813Y-98620000D01*
X6710801Y-98112179D01*
X6423144Y-97681669D01*
X5992634Y-97394012D01*
X5976118Y-97390727D01*
X6067652Y-97359784D01*
X6460660Y-97016001D01*
X6672414Y-96576687D01*
X6582664Y-96373000D01*
X5173000Y-96373000D01*
X5173000Y-96393000D01*
X4827000Y-96393000D01*
X4827000Y-96373000D01*
X3417336Y-96373000D01*
X3327586Y-96576687D01*
X3539340Y-97016001D01*
X3932348Y-97359784D01*
X4023882Y-97390727D01*
X4007366Y-97394012D01*
X3576856Y-97681669D01*
X3289199Y-98112179D01*
X3188187Y-98620000D01*
X777000Y-98620000D01*
X777000Y-93920000D01*
X3188187Y-93920000D01*
X3285393Y-94408687D01*
X3562212Y-94822975D01*
X3912855Y-95057268D01*
X3539340Y-95383999D01*
X3327586Y-95823313D01*
X3417336Y-96027000D01*
X4827000Y-96027000D01*
X4827000Y-96007000D01*
X5173000Y-96007000D01*
X5173000Y-96027000D01*
X6582664Y-96027000D01*
X6672414Y-95823313D01*
X6460660Y-95383999D01*
X6087145Y-95057268D01*
X6437788Y-94822975D01*
X6714607Y-94408687D01*
X6811813Y-93920000D01*
X6714607Y-93431313D01*
X6437788Y-93017025D01*
X6023500Y-92740206D01*
X5534813Y-92643000D01*
X4465187Y-92643000D01*
X3976500Y-92740206D01*
X3562212Y-93017025D01*
X3285393Y-93431313D01*
X3188187Y-93920000D01*
X777000Y-93920000D01*
X777000Y-85620000D01*
X3188187Y-85620000D01*
X3289199Y-86127821D01*
X3576856Y-86558331D01*
X4007366Y-86845988D01*
X4515187Y-86947000D01*
X5484813Y-86947000D01*
X5992634Y-86845988D01*
X6423144Y-86558331D01*
X6710801Y-86127821D01*
X6811813Y-85620000D01*
X6710801Y-85112179D01*
X6423144Y-84681669D01*
X5992634Y-84394012D01*
X5976118Y-84390727D01*
X6067652Y-84359784D01*
X6460660Y-84016001D01*
X6672414Y-83576687D01*
X6582664Y-83373000D01*
X5173000Y-83373000D01*
X5173000Y-83393000D01*
X4827000Y-83393000D01*
X4827000Y-83373000D01*
X3417336Y-83373000D01*
X3327586Y-83576687D01*
X3539340Y-84016001D01*
X3932348Y-84359784D01*
X4023882Y-84390727D01*
X4007366Y-84394012D01*
X3576856Y-84681669D01*
X3289199Y-85112179D01*
X3188187Y-85620000D01*
X777000Y-85620000D01*
X777000Y-75420732D01*
X4999268Y-79643000D01*
X4465187Y-79643000D01*
X3976500Y-79740206D01*
X3562212Y-80017025D01*
X3285393Y-80431313D01*
X3188187Y-80920000D01*
X3285393Y-81408687D01*
X3562212Y-81822975D01*
X3912855Y-82057268D01*
X3539340Y-82383999D01*
X3327586Y-82823313D01*
X3417336Y-83027000D01*
X4827000Y-83027000D01*
X4827000Y-83007000D01*
X5173000Y-83007000D01*
X5173000Y-83027000D01*
X6582664Y-83027000D01*
X6672414Y-82823313D01*
X6460660Y-82383999D01*
X6087145Y-82057268D01*
X6437788Y-81822975D01*
X6714607Y-81408687D01*
X6722960Y-81366692D01*
X12704184Y-87347916D01*
X12631270Y-87347852D01*
X12318011Y-87477288D01*
X12078130Y-87716750D01*
X11948148Y-88029783D01*
X11947852Y-88368730D01*
X12077288Y-88681989D01*
X12304797Y-88909896D01*
X12338966Y-88961034D01*
X15947938Y-92570005D01*
X15947852Y-92668730D01*
X15973256Y-92730212D01*
X15534813Y-92643000D01*
X14465187Y-92643000D01*
X13976500Y-92740206D01*
X13562212Y-93017025D01*
X13285393Y-93431313D01*
X13188187Y-93920000D01*
X13285393Y-94408687D01*
X13562212Y-94822975D01*
X13912855Y-95057268D01*
X13539340Y-95383999D01*
X13327586Y-95823313D01*
X13417336Y-96027000D01*
X14827000Y-96027000D01*
X14827000Y-96007000D01*
X15173000Y-96007000D01*
X15173000Y-96027000D01*
X16582664Y-96027000D01*
X16672414Y-95823313D01*
X16460660Y-95383999D01*
X16087145Y-95057268D01*
X16437788Y-94822975D01*
X16605485Y-94572000D01*
X17905932Y-94572000D01*
X17738966Y-94738966D01*
X17597631Y-94950490D01*
X17597631Y-94950491D01*
X17547999Y-95200000D01*
X17548000Y-95200005D01*
X17548000Y-98542993D01*
X17483250Y-98478130D01*
X17170217Y-98348148D01*
X16831270Y-98347852D01*
X16763268Y-98375950D01*
X16710801Y-98112179D01*
X16423144Y-97681669D01*
X15992634Y-97394012D01*
X15976118Y-97390727D01*
X16067652Y-97359784D01*
X16460660Y-97016001D01*
X16672414Y-96576687D01*
X16582664Y-96373000D01*
X15173000Y-96373000D01*
X15173000Y-96393000D01*
X14827000Y-96393000D01*
X14827000Y-96373000D01*
X13417336Y-96373000D01*
X13327586Y-96576687D01*
X13539340Y-97016001D01*
X13932348Y-97359784D01*
X14023882Y-97390727D01*
X14007366Y-97394012D01*
X13576856Y-97681669D01*
X13289199Y-98112179D01*
X13188187Y-98620000D01*
X13289199Y-99127821D01*
X13576856Y-99558331D01*
X14007366Y-99845988D01*
X14515187Y-99947000D01*
X15484813Y-99947000D01*
X15992634Y-99845988D01*
X16268804Y-99661457D01*
X16277288Y-99681989D01*
X16348000Y-99752825D01*
X16348000Y-101174880D01*
X14529994Y-102992885D01*
X14431270Y-102992799D01*
X14118011Y-103122235D01*
X13878130Y-103361697D01*
X13748148Y-103674730D01*
X13747852Y-104013677D01*
X13877288Y-104326936D01*
X14116750Y-104566817D01*
X14429783Y-104696799D01*
X14768730Y-104697095D01*
X15081989Y-104567659D01*
X15321870Y-104328197D01*
X15451852Y-104015164D01*
X15451939Y-103915076D01*
X15547983Y-103819032D01*
X15547852Y-103968730D01*
X15677288Y-104281989D01*
X15916750Y-104521870D01*
X16229783Y-104651852D01*
X16375076Y-104651979D01*
X16450490Y-104702369D01*
X16699999Y-104752000D01*
X16700004Y-104751999D01*
X23199996Y-104751999D01*
X23200001Y-104752000D01*
X23408114Y-104710603D01*
X23449511Y-104702368D01*
X23661035Y-104561033D01*
X23670006Y-104552062D01*
X23768730Y-104552148D01*
X24081989Y-104422712D01*
X24321870Y-104183250D01*
X24437578Y-103904592D01*
X24447938Y-103914952D01*
X24447852Y-104013677D01*
X24577288Y-104326936D01*
X24816750Y-104566817D01*
X25129783Y-104696799D01*
X25468730Y-104697095D01*
X25781989Y-104567659D01*
X26021870Y-104328197D01*
X26151852Y-104015164D01*
X26152148Y-103676217D01*
X26022712Y-103362958D01*
X25783250Y-103123077D01*
X25470217Y-102993095D01*
X25370128Y-102993008D01*
X23552000Y-101174879D01*
X23552000Y-99752998D01*
X23621870Y-99683250D01*
X23652698Y-99609007D01*
X24007366Y-99845988D01*
X24515187Y-99947000D01*
X25484813Y-99947000D01*
X25992634Y-99845988D01*
X26423144Y-99558331D01*
X26710801Y-99127821D01*
X26811813Y-98620000D01*
X33188187Y-98620000D01*
X33289199Y-99127821D01*
X33576856Y-99558331D01*
X34007366Y-99845988D01*
X34515187Y-99947000D01*
X35484813Y-99947000D01*
X35992634Y-99845988D01*
X36423144Y-99558331D01*
X36710801Y-99127821D01*
X36811813Y-98620000D01*
X36710801Y-98112179D01*
X36423144Y-97681669D01*
X35992634Y-97394012D01*
X35976118Y-97390727D01*
X36067652Y-97359784D01*
X36460660Y-97016001D01*
X36672414Y-96576687D01*
X36582664Y-96373000D01*
X35173000Y-96373000D01*
X35173000Y-96393000D01*
X34827000Y-96393000D01*
X34827000Y-96373000D01*
X33417336Y-96373000D01*
X33327586Y-96576687D01*
X33539340Y-97016001D01*
X33932348Y-97359784D01*
X34023882Y-97390727D01*
X34007366Y-97394012D01*
X33576856Y-97681669D01*
X33289199Y-98112179D01*
X33188187Y-98620000D01*
X26811813Y-98620000D01*
X26710801Y-98112179D01*
X26423144Y-97681669D01*
X25992634Y-97394012D01*
X25976118Y-97390727D01*
X26067652Y-97359784D01*
X26460660Y-97016001D01*
X26672414Y-96576687D01*
X26582664Y-96373000D01*
X25173000Y-96373000D01*
X25173000Y-96393000D01*
X24827000Y-96393000D01*
X24827000Y-96373000D01*
X23417336Y-96373000D01*
X23327586Y-96576687D01*
X23539340Y-97016001D01*
X23932348Y-97359784D01*
X24023882Y-97390727D01*
X24007366Y-97394012D01*
X23576856Y-97681669D01*
X23289199Y-98112179D01*
X23229136Y-98414137D01*
X23070217Y-98348148D01*
X22731270Y-98347852D01*
X22418011Y-98477288D01*
X22178130Y-98716750D01*
X22048148Y-99029783D01*
X22047852Y-99368730D01*
X22177288Y-99681989D01*
X22248000Y-99752825D01*
X22248000Y-101444942D01*
X22247999Y-101444947D01*
X22289396Y-101653060D01*
X22297631Y-101694457D01*
X22418115Y-101874775D01*
X22438966Y-101905981D01*
X23395583Y-102862598D01*
X23118011Y-102977288D01*
X22878130Y-103216750D01*
X22782108Y-103447999D01*
X21256833Y-103447999D01*
X21421870Y-103283250D01*
X21551852Y-102970217D01*
X21552148Y-102631270D01*
X21422712Y-102318011D01*
X21183250Y-102078130D01*
X20997540Y-102001017D01*
X21051852Y-101870217D01*
X21052148Y-101531270D01*
X20922712Y-101218011D01*
X20852000Y-101147175D01*
X20852000Y-98270068D01*
X23354415Y-95767652D01*
X23327586Y-95823313D01*
X23417336Y-96027000D01*
X24827000Y-96027000D01*
X24827000Y-96007000D01*
X25173000Y-96007000D01*
X25173000Y-96027000D01*
X26582664Y-96027000D01*
X26672414Y-95823313D01*
X26589839Y-95652000D01*
X33399995Y-95652000D01*
X33400000Y-95652001D01*
X33411238Y-95649766D01*
X33327586Y-95823313D01*
X33417336Y-96027000D01*
X34827000Y-96027000D01*
X34827000Y-96007000D01*
X35173000Y-96007000D01*
X35173000Y-96027000D01*
X36582664Y-96027000D01*
X36672414Y-95823313D01*
X36460660Y-95383999D01*
X36087145Y-95057268D01*
X36437788Y-94822975D01*
X36714607Y-94408687D01*
X36811813Y-93920000D01*
X36714607Y-93431313D01*
X36437788Y-93017025D01*
X36023500Y-92740206D01*
X35534813Y-92643000D01*
X34465187Y-92643000D01*
X33976500Y-92740206D01*
X33562212Y-93017025D01*
X33285393Y-93431313D01*
X33188187Y-93920000D01*
X33249532Y-94228401D01*
X33129932Y-94348000D01*
X26726678Y-94348000D01*
X26811813Y-93920000D01*
X26714607Y-93431313D01*
X26437788Y-93017025D01*
X26023500Y-92740206D01*
X25534813Y-92643000D01*
X24465187Y-92643000D01*
X24051891Y-92725210D01*
X24051939Y-92670128D01*
X27661031Y-89061036D01*
X27661034Y-89061034D01*
X27802369Y-88849510D01*
X27838846Y-88666129D01*
X27921870Y-88583250D01*
X28051852Y-88270217D01*
X28052148Y-87931270D01*
X27922712Y-87618011D01*
X27683250Y-87378130D01*
X27370217Y-87248148D01*
X27031270Y-87247852D01*
X26718011Y-87377288D01*
X26478130Y-87616750D01*
X26348148Y-87929783D01*
X26347852Y-88268730D01*
X26424266Y-88453667D01*
X23129994Y-91747938D01*
X23031270Y-91747852D01*
X22718011Y-91877288D01*
X22478130Y-92116750D01*
X22348148Y-92429783D01*
X22347852Y-92768730D01*
X22477288Y-93081989D01*
X22716750Y-93321870D01*
X23029783Y-93451852D01*
X23049587Y-93451869D01*
X23038966Y-93458966D01*
X23038964Y-93458969D01*
X19038966Y-97458966D01*
X18897631Y-97670490D01*
X18897631Y-97670491D01*
X18852000Y-97899886D01*
X18852000Y-95470068D01*
X21361031Y-92961036D01*
X21361034Y-92961034D01*
X21502369Y-92749510D01*
X21502370Y-92749509D01*
X21552001Y-92500000D01*
X21552000Y-92499995D01*
X21552000Y-90400000D01*
X21502369Y-90150490D01*
X21361034Y-89938966D01*
X21361031Y-89938964D01*
X20174068Y-88752000D01*
X21247002Y-88752000D01*
X21316750Y-88821870D01*
X21629783Y-88951852D01*
X21968730Y-88952148D01*
X22281989Y-88822712D01*
X22521870Y-88583250D01*
X22651852Y-88270217D01*
X22652148Y-87931270D01*
X22619394Y-87852000D01*
X22729932Y-87852000D01*
X22772917Y-87894985D01*
X22772857Y-87963779D01*
X22898495Y-88267846D01*
X23130930Y-88500688D01*
X23434778Y-88626856D01*
X23763779Y-88627143D01*
X24067846Y-88501505D01*
X24300688Y-88269070D01*
X24426856Y-87965222D01*
X24427143Y-87636221D01*
X24301505Y-87332154D01*
X24069070Y-87099312D01*
X23765222Y-86973144D01*
X23695151Y-86973083D01*
X23461034Y-86738966D01*
X23249510Y-86597631D01*
X23208113Y-86589396D01*
X23000000Y-86547999D01*
X22999995Y-86548000D01*
X18100000Y-86548000D01*
X17850490Y-86597631D01*
X17638966Y-86738966D01*
X17638964Y-86738969D01*
X17238966Y-87138966D01*
X17097631Y-87350490D01*
X17097631Y-87350491D01*
X17047999Y-87600000D01*
X17048000Y-87600005D01*
X17048000Y-88299995D01*
X17047999Y-88300000D01*
X17072864Y-88424999D01*
X17097631Y-88549510D01*
X17181152Y-88674508D01*
X17238966Y-88761034D01*
X18825923Y-90347990D01*
X18609053Y-90347990D01*
X15208063Y-86947000D01*
X15484813Y-86947000D01*
X15992634Y-86845988D01*
X16423144Y-86558331D01*
X16710801Y-86127821D01*
X16811813Y-85620000D01*
X23188187Y-85620000D01*
X23289199Y-86127821D01*
X23576856Y-86558331D01*
X24007366Y-86845988D01*
X24515187Y-86947000D01*
X25484813Y-86947000D01*
X25992634Y-86845988D01*
X26423144Y-86558331D01*
X26710801Y-86127821D01*
X26811813Y-85620000D01*
X33188187Y-85620000D01*
X33289199Y-86127821D01*
X33576856Y-86558331D01*
X34007366Y-86845988D01*
X34515187Y-86947000D01*
X35484813Y-86947000D01*
X35992634Y-86845988D01*
X36423144Y-86558331D01*
X36710801Y-86127821D01*
X36811813Y-85620000D01*
X36710801Y-85112179D01*
X36423144Y-84681669D01*
X35992634Y-84394012D01*
X35976118Y-84390727D01*
X36067652Y-84359784D01*
X36460660Y-84016001D01*
X36672414Y-83576687D01*
X36582664Y-83373000D01*
X35173000Y-83373000D01*
X35173000Y-83393000D01*
X34827000Y-83393000D01*
X34827000Y-83373000D01*
X33417336Y-83373000D01*
X33327586Y-83576687D01*
X33539340Y-84016001D01*
X33932348Y-84359784D01*
X34023882Y-84390727D01*
X34007366Y-84394012D01*
X33576856Y-84681669D01*
X33289199Y-85112179D01*
X33188187Y-85620000D01*
X26811813Y-85620000D01*
X26710801Y-85112179D01*
X26423144Y-84681669D01*
X25992634Y-84394012D01*
X25976118Y-84390727D01*
X26067652Y-84359784D01*
X26460660Y-84016001D01*
X26672414Y-83576687D01*
X26582664Y-83373000D01*
X25173000Y-83373000D01*
X25173000Y-83393000D01*
X24827000Y-83393000D01*
X24827000Y-83373000D01*
X23417336Y-83373000D01*
X23327586Y-83576687D01*
X23539340Y-84016001D01*
X23932348Y-84359784D01*
X24023882Y-84390727D01*
X24007366Y-84394012D01*
X23576856Y-84681669D01*
X23289199Y-85112179D01*
X23188187Y-85620000D01*
X16811813Y-85620000D01*
X16710801Y-85112179D01*
X16423144Y-84681669D01*
X15992634Y-84394012D01*
X15976118Y-84390727D01*
X16067652Y-84359784D01*
X16460660Y-84016001D01*
X16672414Y-83576687D01*
X16582664Y-83373000D01*
X15173000Y-83373000D01*
X15173000Y-83393000D01*
X14827000Y-83393000D01*
X14827000Y-83373000D01*
X13417336Y-83373000D01*
X13327586Y-83576687D01*
X13539340Y-84016001D01*
X13932348Y-84359784D01*
X14023882Y-84390727D01*
X14007366Y-84394012D01*
X13576856Y-84681669D01*
X13322862Y-85061799D01*
X9181064Y-80920000D01*
X13188187Y-80920000D01*
X13285393Y-81408687D01*
X13562212Y-81822975D01*
X13912855Y-82057268D01*
X13539340Y-82383999D01*
X13327586Y-82823313D01*
X13417336Y-83027000D01*
X14827000Y-83027000D01*
X14827000Y-83007000D01*
X15173000Y-83007000D01*
X15173000Y-83027000D01*
X16582664Y-83027000D01*
X16672414Y-82823313D01*
X16460660Y-82383999D01*
X16087145Y-82057268D01*
X16437788Y-81822975D01*
X16714607Y-81408687D01*
X16811813Y-80920000D01*
X23188187Y-80920000D01*
X23285393Y-81408687D01*
X23562212Y-81822975D01*
X23912855Y-82057268D01*
X23539340Y-82383999D01*
X23327586Y-82823313D01*
X23417336Y-83027000D01*
X24827000Y-83027000D01*
X24827000Y-83007000D01*
X25173000Y-83007000D01*
X25173000Y-83027000D01*
X26582664Y-83027000D01*
X26672414Y-82823313D01*
X26460660Y-82383999D01*
X26087145Y-82057268D01*
X26437788Y-81822975D01*
X26714607Y-81408687D01*
X26811813Y-80920000D01*
X26714607Y-80431313D01*
X26437788Y-80017025D01*
X26023500Y-79740206D01*
X25534813Y-79643000D01*
X24465187Y-79643000D01*
X23976500Y-79740206D01*
X23562212Y-80017025D01*
X23285393Y-80431313D01*
X23188187Y-80920000D01*
X16811813Y-80920000D01*
X16714607Y-80431313D01*
X16437788Y-80017025D01*
X16023500Y-79740206D01*
X15534813Y-79643000D01*
X14465187Y-79643000D01*
X13976500Y-79740206D01*
X13562212Y-80017025D01*
X13285393Y-80431313D01*
X13188187Y-80920000D01*
X9181064Y-80920000D01*
X6529794Y-78268730D01*
X25147852Y-78268730D01*
X25277288Y-78581989D01*
X25516750Y-78821870D01*
X25829783Y-78951852D01*
X26168730Y-78952148D01*
X26481989Y-78822712D01*
X26721870Y-78583250D01*
X26851852Y-78270217D01*
X26851992Y-78110457D01*
X32057627Y-72904821D01*
X32057627Y-75809622D01*
X32057626Y-75809627D01*
X32099023Y-76017740D01*
X32107258Y-76059137D01*
X32248593Y-76270661D01*
X34947938Y-78970005D01*
X34947852Y-79068730D01*
X35077288Y-79381989D01*
X35316750Y-79621870D01*
X35367637Y-79643000D01*
X34465187Y-79643000D01*
X33976500Y-79740206D01*
X33562212Y-80017025D01*
X33285393Y-80431313D01*
X33188187Y-80920000D01*
X33285393Y-81408687D01*
X33562212Y-81822975D01*
X33912855Y-82057268D01*
X33539340Y-82383999D01*
X33327586Y-82823313D01*
X33417336Y-83027000D01*
X34827000Y-83027000D01*
X34827000Y-83007000D01*
X35173000Y-83007000D01*
X35173000Y-83027000D01*
X36582664Y-83027000D01*
X36672414Y-82823313D01*
X36460660Y-82383999D01*
X36087145Y-82057268D01*
X36437788Y-81822975D01*
X36714607Y-81408687D01*
X36811813Y-80920000D01*
X36714607Y-80431313D01*
X36437788Y-80017025D01*
X36023500Y-79740206D01*
X36006038Y-79736733D01*
X36281989Y-79622712D01*
X36521870Y-79383250D01*
X36651852Y-79070217D01*
X36652148Y-78731270D01*
X36522712Y-78418011D01*
X36283250Y-78178130D01*
X35970217Y-78048148D01*
X35870128Y-78048061D01*
X33361627Y-75539559D01*
X33361627Y-73236217D01*
X33576856Y-73558331D01*
X34007366Y-73845988D01*
X34515187Y-73947000D01*
X35484813Y-73947000D01*
X35992634Y-73845988D01*
X36423144Y-73558331D01*
X36710801Y-73127821D01*
X36811813Y-72620000D01*
X36710801Y-72112179D01*
X36423144Y-71681669D01*
X35992634Y-71394012D01*
X35976118Y-71390727D01*
X36067652Y-71359784D01*
X36460660Y-71016001D01*
X36672414Y-70576687D01*
X36582664Y-70373000D01*
X35173000Y-70373000D01*
X35173000Y-70393000D01*
X34827000Y-70393000D01*
X34827000Y-70373000D01*
X33417336Y-70373000D01*
X33382057Y-70453065D01*
X33370217Y-70448148D01*
X33031270Y-70447852D01*
X32718011Y-70577288D01*
X32623981Y-70671154D01*
X32490871Y-70697631D01*
X32279347Y-70838966D01*
X32279345Y-70838969D01*
X25870427Y-77247886D01*
X25831270Y-77247852D01*
X25518011Y-77377288D01*
X25278130Y-77616750D01*
X25148148Y-77929783D01*
X25147852Y-78268730D01*
X6529794Y-78268730D01*
X2027000Y-73765936D01*
X2027000Y-72620000D01*
X3188187Y-72620000D01*
X3289199Y-73127821D01*
X3576856Y-73558331D01*
X4007366Y-73845988D01*
X4515187Y-73947000D01*
X5484813Y-73947000D01*
X5992634Y-73845988D01*
X6423144Y-73558331D01*
X6710801Y-73127821D01*
X6811813Y-72620000D01*
X6710801Y-72112179D01*
X6423144Y-71681669D01*
X5992634Y-71394012D01*
X5976118Y-71390727D01*
X6067652Y-71359784D01*
X6460660Y-71016001D01*
X6672414Y-70576687D01*
X6582664Y-70373000D01*
X5173000Y-70373000D01*
X5173000Y-70393000D01*
X4827000Y-70393000D01*
X4827000Y-70373000D01*
X3417336Y-70373000D01*
X3327586Y-70576687D01*
X3539340Y-71016001D01*
X3932348Y-71359784D01*
X4023882Y-71390727D01*
X4007366Y-71394012D01*
X3576856Y-71681669D01*
X3289199Y-72112179D01*
X3188187Y-72620000D01*
X2027000Y-72620000D01*
X2027000Y-69823313D01*
X3327586Y-69823313D01*
X3417336Y-70027000D01*
X4827000Y-70027000D01*
X4827000Y-68873000D01*
X5173000Y-68873000D01*
X5173000Y-70027000D01*
X6582664Y-70027000D01*
X6672414Y-69823313D01*
X13327586Y-69823313D01*
X13417336Y-70027000D01*
X14827000Y-70027000D01*
X14827000Y-68873000D01*
X15173000Y-68873000D01*
X15173000Y-70027000D01*
X16582664Y-70027000D01*
X16672414Y-69823313D01*
X16460660Y-69383999D01*
X16067652Y-69040216D01*
X15573000Y-68873000D01*
X15173000Y-68873000D01*
X14827000Y-68873000D01*
X14427000Y-68873000D01*
X13932348Y-69040216D01*
X13539340Y-69383999D01*
X13327586Y-69823313D01*
X6672414Y-69823313D01*
X6460660Y-69383999D01*
X6067652Y-69040216D01*
X5573000Y-68873000D01*
X5173000Y-68873000D01*
X4827000Y-68873000D01*
X4427000Y-68873000D01*
X3932348Y-69040216D01*
X3539340Y-69383999D01*
X3327586Y-69823313D01*
X2027000Y-69823313D01*
X2027000Y-67554750D01*
X4498000Y-67554750D01*
X4498000Y-68104827D01*
X4578231Y-68298521D01*
X4726478Y-68446769D01*
X4920173Y-68527000D01*
X5720250Y-68527000D01*
X5852000Y-68395250D01*
X5852000Y-67423000D01*
X6198000Y-67423000D01*
X6198000Y-68395250D01*
X6329750Y-68527000D01*
X7129827Y-68527000D01*
X7323522Y-68446769D01*
X7471769Y-68298521D01*
X7552000Y-68104827D01*
X7552000Y-67554750D01*
X7420250Y-67423000D01*
X6198000Y-67423000D01*
X5852000Y-67423000D01*
X4629750Y-67423000D01*
X4498000Y-67554750D01*
X2027000Y-67554750D01*
X2027000Y-66395173D01*
X4498000Y-66395173D01*
X4498000Y-66945250D01*
X4629750Y-67077000D01*
X5852000Y-67077000D01*
X5852000Y-66104750D01*
X6198000Y-66104750D01*
X6198000Y-67077000D01*
X7420250Y-67077000D01*
X7552000Y-66945250D01*
X7552000Y-66395173D01*
X7471769Y-66201479D01*
X7323522Y-66053231D01*
X7129827Y-65973000D01*
X6329750Y-65973000D01*
X6198000Y-66104750D01*
X5852000Y-66104750D01*
X5720250Y-65973000D01*
X4920173Y-65973000D01*
X4726478Y-66053231D01*
X4578231Y-66201479D01*
X4498000Y-66395173D01*
X2027000Y-66395173D01*
X2027000Y-65400000D01*
X2027178Y-65196613D01*
X1871156Y-64819011D01*
X1777000Y-64724691D01*
X1777000Y-53663779D01*
X2922857Y-53663779D01*
X3048495Y-53967846D01*
X3280930Y-54200688D01*
X3584778Y-54326856D01*
X3654850Y-54326917D01*
X3848000Y-54520067D01*
X3848000Y-55566611D01*
X3681260Y-55566465D01*
X3368001Y-55695901D01*
X3128120Y-55935363D01*
X2998138Y-56248396D01*
X2997842Y-56587343D01*
X3072990Y-56769215D01*
X3072990Y-63349990D01*
X3132136Y-63647335D01*
X3300568Y-63899412D01*
X4150578Y-64749422D01*
X4402655Y-64917854D01*
X4700000Y-64977000D01*
X6849518Y-64977000D01*
X7029783Y-65051852D01*
X7368730Y-65052148D01*
X7681989Y-64922712D01*
X7921870Y-64683250D01*
X8051852Y-64370217D01*
X8052148Y-64031270D01*
X7922712Y-63718011D01*
X7683250Y-63478130D01*
X7562324Y-63427917D01*
X7562324Y-62000000D01*
X7525577Y-61804706D01*
X7410158Y-61625340D01*
X7234049Y-61505010D01*
X7025000Y-61462676D01*
X5152000Y-61462676D01*
X5152000Y-59500000D01*
X7573000Y-59500000D01*
X7689236Y-60084357D01*
X8020248Y-60579752D01*
X8673000Y-61232504D01*
X8673000Y-63900000D01*
X8789236Y-64484358D01*
X9082135Y-64922712D01*
X9120248Y-64979752D01*
X10520230Y-66379734D01*
X11015625Y-66710747D01*
X11599982Y-66826982D01*
X12437676Y-66826982D01*
X12437676Y-68000000D01*
X12474423Y-68195294D01*
X12589842Y-68374660D01*
X12765951Y-68494990D01*
X12975000Y-68537324D01*
X14975000Y-68537324D01*
X15170294Y-68500577D01*
X15349660Y-68385158D01*
X15469990Y-68209049D01*
X15512324Y-68000000D01*
X15512324Y-66826982D01*
X16200000Y-66826982D01*
X16784358Y-66710746D01*
X17279752Y-66379734D01*
X17610764Y-65884340D01*
X17727000Y-65299982D01*
X17610764Y-64715624D01*
X17279752Y-64220230D01*
X16784358Y-63889218D01*
X16200000Y-63772982D01*
X15426306Y-63772982D01*
X15469990Y-63709049D01*
X15512324Y-63500000D01*
X15512324Y-62000000D01*
X15475577Y-61804706D01*
X15360158Y-61625340D01*
X15184049Y-61505010D01*
X14975000Y-61462676D01*
X13277000Y-61462676D01*
X13277000Y-60350478D01*
X13351852Y-60170213D01*
X13352148Y-59831266D01*
X13222712Y-59518007D01*
X12983250Y-59278126D01*
X12670217Y-59148144D01*
X12331270Y-59147848D01*
X12018011Y-59277284D01*
X11778130Y-59516746D01*
X11648148Y-59829779D01*
X11647852Y-60168726D01*
X11723000Y-60350598D01*
X11723000Y-60579891D01*
X11610764Y-60015642D01*
X11279752Y-59520248D01*
X10179752Y-58420248D01*
X9684357Y-58089236D01*
X9100000Y-57973000D01*
X8515643Y-58089236D01*
X8020248Y-58420248D01*
X7689236Y-58915643D01*
X7573000Y-59500000D01*
X5152000Y-59500000D01*
X5152000Y-56527000D01*
X5720250Y-56527000D01*
X5852000Y-56395250D01*
X5852000Y-55423000D01*
X6198000Y-55423000D01*
X6198000Y-56395250D01*
X6329750Y-56527000D01*
X7129827Y-56527000D01*
X7323522Y-56446769D01*
X7471769Y-56298521D01*
X7552000Y-56104827D01*
X7552000Y-55554750D01*
X7420250Y-55423000D01*
X6198000Y-55423000D01*
X5852000Y-55423000D01*
X5832000Y-55423000D01*
X5832000Y-55077000D01*
X5852000Y-55077000D01*
X5852000Y-54104750D01*
X6198000Y-54104750D01*
X6198000Y-55077000D01*
X7420250Y-55077000D01*
X7552000Y-54945250D01*
X7552000Y-54395173D01*
X7471769Y-54201479D01*
X7323522Y-54053231D01*
X7129827Y-53973000D01*
X6329750Y-53973000D01*
X6198000Y-54104750D01*
X5852000Y-54104750D01*
X5720250Y-53973000D01*
X5084001Y-53973000D01*
X4961034Y-53788966D01*
X4961031Y-53788964D01*
X4577083Y-53405015D01*
X4577143Y-53336221D01*
X4451505Y-53032154D01*
X4219070Y-52799312D01*
X3915222Y-52673144D01*
X3586221Y-52672857D01*
X3282154Y-52798495D01*
X3049312Y-53030930D01*
X2923144Y-53334778D01*
X2922857Y-53663779D01*
X1777000Y-53663779D01*
X1777000Y-50081846D01*
X1858846Y-50000000D01*
X4487676Y-50000000D01*
X4487676Y-51500000D01*
X4524423Y-51695294D01*
X4639842Y-51874660D01*
X4815951Y-51994990D01*
X5025000Y-52037324D01*
X7025000Y-52037324D01*
X7220294Y-52000577D01*
X7399660Y-51885158D01*
X7519990Y-51709049D01*
X7562324Y-51500000D01*
X7562324Y-50000000D01*
X7525577Y-49804706D01*
X7410158Y-49625340D01*
X7234049Y-49505010D01*
X7126927Y-49483317D01*
X7127143Y-49236221D01*
X7001505Y-48932154D01*
X6769070Y-48699312D01*
X6465222Y-48573144D01*
X6136221Y-48572857D01*
X5832154Y-48698495D01*
X5599312Y-48930930D01*
X5473144Y-49234778D01*
X5473043Y-49350042D01*
X5422631Y-49425490D01*
X5422631Y-49425491D01*
X5415234Y-49462676D01*
X5025000Y-49462676D01*
X4829706Y-49499423D01*
X4650340Y-49614842D01*
X4530010Y-49790951D01*
X4487676Y-50000000D01*
X1858846Y-50000000D01*
X4925311Y-46933535D01*
X5093743Y-46681458D01*
X5152889Y-46384113D01*
X5152889Y-44611938D01*
X5227741Y-44431673D01*
X5228037Y-44092726D01*
X5098601Y-43779467D01*
X4859139Y-43539586D01*
X4644733Y-43450558D01*
X4646769Y-43448522D01*
X4727000Y-43254827D01*
X4727000Y-42804750D01*
X4595250Y-42673000D01*
X3173000Y-42673000D01*
X3173000Y-42693000D01*
X2827000Y-42693000D01*
X2827000Y-42673000D01*
X1404750Y-42673000D01*
X1273000Y-42804750D01*
X1273000Y-43212676D01*
X777000Y-43212676D01*
X777000Y-41745173D01*
X1273000Y-41745173D01*
X1273000Y-42195250D01*
X1404750Y-42327000D01*
X2827000Y-42327000D01*
X2827000Y-41454750D01*
X3173000Y-41454750D01*
X3173000Y-42327000D01*
X4595250Y-42327000D01*
X4727000Y-42195250D01*
X4727000Y-41745173D01*
X4646769Y-41551478D01*
X4498521Y-41403231D01*
X4304827Y-41323000D01*
X3304750Y-41323000D01*
X3173000Y-41454750D01*
X2827000Y-41454750D01*
X2695250Y-41323000D01*
X1695173Y-41323000D01*
X1501479Y-41403231D01*
X1353231Y-41551478D01*
X1273000Y-41745173D01*
X777000Y-41745173D01*
X777000Y-39915824D01*
X798495Y-39967846D01*
X1030930Y-40200688D01*
X1334778Y-40326856D01*
X1663779Y-40327143D01*
X1967846Y-40201505D01*
X2200688Y-39969070D01*
X2326856Y-39665222D01*
X2327143Y-39336221D01*
X2201505Y-39032154D01*
X2152000Y-38982562D01*
X2152000Y-38720068D01*
X2184744Y-38687324D01*
X4200000Y-38687324D01*
X4395294Y-38650577D01*
X4574660Y-38535158D01*
X4694990Y-38359049D01*
X4737324Y-38150000D01*
X4737324Y-36850000D01*
X4700577Y-36654706D01*
X4585158Y-36475340D01*
X4409049Y-36355010D01*
X4223661Y-36317468D01*
X4237324Y-36250000D01*
X4237324Y-35251859D01*
X4568730Y-35252148D01*
X4881989Y-35122712D01*
X5121870Y-34883250D01*
X5251852Y-34570217D01*
X5252051Y-34342767D01*
X5465896Y-34129295D01*
X5592064Y-33825447D01*
X5592351Y-33496446D01*
X5466713Y-33192379D01*
X5452000Y-33177640D01*
X5452000Y-32270068D01*
X8570067Y-29152000D01*
X21000016Y-29152000D01*
X21000021Y-29152001D01*
X21208134Y-29110604D01*
X21249531Y-29102369D01*
X21461055Y-28961034D01*
X22570005Y-27852083D01*
X22668730Y-27852169D01*
X22981989Y-27722733D01*
X23221870Y-27483271D01*
X23350772Y-27172840D01*
X25348000Y-29170068D01*
X25348000Y-34482327D01*
X25299312Y-34530930D01*
X25173144Y-34834778D01*
X25172857Y-35163779D01*
X25298495Y-35467846D01*
X25530930Y-35700688D01*
X25834778Y-35826856D01*
X26163779Y-35827143D01*
X26348000Y-35751024D01*
X26348000Y-38779561D01*
X26339696Y-38774012D01*
X25831875Y-38673000D01*
X25168125Y-38673000D01*
X24660304Y-38774012D01*
X24306024Y-39010734D01*
X24198521Y-38903231D01*
X24004827Y-38823000D01*
X23004750Y-38823000D01*
X22873000Y-38954750D01*
X22873000Y-39827000D01*
X22893000Y-39827000D01*
X22893000Y-40173000D01*
X22873000Y-40173000D01*
X22873000Y-41045250D01*
X23004750Y-41177000D01*
X24004827Y-41177000D01*
X24198521Y-41096769D01*
X24306024Y-40989266D01*
X24660304Y-41225988D01*
X25168125Y-41327000D01*
X25500932Y-41327000D01*
X24979932Y-41848000D01*
X24436948Y-41848000D01*
X24400577Y-41654706D01*
X24285158Y-41475340D01*
X24109049Y-41355010D01*
X23900000Y-41312676D01*
X21777000Y-41312676D01*
X21777000Y-41177000D01*
X22395250Y-41177000D01*
X22527000Y-41045250D01*
X22527000Y-40173000D01*
X22507000Y-40173000D01*
X22507000Y-39827000D01*
X22527000Y-39827000D01*
X22527000Y-38954750D01*
X22395250Y-38823000D01*
X21395173Y-38823000D01*
X21201479Y-38903231D01*
X21153276Y-38951434D01*
X20777000Y-38575158D01*
X20777000Y-36787324D01*
X20975368Y-36787324D01*
X20962676Y-36850000D01*
X20962676Y-38150000D01*
X20999423Y-38345294D01*
X21114842Y-38524660D01*
X21290951Y-38644990D01*
X21500000Y-38687324D01*
X23900000Y-38687324D01*
X24095294Y-38650577D01*
X24274660Y-38535158D01*
X24394990Y-38359049D01*
X24437324Y-38150000D01*
X24437324Y-37567414D01*
X24717846Y-37451505D01*
X24950688Y-37219070D01*
X25076856Y-36915222D01*
X25077143Y-36586221D01*
X24951505Y-36282154D01*
X24719070Y-36049312D01*
X24415222Y-35923144D01*
X24237324Y-35922989D01*
X24237324Y-33750000D01*
X24200577Y-33554706D01*
X24085158Y-33375340D01*
X23909049Y-33255010D01*
X23700000Y-33212676D01*
X20851902Y-33212676D01*
X20852148Y-32931276D01*
X20722712Y-32618017D01*
X20483250Y-32378136D01*
X20170217Y-32248154D01*
X19831270Y-32247858D01*
X19518011Y-32377294D01*
X19278130Y-32616756D01*
X19148148Y-32929789D01*
X19147901Y-33212676D01*
X16300000Y-33212676D01*
X16104706Y-33249423D01*
X15925340Y-33364842D01*
X15852112Y-33472014D01*
X15852148Y-33431270D01*
X15722712Y-33118011D01*
X15483250Y-32878130D01*
X15170217Y-32748148D01*
X14831270Y-32747852D01*
X14518011Y-32877288D01*
X14278130Y-33116750D01*
X14148148Y-33429783D01*
X14147852Y-33768730D01*
X14277288Y-34081989D01*
X14348000Y-34152825D01*
X14348000Y-36099995D01*
X14347999Y-36100000D01*
X14383989Y-36280930D01*
X14397631Y-36349510D01*
X14490812Y-36488966D01*
X14538966Y-36561034D01*
X15562676Y-37584744D01*
X15562676Y-38150000D01*
X15599423Y-38345294D01*
X15714842Y-38524660D01*
X15890951Y-38644990D01*
X16100000Y-38687324D01*
X18500000Y-38687324D01*
X18695294Y-38650577D01*
X18874660Y-38535158D01*
X18994990Y-38359049D01*
X19037324Y-38150000D01*
X19037324Y-36850000D01*
X19025531Y-36787324D01*
X19223000Y-36787324D01*
X19223000Y-38897002D01*
X19282146Y-39194347D01*
X19450578Y-39446424D01*
X20223000Y-40218846D01*
X20223000Y-42118154D01*
X19940589Y-42400565D01*
X19940589Y-42038594D01*
X19940590Y-42038589D01*
X19890959Y-41789080D01*
X19749623Y-41577555D01*
X19211034Y-41038966D01*
X19156262Y-41002369D01*
X18999510Y-40897631D01*
X18970259Y-40891813D01*
X19027000Y-40754827D01*
X19027000Y-40304750D01*
X18895250Y-40173000D01*
X17473000Y-40173000D01*
X17473000Y-40193000D01*
X17127000Y-40193000D01*
X17127000Y-40173000D01*
X17107000Y-40173000D01*
X17107000Y-39827000D01*
X17127000Y-39827000D01*
X17127000Y-38954750D01*
X17473000Y-38954750D01*
X17473000Y-39827000D01*
X18895250Y-39827000D01*
X19027000Y-39695250D01*
X19027000Y-39245173D01*
X18946769Y-39051478D01*
X18798521Y-38903231D01*
X18604827Y-38823000D01*
X17604750Y-38823000D01*
X17473000Y-38954750D01*
X17127000Y-38954750D01*
X16995250Y-38823000D01*
X15995173Y-38823000D01*
X15801479Y-38903231D01*
X15693976Y-39010734D01*
X15339696Y-38774012D01*
X14831875Y-38673000D01*
X14168125Y-38673000D01*
X13660304Y-38774012D01*
X13229794Y-39061669D01*
X12952000Y-39477418D01*
X12952000Y-38000000D01*
X12902369Y-37750490D01*
X12761034Y-37538966D01*
X12761031Y-37538964D01*
X12252062Y-37029994D01*
X12252148Y-36931270D01*
X12197548Y-36799127D01*
X12374660Y-36685158D01*
X12494990Y-36509049D01*
X12537324Y-36300000D01*
X12537324Y-32300000D01*
X12500577Y-32104706D01*
X12385158Y-31925340D01*
X12209049Y-31805010D01*
X12000000Y-31762676D01*
X8000000Y-31762676D01*
X7804706Y-31799423D01*
X7735601Y-31843891D01*
X7565222Y-31773144D01*
X7236221Y-31772857D01*
X6932154Y-31898495D01*
X6699312Y-32130930D01*
X6573144Y-32434778D01*
X6573083Y-32504849D01*
X6338966Y-32738966D01*
X6197631Y-32950490D01*
X6193067Y-32973433D01*
X6147999Y-33200000D01*
X6148000Y-33200005D01*
X6148000Y-44329935D01*
X5738967Y-44738967D01*
X5597632Y-44950492D01*
X5548000Y-45200001D01*
X5597632Y-45449510D01*
X5672946Y-45562226D01*
X5672857Y-45663779D01*
X5798495Y-45967846D01*
X6030930Y-46200688D01*
X6334778Y-46326856D01*
X6663779Y-46327143D01*
X6950329Y-46208743D01*
X7234778Y-46326856D01*
X7462676Y-46327055D01*
X7462676Y-47700000D01*
X7499423Y-47895294D01*
X7614842Y-48074660D01*
X7790951Y-48194990D01*
X8000000Y-48237324D01*
X11163832Y-48237324D01*
X8450578Y-50950578D01*
X8282146Y-51202655D01*
X8223000Y-51500000D01*
X8223000Y-53000000D01*
X8282146Y-53297345D01*
X8450578Y-53549422D01*
X15248849Y-60347693D01*
X15298495Y-60467846D01*
X15530930Y-60700688D01*
X15834778Y-60826856D01*
X16163779Y-60827143D01*
X16467846Y-60701505D01*
X16700688Y-60469070D01*
X16826856Y-60165222D01*
X16827143Y-59836221D01*
X16701505Y-59532154D01*
X16469070Y-59299312D01*
X16347801Y-59248957D01*
X13636168Y-56537324D01*
X14975000Y-56537324D01*
X15170294Y-56500577D01*
X15349660Y-56385158D01*
X15469990Y-56209049D01*
X15512324Y-56000000D01*
X15512324Y-54570000D01*
X20842676Y-54570000D01*
X20842676Y-56270000D01*
X20879423Y-56465294D01*
X20994842Y-56644660D01*
X21170951Y-56764990D01*
X21380000Y-56807324D01*
X23080000Y-56807324D01*
X23275294Y-56770577D01*
X23454660Y-56655158D01*
X23574990Y-56479049D01*
X23617324Y-56270000D01*
X23617324Y-56166182D01*
X23769337Y-56393686D01*
X24216068Y-56692182D01*
X24743023Y-56797000D01*
X24796977Y-56797000D01*
X25323932Y-56692182D01*
X25770663Y-56393686D01*
X26069159Y-55946955D01*
X26173977Y-55420000D01*
X26069159Y-54893045D01*
X25770663Y-54446314D01*
X25323932Y-54147818D01*
X24796977Y-54043000D01*
X24743023Y-54043000D01*
X24216068Y-54147818D01*
X23769337Y-54446314D01*
X23617324Y-54673818D01*
X23617324Y-54570000D01*
X23580577Y-54374706D01*
X23465158Y-54195340D01*
X23289049Y-54075010D01*
X23080000Y-54032676D01*
X21380000Y-54032676D01*
X21184706Y-54069423D01*
X21005340Y-54184842D01*
X20885010Y-54360951D01*
X20842676Y-54570000D01*
X15512324Y-54570000D01*
X15512324Y-54500000D01*
X15475577Y-54304706D01*
X15360158Y-54125340D01*
X15184049Y-54005010D01*
X14975000Y-53962676D01*
X12975000Y-53962676D01*
X12779706Y-53999423D01*
X12600340Y-54114842D01*
X12480010Y-54290951D01*
X12437676Y-54500000D01*
X12437676Y-55338832D01*
X10575692Y-53476848D01*
X10992995Y-53477212D01*
X11444131Y-53290806D01*
X11457961Y-53277000D01*
X16650000Y-53277000D01*
X17043016Y-53198824D01*
X17376199Y-52976199D01*
X21925398Y-48427000D01*
X22149304Y-48427000D01*
X22148148Y-48429783D01*
X22147852Y-48768730D01*
X22277288Y-49081989D01*
X22516750Y-49321870D01*
X22829783Y-49451852D01*
X22929871Y-49451939D01*
X25333757Y-51855825D01*
X25333757Y-52461245D01*
X25263887Y-52530993D01*
X25133905Y-52844026D01*
X25133609Y-53182973D01*
X25263045Y-53496232D01*
X25502507Y-53736113D01*
X25815540Y-53866095D01*
X26154487Y-53866391D01*
X26467746Y-53736955D01*
X26707627Y-53497493D01*
X26837609Y-53184460D01*
X26837905Y-52845513D01*
X26708469Y-52532254D01*
X26637757Y-52461418D01*
X26637757Y-51585762D01*
X26637758Y-51585757D01*
X26588126Y-51336248D01*
X26588126Y-51336247D01*
X26446791Y-51124723D01*
X23852062Y-48529994D01*
X23852148Y-48431270D01*
X23850384Y-48427000D01*
X24350000Y-48427000D01*
X24743016Y-48348824D01*
X25076199Y-48126199D01*
X26748000Y-46454397D01*
X26748000Y-47899995D01*
X26747999Y-47900000D01*
X26782742Y-48074660D01*
X26797631Y-48149510D01*
X26930808Y-48348824D01*
X26938966Y-48361034D01*
X28598000Y-50020068D01*
X28598000Y-53979933D01*
X27679994Y-54897938D01*
X27581270Y-54897852D01*
X27268011Y-55027288D01*
X27028130Y-55266750D01*
X26898148Y-55579783D01*
X26897852Y-55918730D01*
X27027288Y-56231989D01*
X27266750Y-56471870D01*
X27271395Y-56473799D01*
X27248148Y-56529783D01*
X27247852Y-56868730D01*
X27377288Y-57181989D01*
X27616750Y-57421870D01*
X27929783Y-57551852D01*
X28199331Y-57552087D01*
X28199153Y-57755909D01*
X28328589Y-58069168D01*
X28460112Y-58200921D01*
X28448127Y-58229783D01*
X28447831Y-58568730D01*
X28577267Y-58881989D01*
X28816729Y-59121870D01*
X29129762Y-59251852D01*
X29148088Y-59251868D01*
X29147847Y-59528662D01*
X29273485Y-59832729D01*
X29322990Y-59882321D01*
X29322990Y-60449975D01*
X29322989Y-60449980D01*
X29342770Y-60549422D01*
X29372621Y-60699490D01*
X29457724Y-60826856D01*
X29513956Y-60911014D01*
X29697927Y-61094985D01*
X29697867Y-61163779D01*
X29823505Y-61467846D01*
X29948481Y-61593041D01*
X26138728Y-65402793D01*
X26069159Y-65053045D01*
X25770663Y-64606314D01*
X25323932Y-64307818D01*
X24796977Y-64203000D01*
X24743023Y-64203000D01*
X24216068Y-64307818D01*
X23769337Y-64606314D01*
X23500000Y-65009405D01*
X23230663Y-64606314D01*
X22783932Y-64307818D01*
X22256977Y-64203000D01*
X22203023Y-64203000D01*
X21676068Y-64307818D01*
X21229337Y-64606314D01*
X20930841Y-65053045D01*
X20826023Y-65580000D01*
X20930841Y-66106955D01*
X21229337Y-66553686D01*
X21676068Y-66852182D01*
X22203023Y-66957000D01*
X22256977Y-66957000D01*
X22783932Y-66852182D01*
X23230663Y-66553686D01*
X23500000Y-66150595D01*
X23769337Y-66553686D01*
X24216068Y-66852182D01*
X24610819Y-66930703D01*
X20438966Y-71102555D01*
X20297631Y-71314079D01*
X20290584Y-71349507D01*
X20247999Y-71563589D01*
X20248000Y-71563594D01*
X20248000Y-71947002D01*
X20178130Y-72016750D01*
X20048148Y-72329783D01*
X20047852Y-72668730D01*
X20080606Y-72748000D01*
X19870068Y-72748000D01*
X18156024Y-71033956D01*
X18047166Y-70961220D01*
X17944500Y-70892621D01*
X17903103Y-70884386D01*
X17694990Y-70842989D01*
X17694985Y-70842990D01*
X16544053Y-70842990D01*
X16672414Y-70576687D01*
X16582664Y-70373000D01*
X15173000Y-70373000D01*
X15173000Y-70393000D01*
X14827000Y-70393000D01*
X14827000Y-70373000D01*
X13417336Y-70373000D01*
X13327586Y-70576687D01*
X13455947Y-70842990D01*
X8147997Y-70842990D01*
X8083250Y-70778130D01*
X7770217Y-70648148D01*
X7431270Y-70647852D01*
X7118011Y-70777288D01*
X6878130Y-71016750D01*
X6748148Y-71329783D01*
X6747852Y-71668730D01*
X6877288Y-71981989D01*
X7116750Y-72221870D01*
X7429783Y-72351852D01*
X7768730Y-72352148D01*
X8081989Y-72222712D01*
X8157843Y-72146990D01*
X13282275Y-72146990D01*
X13188187Y-72620000D01*
X13289199Y-73127821D01*
X13576856Y-73558331D01*
X14007366Y-73845988D01*
X14515187Y-73947000D01*
X15484813Y-73947000D01*
X15992634Y-73845988D01*
X16423144Y-73558331D01*
X16710801Y-73127821D01*
X16811813Y-72620000D01*
X16717725Y-72146990D01*
X17424922Y-72146990D01*
X19138966Y-73861034D01*
X19350490Y-74002369D01*
X19391887Y-74010604D01*
X19600000Y-74052001D01*
X19600005Y-74052000D01*
X21111999Y-74052000D01*
X21112004Y-74052001D01*
X21320117Y-74010604D01*
X21361514Y-74002369D01*
X21573038Y-73861034D01*
X22461033Y-72973038D01*
X22461036Y-72973036D01*
X22582256Y-72791616D01*
X22602372Y-72761511D01*
X22652003Y-72512002D01*
X22652002Y-72511997D01*
X22652002Y-71370066D01*
X23365898Y-70656170D01*
X23539340Y-71016001D01*
X23932348Y-71359784D01*
X24023882Y-71390727D01*
X24007366Y-71394012D01*
X23576856Y-71681669D01*
X23289199Y-72112179D01*
X23188187Y-72620000D01*
X23289199Y-73127821D01*
X23576856Y-73558331D01*
X24007366Y-73845988D01*
X24515187Y-73947000D01*
X25484813Y-73947000D01*
X25992634Y-73845988D01*
X26423144Y-73558331D01*
X26710801Y-73127821D01*
X26811813Y-72620000D01*
X26710801Y-72112179D01*
X26423144Y-71681669D01*
X25992634Y-71394012D01*
X25976118Y-71390727D01*
X26067652Y-71359784D01*
X26460660Y-71016001D01*
X26672414Y-70576687D01*
X26582664Y-70373000D01*
X25173000Y-70373000D01*
X25173000Y-70393000D01*
X24827000Y-70393000D01*
X24827000Y-70373000D01*
X24807000Y-70373000D01*
X24807000Y-70027000D01*
X24827000Y-70027000D01*
X24827000Y-70007000D01*
X25173000Y-70007000D01*
X25173000Y-70027000D01*
X26582664Y-70027000D01*
X26672414Y-69823313D01*
X33327586Y-69823313D01*
X33417336Y-70027000D01*
X34827000Y-70027000D01*
X34827000Y-68873000D01*
X35173000Y-68873000D01*
X35173000Y-70027000D01*
X36582664Y-70027000D01*
X36672414Y-69823313D01*
X36460660Y-69383999D01*
X36067652Y-69040216D01*
X35573000Y-68873000D01*
X35173000Y-68873000D01*
X34827000Y-68873000D01*
X34427000Y-68873000D01*
X33932348Y-69040216D01*
X33539340Y-69383999D01*
X33327586Y-69823313D01*
X26672414Y-69823313D01*
X26460660Y-69383999D01*
X26067652Y-69040216D01*
X25573000Y-68873000D01*
X25149068Y-68873000D01*
X32861031Y-61161036D01*
X32861034Y-61161034D01*
X33002369Y-60949510D01*
X33052000Y-60700000D01*
X33052000Y-50700714D01*
X34586079Y-49166635D01*
X34631939Y-49098000D01*
X34727414Y-48955111D01*
X34758586Y-48798401D01*
X34777046Y-48705601D01*
X34777045Y-48705596D01*
X34777045Y-42694399D01*
X34727414Y-42444889D01*
X34586079Y-42233365D01*
X34586076Y-42233363D01*
X34352000Y-41999286D01*
X34352000Y-37933221D01*
X34436054Y-37849167D01*
X34436057Y-37849165D01*
X34465733Y-37804750D01*
X35273000Y-37804750D01*
X35273000Y-38254827D01*
X35353231Y-38448522D01*
X35501479Y-38596769D01*
X35695173Y-38677000D01*
X36695250Y-38677000D01*
X36827000Y-38545250D01*
X36827000Y-37673000D01*
X37173000Y-37673000D01*
X37173000Y-38545250D01*
X37304750Y-38677000D01*
X38304827Y-38677000D01*
X38498521Y-38596769D01*
X38646769Y-38448522D01*
X38727000Y-38254827D01*
X38727000Y-37804750D01*
X38595250Y-37673000D01*
X37173000Y-37673000D01*
X36827000Y-37673000D01*
X35404750Y-37673000D01*
X35273000Y-37804750D01*
X34465733Y-37804750D01*
X34577392Y-37637641D01*
X34627023Y-37388131D01*
X34627023Y-31211874D01*
X34627024Y-31211869D01*
X34577393Y-30962360D01*
X34552000Y-30924357D01*
X34552000Y-30870069D01*
X38046046Y-27376023D01*
X38108465Y-27282606D01*
X38187381Y-27164499D01*
X38200213Y-27099988D01*
X38237013Y-26914989D01*
X38237012Y-26914984D01*
X38237012Y-21085017D01*
X38237013Y-21085012D01*
X38187382Y-20835503D01*
X38082212Y-20678105D01*
X38046046Y-20623978D01*
X38046043Y-20623976D01*
X34122000Y-16699932D01*
X34122000Y-7846414D01*
X34220703Y-7805631D01*
X34594319Y-7432666D01*
X34796769Y-6945115D01*
X34797229Y-6417202D01*
X34595631Y-5929297D01*
X34222666Y-5555681D01*
X33735115Y-5353231D01*
X33207202Y-5352771D01*
X32719297Y-5554369D01*
X32345681Y-5927334D01*
X32199891Y-6278433D01*
X32055631Y-5929297D01*
X31682666Y-5555681D01*
X31195115Y-5353231D01*
X30667202Y-5352771D01*
X30179297Y-5554369D01*
X29805681Y-5927334D01*
X29659891Y-6278433D01*
X29515631Y-5929297D01*
X29142666Y-5555681D01*
X28655115Y-5353231D01*
X28127202Y-5352771D01*
X27639297Y-5554369D01*
X27265681Y-5927334D01*
X27119891Y-6278433D01*
X26975631Y-5929297D01*
X26602666Y-5555681D01*
X26115115Y-5353231D01*
X25587202Y-5352771D01*
X25099297Y-5554369D01*
X24725681Y-5927334D01*
X24579891Y-6278433D01*
X24435631Y-5929297D01*
X24062666Y-5555681D01*
X23575115Y-5353231D01*
X23047202Y-5352771D01*
X22914440Y-5407627D01*
X22970067Y-5352000D01*
X24387995Y-5352000D01*
X24388000Y-5352001D01*
X24596113Y-5310604D01*
X24637510Y-5302369D01*
X24849034Y-5161034D01*
X26018993Y-3991075D01*
X26350000Y-4056916D01*
X26843279Y-3958797D01*
X27261461Y-3679377D01*
X27540881Y-3261195D01*
X27620000Y-2863436D01*
X27699119Y-3261195D01*
X27978539Y-3679377D01*
X28396721Y-3958797D01*
X28890000Y-4056916D01*
X29383279Y-3958797D01*
X29801461Y-3679377D01*
X30080881Y-3261195D01*
X30179000Y-2767916D01*
X30179000Y-2232084D01*
X30080881Y-1738805D01*
X29801461Y-1320623D01*
X29383279Y-1041203D01*
X28890000Y-943084D01*
X28558993Y-1008925D01*
X28327068Y-777000D01*
X32915393Y-777000D01*
X32587661Y-995984D01*
X32587661Y-995984D01*
G37*
X32587661Y-995984D02*
X32126585Y-1686032D01*
X31964677Y-2500000D01*
X32126585Y-3313968D01*
X32587661Y-4004016D01*
X33277709Y-4465092D01*
X34091677Y-4627000D01*
X35908323Y-4627000D01*
X36722291Y-4465092D01*
X37412339Y-4004016D01*
X37873415Y-3313968D01*
X38035323Y-2500000D01*
X37873415Y-1686032D01*
X37412339Y-995984D01*
X37084607Y-777000D01*
X39223000Y-777000D01*
X39223000Y-8723000D01*
X38000000Y-8723000D01*
X37924942Y-8737930D01*
X37848415Y-8737930D01*
X37465733Y-8814050D01*
X37465732Y-8814050D01*
X37185639Y-8930068D01*
X36861215Y-9146841D01*
X36827892Y-9180164D01*
X36800000Y-9180164D01*
X36750590Y-9190170D01*
X36708965Y-9218611D01*
X36681685Y-9261005D01*
X36673000Y-9307164D01*
X36673000Y-9335056D01*
X36646841Y-9361215D01*
X36430068Y-9685639D01*
X36314050Y-9965732D01*
X36314050Y-9965733D01*
X36237930Y-10348416D01*
X36237930Y-10424942D01*
X36223000Y-10500000D01*
X36223000Y-18000000D01*
X36237930Y-18075058D01*
X36237930Y-18151584D01*
X36314050Y-18534267D01*
X36314050Y-18534268D01*
X36430068Y-18814361D01*
X36646841Y-19138785D01*
X36861215Y-19353159D01*
X37185639Y-19569932D01*
X37465732Y-19685950D01*
X37465733Y-19685950D01*
X37848415Y-19762070D01*
X37924942Y-19762070D01*
X38000000Y-19777000D01*
X39223000Y-19777000D01*
X39223000Y-33212676D01*
X36300000Y-33212676D01*
X36104706Y-33249423D01*
X35925340Y-33364842D01*
X35805010Y-33540951D01*
X35762676Y-33750000D01*
X35762676Y-36250000D01*
X35776412Y-36323000D01*
X35695173Y-36323000D01*
X35501479Y-36403231D01*
X35353231Y-36551478D01*
X35273000Y-36745173D01*
X35273000Y-37195250D01*
X35404750Y-37327000D01*
X36827000Y-37327000D01*
X36827000Y-37307000D01*
X37173000Y-37307000D01*
X37173000Y-37327000D01*
X38595250Y-37327000D01*
X38727000Y-37195250D01*
X38727000Y-36787324D01*
X39223000Y-36787324D01*
X39223000Y-41033675D01*
X39001696Y-40811983D01*
X38697848Y-40685815D01*
X38368847Y-40685528D01*
X38064780Y-40811166D01*
X38015188Y-40860671D01*
X37182739Y-40860671D01*
X36452062Y-40129994D01*
X36452148Y-40031270D01*
X36322712Y-39718011D01*
X36083250Y-39478130D01*
X35770217Y-39348148D01*
X35431270Y-39347852D01*
X35118011Y-39477288D01*
X34878130Y-39716750D01*
X34748148Y-40029783D01*
X34747852Y-40368730D01*
X34877288Y-40681989D01*
X35116750Y-40921870D01*
X35429783Y-41051852D01*
X35529871Y-41051939D01*
X35792095Y-41314163D01*
X35604706Y-41349423D01*
X35425340Y-41464842D01*
X35305010Y-41640951D01*
X35262676Y-41850000D01*
X35262676Y-43150000D01*
X35299423Y-43345294D01*
X35414842Y-43524660D01*
X35590951Y-43644990D01*
X35776339Y-43682532D01*
X35762676Y-43750000D01*
X35762676Y-46250000D01*
X35799423Y-46445294D01*
X35914842Y-46624660D01*
X36090951Y-46744990D01*
X36300000Y-46787324D01*
X39223000Y-46787324D01*
X39223000Y-52223000D01*
X35500000Y-52223000D01*
X35424942Y-52237930D01*
X35348415Y-52237930D01*
X34965733Y-52314050D01*
X34965732Y-52314050D01*
X34685639Y-52430068D01*
X34361215Y-52646841D01*
X34327892Y-52680164D01*
X34300000Y-52680164D01*
X34250590Y-52690170D01*
X34208965Y-52718611D01*
X34181685Y-52761005D01*
X34173000Y-52807164D01*
X34173000Y-52835056D01*
X34146841Y-52861215D01*
X33930068Y-53185639D01*
X33814050Y-53465732D01*
X33814050Y-53465733D01*
X33737930Y-53848416D01*
X33737930Y-53924942D01*
X33723000Y-54000000D01*
X33723000Y-67000000D01*
X33737930Y-67075058D01*
X33737930Y-67151584D01*
X33814050Y-67534267D01*
X33814050Y-67534268D01*
X33930068Y-67814361D01*
X34146841Y-68138785D01*
X34173000Y-68164944D01*
X34173000Y-68207164D01*
X34183006Y-68256574D01*
X34211447Y-68298199D01*
X34253841Y-68325479D01*
X34300000Y-68334164D01*
X34342220Y-68334164D01*
X34361215Y-68353159D01*
X34685639Y-68569932D01*
X34965732Y-68685950D01*
X34965733Y-68685950D01*
X35348415Y-68762070D01*
X35424942Y-68762070D01*
X35500000Y-68777000D01*
X39223000Y-68777000D01*
X39223000Y-107223000D01*
X36751542Y-107223000D01*
X36811813Y-106920000D01*
X36714607Y-106431313D01*
X36437788Y-106017025D01*
X36023500Y-105740206D01*
X35534813Y-105643000D01*
X34465187Y-105643000D01*
X33976500Y-105740206D01*
X33562212Y-106017025D01*
X33285393Y-106431313D01*
X33188187Y-106920000D01*
X33248458Y-107223000D01*
X26751542Y-107223000D01*
X26811813Y-106920000D01*
X26714607Y-106431313D01*
X26437788Y-106017025D01*
X26023500Y-105740206D01*
X25534813Y-105643000D01*
X24465187Y-105643000D01*
X23976500Y-105740206D01*
X23562212Y-106017025D01*
X23285393Y-106431313D01*
X23188187Y-106920000D01*
X23248458Y-107223000D01*
X16751542Y-107223000D01*
X16811813Y-106920000D01*
X16714607Y-106431313D01*
X16437788Y-106017025D01*
X16023500Y-105740206D01*
X15534813Y-105643000D01*
X14465187Y-105643000D01*
X13976500Y-105740206D01*
X13562212Y-106017025D01*
X13285393Y-106431313D01*
X13188187Y-106920000D01*
X13248458Y-107223000D01*
X6751542Y-107223000D01*
X6811813Y-106920000D01*
X6714607Y-106431313D01*
X6437788Y-106017025D01*
X6023500Y-105740206D01*
X5534813Y-105643000D01*
X4465187Y-105643000D01*
X3976500Y-105740206D01*
X3562212Y-106017025D01*
X3285393Y-106431313D01*
X3188187Y-106920000D01*
X3248458Y-107223000D01*
X777000Y-107223000D01*
X777000Y-98620000D01*
X3188187Y-98620000D01*
X3289199Y-99127821D01*
X3576856Y-99558331D01*
X4007366Y-99845988D01*
X4515187Y-99947000D01*
X5484813Y-99947000D01*
X5992634Y-99845988D01*
X6423144Y-99558331D01*
X6710801Y-99127821D01*
X6811813Y-98620000D01*
X6710801Y-98112179D01*
X6423144Y-97681669D01*
X5992634Y-97394012D01*
X5976118Y-97390727D01*
X6067652Y-97359784D01*
X6460660Y-97016001D01*
X6672414Y-96576687D01*
X6582664Y-96373000D01*
X5173000Y-96373000D01*
X5173000Y-96393000D01*
X4827000Y-96393000D01*
X4827000Y-96373000D01*
X3417336Y-96373000D01*
X3327586Y-96576687D01*
X3539340Y-97016001D01*
X3932348Y-97359784D01*
X4023882Y-97390727D01*
X4007366Y-97394012D01*
X3576856Y-97681669D01*
X3289199Y-98112179D01*
X3188187Y-98620000D01*
X777000Y-98620000D01*
X777000Y-93920000D01*
X3188187Y-93920000D01*
X3285393Y-94408687D01*
X3562212Y-94822975D01*
X3912855Y-95057268D01*
X3539340Y-95383999D01*
X3327586Y-95823313D01*
X3417336Y-96027000D01*
X4827000Y-96027000D01*
X4827000Y-96007000D01*
X5173000Y-96007000D01*
X5173000Y-96027000D01*
X6582664Y-96027000D01*
X6672414Y-95823313D01*
X6460660Y-95383999D01*
X6087145Y-95057268D01*
X6437788Y-94822975D01*
X6714607Y-94408687D01*
X6811813Y-93920000D01*
X6714607Y-93431313D01*
X6437788Y-93017025D01*
X6023500Y-92740206D01*
X5534813Y-92643000D01*
X4465187Y-92643000D01*
X3976500Y-92740206D01*
X3562212Y-93017025D01*
X3285393Y-93431313D01*
X3188187Y-93920000D01*
X777000Y-93920000D01*
X777000Y-85620000D01*
X3188187Y-85620000D01*
X3289199Y-86127821D01*
X3576856Y-86558331D01*
X4007366Y-86845988D01*
X4515187Y-86947000D01*
X5484813Y-86947000D01*
X5992634Y-86845988D01*
X6423144Y-86558331D01*
X6710801Y-86127821D01*
X6811813Y-85620000D01*
X6710801Y-85112179D01*
X6423144Y-84681669D01*
X5992634Y-84394012D01*
X5976118Y-84390727D01*
X6067652Y-84359784D01*
X6460660Y-84016001D01*
X6672414Y-83576687D01*
X6582664Y-83373000D01*
X5173000Y-83373000D01*
X5173000Y-83393000D01*
X4827000Y-83393000D01*
X4827000Y-83373000D01*
X3417336Y-83373000D01*
X3327586Y-83576687D01*
X3539340Y-84016001D01*
X3932348Y-84359784D01*
X4023882Y-84390727D01*
X4007366Y-84394012D01*
X3576856Y-84681669D01*
X3289199Y-85112179D01*
X3188187Y-85620000D01*
X777000Y-85620000D01*
X777000Y-75420732D01*
X4999268Y-79643000D01*
X4465187Y-79643000D01*
X3976500Y-79740206D01*
X3562212Y-80017025D01*
X3285393Y-80431313D01*
X3188187Y-80920000D01*
X3285393Y-81408687D01*
X3562212Y-81822975D01*
X3912855Y-82057268D01*
X3539340Y-82383999D01*
X3327586Y-82823313D01*
X3417336Y-83027000D01*
X4827000Y-83027000D01*
X4827000Y-83007000D01*
X5173000Y-83007000D01*
X5173000Y-83027000D01*
X6582664Y-83027000D01*
X6672414Y-82823313D01*
X6460660Y-82383999D01*
X6087145Y-82057268D01*
X6437788Y-81822975D01*
X6714607Y-81408687D01*
X6722960Y-81366692D01*
X12704184Y-87347916D01*
X12631270Y-87347852D01*
X12318011Y-87477288D01*
X12078130Y-87716750D01*
X11948148Y-88029783D01*
X11947852Y-88368730D01*
X12077288Y-88681989D01*
X12304797Y-88909896D01*
X12338966Y-88961034D01*
X15947938Y-92570005D01*
X15947852Y-92668730D01*
X15973256Y-92730212D01*
X15534813Y-92643000D01*
X14465187Y-92643000D01*
X13976500Y-92740206D01*
X13562212Y-93017025D01*
X13285393Y-93431313D01*
X13188187Y-93920000D01*
X13285393Y-94408687D01*
X13562212Y-94822975D01*
X13912855Y-95057268D01*
X13539340Y-95383999D01*
X13327586Y-95823313D01*
X13417336Y-96027000D01*
X14827000Y-96027000D01*
X14827000Y-96007000D01*
X15173000Y-96007000D01*
X15173000Y-96027000D01*
X16582664Y-96027000D01*
X16672414Y-95823313D01*
X16460660Y-95383999D01*
X16087145Y-95057268D01*
X16437788Y-94822975D01*
X16605485Y-94572000D01*
X17905932Y-94572000D01*
X17738966Y-94738966D01*
X17597631Y-94950490D01*
X17597631Y-94950491D01*
X17547999Y-95200000D01*
X17548000Y-95200005D01*
X17548000Y-98542993D01*
X17483250Y-98478130D01*
X17170217Y-98348148D01*
X16831270Y-98347852D01*
X16763268Y-98375950D01*
X16710801Y-98112179D01*
X16423144Y-97681669D01*
X15992634Y-97394012D01*
X15976118Y-97390727D01*
X16067652Y-97359784D01*
X16460660Y-97016001D01*
X16672414Y-96576687D01*
X16582664Y-96373000D01*
X15173000Y-96373000D01*
X15173000Y-96393000D01*
X14827000Y-96393000D01*
X14827000Y-96373000D01*
X13417336Y-96373000D01*
X13327586Y-96576687D01*
X13539340Y-97016001D01*
X13932348Y-97359784D01*
X14023882Y-97390727D01*
X14007366Y-97394012D01*
X13576856Y-97681669D01*
X13289199Y-98112179D01*
X13188187Y-98620000D01*
X13289199Y-99127821D01*
X13576856Y-99558331D01*
X14007366Y-99845988D01*
X14515187Y-99947000D01*
X15484813Y-99947000D01*
X15992634Y-99845988D01*
X16268804Y-99661457D01*
X16277288Y-99681989D01*
X16348000Y-99752825D01*
X16348000Y-101174880D01*
X14529994Y-102992885D01*
X14431270Y-102992799D01*
X14118011Y-103122235D01*
X13878130Y-103361697D01*
X13748148Y-103674730D01*
X13747852Y-104013677D01*
X13877288Y-104326936D01*
X14116750Y-104566817D01*
X14429783Y-104696799D01*
X14768730Y-104697095D01*
X15081989Y-104567659D01*
X15321870Y-104328197D01*
X15451852Y-104015164D01*
X15451939Y-103915076D01*
X15547983Y-103819032D01*
X15547852Y-103968730D01*
X15677288Y-104281989D01*
X15916750Y-104521870D01*
X16229783Y-104651852D01*
X16375076Y-104651979D01*
X16450490Y-104702369D01*
X16699999Y-104752000D01*
X16700004Y-104751999D01*
X23199996Y-104751999D01*
X23200001Y-104752000D01*
X23408114Y-104710603D01*
X23449511Y-104702368D01*
X23661035Y-104561033D01*
X23670006Y-104552062D01*
X23768730Y-104552148D01*
X24081989Y-104422712D01*
X24321870Y-104183250D01*
X24437578Y-103904592D01*
X24447938Y-103914952D01*
X24447852Y-104013677D01*
X24577288Y-104326936D01*
X24816750Y-104566817D01*
X25129783Y-104696799D01*
X25468730Y-104697095D01*
X25781989Y-104567659D01*
X26021870Y-104328197D01*
X26151852Y-104015164D01*
X26152148Y-103676217D01*
X26022712Y-103362958D01*
X25783250Y-103123077D01*
X25470217Y-102993095D01*
X25370128Y-102993008D01*
X23552000Y-101174879D01*
X23552000Y-99752998D01*
X23621870Y-99683250D01*
X23652698Y-99609007D01*
X24007366Y-99845988D01*
X24515187Y-99947000D01*
X25484813Y-99947000D01*
X25992634Y-99845988D01*
X26423144Y-99558331D01*
X26710801Y-99127821D01*
X26811813Y-98620000D01*
X33188187Y-98620000D01*
X33289199Y-99127821D01*
X33576856Y-99558331D01*
X34007366Y-99845988D01*
X34515187Y-99947000D01*
X35484813Y-99947000D01*
X35992634Y-99845988D01*
X36423144Y-99558331D01*
X36710801Y-99127821D01*
X36811813Y-98620000D01*
X36710801Y-98112179D01*
X36423144Y-97681669D01*
X35992634Y-97394012D01*
X35976118Y-97390727D01*
X36067652Y-97359784D01*
X36460660Y-97016001D01*
X36672414Y-96576687D01*
X36582664Y-96373000D01*
X35173000Y-96373000D01*
X35173000Y-96393000D01*
X34827000Y-96393000D01*
X34827000Y-96373000D01*
X33417336Y-96373000D01*
X33327586Y-96576687D01*
X33539340Y-97016001D01*
X33932348Y-97359784D01*
X34023882Y-97390727D01*
X34007366Y-97394012D01*
X33576856Y-97681669D01*
X33289199Y-98112179D01*
X33188187Y-98620000D01*
X26811813Y-98620000D01*
X26710801Y-98112179D01*
X26423144Y-97681669D01*
X25992634Y-97394012D01*
X25976118Y-97390727D01*
X26067652Y-97359784D01*
X26460660Y-97016001D01*
X26672414Y-96576687D01*
X26582664Y-96373000D01*
X25173000Y-96373000D01*
X25173000Y-96393000D01*
X24827000Y-96393000D01*
X24827000Y-96373000D01*
X23417336Y-96373000D01*
X23327586Y-96576687D01*
X23539340Y-97016001D01*
X23932348Y-97359784D01*
X24023882Y-97390727D01*
X24007366Y-97394012D01*
X23576856Y-97681669D01*
X23289199Y-98112179D01*
X23229136Y-98414137D01*
X23070217Y-98348148D01*
X22731270Y-98347852D01*
X22418011Y-98477288D01*
X22178130Y-98716750D01*
X22048148Y-99029783D01*
X22047852Y-99368730D01*
X22177288Y-99681989D01*
X22248000Y-99752825D01*
X22248000Y-101444942D01*
X22247999Y-101444947D01*
X22289396Y-101653060D01*
X22297631Y-101694457D01*
X22418115Y-101874775D01*
X22438966Y-101905981D01*
X23395583Y-102862598D01*
X23118011Y-102977288D01*
X22878130Y-103216750D01*
X22782108Y-103447999D01*
X21256833Y-103447999D01*
X21421870Y-103283250D01*
X21551852Y-102970217D01*
X21552148Y-102631270D01*
X21422712Y-102318011D01*
X21183250Y-102078130D01*
X20997540Y-102001017D01*
X21051852Y-101870217D01*
X21052148Y-101531270D01*
X20922712Y-101218011D01*
X20852000Y-101147175D01*
X20852000Y-98270068D01*
X23354415Y-95767652D01*
X23327586Y-95823313D01*
X23417336Y-96027000D01*
X24827000Y-96027000D01*
X24827000Y-96007000D01*
X25173000Y-96007000D01*
X25173000Y-96027000D01*
X26582664Y-96027000D01*
X26672414Y-95823313D01*
X26589839Y-95652000D01*
X33399995Y-95652000D01*
X33400000Y-95652001D01*
X33411238Y-95649766D01*
X33327586Y-95823313D01*
X33417336Y-96027000D01*
X34827000Y-96027000D01*
X34827000Y-96007000D01*
X35173000Y-96007000D01*
X35173000Y-96027000D01*
X36582664Y-96027000D01*
X36672414Y-95823313D01*
X36460660Y-95383999D01*
X36087145Y-95057268D01*
X36437788Y-94822975D01*
X36714607Y-94408687D01*
X36811813Y-93920000D01*
X36714607Y-93431313D01*
X36437788Y-93017025D01*
X36023500Y-92740206D01*
X35534813Y-92643000D01*
X34465187Y-92643000D01*
X33976500Y-92740206D01*
X33562212Y-93017025D01*
X33285393Y-93431313D01*
X33188187Y-93920000D01*
X33249532Y-94228401D01*
X33129932Y-94348000D01*
X26726678Y-94348000D01*
X26811813Y-93920000D01*
X26714607Y-93431313D01*
X26437788Y-93017025D01*
X26023500Y-92740206D01*
X25534813Y-92643000D01*
X24465187Y-92643000D01*
X24051891Y-92725210D01*
X24051939Y-92670128D01*
X27661031Y-89061036D01*
X27661034Y-89061034D01*
X27802369Y-88849510D01*
X27838846Y-88666129D01*
X27921870Y-88583250D01*
X28051852Y-88270217D01*
X28052148Y-87931270D01*
X27922712Y-87618011D01*
X27683250Y-87378130D01*
X27370217Y-87248148D01*
X27031270Y-87247852D01*
X26718011Y-87377288D01*
X26478130Y-87616750D01*
X26348148Y-87929783D01*
X26347852Y-88268730D01*
X26424266Y-88453667D01*
X23129994Y-91747938D01*
X23031270Y-91747852D01*
X22718011Y-91877288D01*
X22478130Y-92116750D01*
X22348148Y-92429783D01*
X22347852Y-92768730D01*
X22477288Y-93081989D01*
X22716750Y-93321870D01*
X23029783Y-93451852D01*
X23049587Y-93451869D01*
X23038966Y-93458966D01*
X23038964Y-93458969D01*
X19038966Y-97458966D01*
X18897631Y-97670490D01*
X18897631Y-97670491D01*
X18852000Y-97899886D01*
X18852000Y-95470068D01*
X21361031Y-92961036D01*
X21361034Y-92961034D01*
X21502369Y-92749510D01*
X21502370Y-92749509D01*
X21552001Y-92500000D01*
X21552000Y-92499995D01*
X21552000Y-90400000D01*
X21502369Y-90150490D01*
X21361034Y-89938966D01*
X21361031Y-89938964D01*
X20174068Y-88752000D01*
X21247002Y-88752000D01*
X21316750Y-88821870D01*
X21629783Y-88951852D01*
X21968730Y-88952148D01*
X22281989Y-88822712D01*
X22521870Y-88583250D01*
X22651852Y-88270217D01*
X22652148Y-87931270D01*
X22619394Y-87852000D01*
X22729932Y-87852000D01*
X22772917Y-87894985D01*
X22772857Y-87963779D01*
X22898495Y-88267846D01*
X23130930Y-88500688D01*
X23434778Y-88626856D01*
X23763779Y-88627143D01*
X24067846Y-88501505D01*
X24300688Y-88269070D01*
X24426856Y-87965222D01*
X24427143Y-87636221D01*
X24301505Y-87332154D01*
X24069070Y-87099312D01*
X23765222Y-86973144D01*
X23695151Y-86973083D01*
X23461034Y-86738966D01*
X23249510Y-86597631D01*
X23208113Y-86589396D01*
X23000000Y-86547999D01*
X22999995Y-86548000D01*
X18100000Y-86548000D01*
X17850490Y-86597631D01*
X17638966Y-86738966D01*
X17638964Y-86738969D01*
X17238966Y-87138966D01*
X17097631Y-87350490D01*
X17097631Y-87350491D01*
X17047999Y-87600000D01*
X17048000Y-87600005D01*
X17048000Y-88299995D01*
X17047999Y-88300000D01*
X17072864Y-88424999D01*
X17097631Y-88549510D01*
X17181152Y-88674508D01*
X17238966Y-88761034D01*
X18825923Y-90347990D01*
X18609053Y-90347990D01*
X15208063Y-86947000D01*
X15484813Y-86947000D01*
X15992634Y-86845988D01*
X16423144Y-86558331D01*
X16710801Y-86127821D01*
X16811813Y-85620000D01*
X23188187Y-85620000D01*
X23289199Y-86127821D01*
X23576856Y-86558331D01*
X24007366Y-86845988D01*
X24515187Y-86947000D01*
X25484813Y-86947000D01*
X25992634Y-86845988D01*
X26423144Y-86558331D01*
X26710801Y-86127821D01*
X26811813Y-85620000D01*
X33188187Y-85620000D01*
X33289199Y-86127821D01*
X33576856Y-86558331D01*
X34007366Y-86845988D01*
X34515187Y-86947000D01*
X35484813Y-86947000D01*
X35992634Y-86845988D01*
X36423144Y-86558331D01*
X36710801Y-86127821D01*
X36811813Y-85620000D01*
X36710801Y-85112179D01*
X36423144Y-84681669D01*
X35992634Y-84394012D01*
X35976118Y-84390727D01*
X36067652Y-84359784D01*
X36460660Y-84016001D01*
X36672414Y-83576687D01*
X36582664Y-83373000D01*
X35173000Y-83373000D01*
X35173000Y-83393000D01*
X34827000Y-83393000D01*
X34827000Y-83373000D01*
X33417336Y-83373000D01*
X33327586Y-83576687D01*
X33539340Y-84016001D01*
X33932348Y-84359784D01*
X34023882Y-84390727D01*
X34007366Y-84394012D01*
X33576856Y-84681669D01*
X33289199Y-85112179D01*
X33188187Y-85620000D01*
X26811813Y-85620000D01*
X26710801Y-85112179D01*
X26423144Y-84681669D01*
X25992634Y-84394012D01*
X25976118Y-84390727D01*
X26067652Y-84359784D01*
X26460660Y-84016001D01*
X26672414Y-83576687D01*
X26582664Y-83373000D01*
X25173000Y-83373000D01*
X25173000Y-83393000D01*
X24827000Y-83393000D01*
X24827000Y-83373000D01*
X23417336Y-83373000D01*
X23327586Y-83576687D01*
X23539340Y-84016001D01*
X23932348Y-84359784D01*
X24023882Y-84390727D01*
X24007366Y-84394012D01*
X23576856Y-84681669D01*
X23289199Y-85112179D01*
X23188187Y-85620000D01*
X16811813Y-85620000D01*
X16710801Y-85112179D01*
X16423144Y-84681669D01*
X15992634Y-84394012D01*
X15976118Y-84390727D01*
X16067652Y-84359784D01*
X16460660Y-84016001D01*
X16672414Y-83576687D01*
X16582664Y-83373000D01*
X15173000Y-83373000D01*
X15173000Y-83393000D01*
X14827000Y-83393000D01*
X14827000Y-83373000D01*
X13417336Y-83373000D01*
X13327586Y-83576687D01*
X13539340Y-84016001D01*
X13932348Y-84359784D01*
X14023882Y-84390727D01*
X14007366Y-84394012D01*
X13576856Y-84681669D01*
X13322862Y-85061799D01*
X9181064Y-80920000D01*
X13188187Y-80920000D01*
X13285393Y-81408687D01*
X13562212Y-81822975D01*
X13912855Y-82057268D01*
X13539340Y-82383999D01*
X13327586Y-82823313D01*
X13417336Y-83027000D01*
X14827000Y-83027000D01*
X14827000Y-83007000D01*
X15173000Y-83007000D01*
X15173000Y-83027000D01*
X16582664Y-83027000D01*
X16672414Y-82823313D01*
X16460660Y-82383999D01*
X16087145Y-82057268D01*
X16437788Y-81822975D01*
X16714607Y-81408687D01*
X16811813Y-80920000D01*
X23188187Y-80920000D01*
X23285393Y-81408687D01*
X23562212Y-81822975D01*
X23912855Y-82057268D01*
X23539340Y-82383999D01*
X23327586Y-82823313D01*
X23417336Y-83027000D01*
X24827000Y-83027000D01*
X24827000Y-83007000D01*
X25173000Y-83007000D01*
X25173000Y-83027000D01*
X26582664Y-83027000D01*
X26672414Y-82823313D01*
X26460660Y-82383999D01*
X26087145Y-82057268D01*
X26437788Y-81822975D01*
X26714607Y-81408687D01*
X26811813Y-80920000D01*
X26714607Y-80431313D01*
X26437788Y-80017025D01*
X26023500Y-79740206D01*
X25534813Y-79643000D01*
X24465187Y-79643000D01*
X23976500Y-79740206D01*
X23562212Y-80017025D01*
X23285393Y-80431313D01*
X23188187Y-80920000D01*
X16811813Y-80920000D01*
X16714607Y-80431313D01*
X16437788Y-80017025D01*
X16023500Y-79740206D01*
X15534813Y-79643000D01*
X14465187Y-79643000D01*
X13976500Y-79740206D01*
X13562212Y-80017025D01*
X13285393Y-80431313D01*
X13188187Y-80920000D01*
X9181064Y-80920000D01*
X6529794Y-78268730D01*
X25147852Y-78268730D01*
X25277288Y-78581989D01*
X25516750Y-78821870D01*
X25829783Y-78951852D01*
X26168730Y-78952148D01*
X26481989Y-78822712D01*
X26721870Y-78583250D01*
X26851852Y-78270217D01*
X26851992Y-78110457D01*
X32057627Y-72904821D01*
X32057627Y-75809622D01*
X32057626Y-75809627D01*
X32099023Y-76017740D01*
X32107258Y-76059137D01*
X32248593Y-76270661D01*
X34947938Y-78970005D01*
X34947852Y-79068730D01*
X35077288Y-79381989D01*
X35316750Y-79621870D01*
X35367637Y-79643000D01*
X34465187Y-79643000D01*
X33976500Y-79740206D01*
X33562212Y-80017025D01*
X33285393Y-80431313D01*
X33188187Y-80920000D01*
X33285393Y-81408687D01*
X33562212Y-81822975D01*
X33912855Y-82057268D01*
X33539340Y-82383999D01*
X33327586Y-82823313D01*
X33417336Y-83027000D01*
X34827000Y-83027000D01*
X34827000Y-83007000D01*
X35173000Y-83007000D01*
X35173000Y-83027000D01*
X36582664Y-83027000D01*
X36672414Y-82823313D01*
X36460660Y-82383999D01*
X36087145Y-82057268D01*
X36437788Y-81822975D01*
X36714607Y-81408687D01*
X36811813Y-80920000D01*
X36714607Y-80431313D01*
X36437788Y-80017025D01*
X36023500Y-79740206D01*
X36006038Y-79736733D01*
X36281989Y-79622712D01*
X36521870Y-79383250D01*
X36651852Y-79070217D01*
X36652148Y-78731270D01*
X36522712Y-78418011D01*
X36283250Y-78178130D01*
X35970217Y-78048148D01*
X35870128Y-78048061D01*
X33361627Y-75539559D01*
X33361627Y-73236217D01*
X33576856Y-73558331D01*
X34007366Y-73845988D01*
X34515187Y-73947000D01*
X35484813Y-73947000D01*
X35992634Y-73845988D01*
X36423144Y-73558331D01*
X36710801Y-73127821D01*
X36811813Y-72620000D01*
X36710801Y-72112179D01*
X36423144Y-71681669D01*
X35992634Y-71394012D01*
X35976118Y-71390727D01*
X36067652Y-71359784D01*
X36460660Y-71016001D01*
X36672414Y-70576687D01*
X36582664Y-70373000D01*
X35173000Y-70373000D01*
X35173000Y-70393000D01*
X34827000Y-70393000D01*
X34827000Y-70373000D01*
X33417336Y-70373000D01*
X33382057Y-70453065D01*
X33370217Y-70448148D01*
X33031270Y-70447852D01*
X32718011Y-70577288D01*
X32623981Y-70671154D01*
X32490871Y-70697631D01*
X32279347Y-70838966D01*
X32279345Y-70838969D01*
X25870427Y-77247886D01*
X25831270Y-77247852D01*
X25518011Y-77377288D01*
X25278130Y-77616750D01*
X25148148Y-77929783D01*
X25147852Y-78268730D01*
X6529794Y-78268730D01*
X2027000Y-73765936D01*
X2027000Y-72620000D01*
X3188187Y-72620000D01*
X3289199Y-73127821D01*
X3576856Y-73558331D01*
X4007366Y-73845988D01*
X4515187Y-73947000D01*
X5484813Y-73947000D01*
X5992634Y-73845988D01*
X6423144Y-73558331D01*
X6710801Y-73127821D01*
X6811813Y-72620000D01*
X6710801Y-72112179D01*
X6423144Y-71681669D01*
X5992634Y-71394012D01*
X5976118Y-71390727D01*
X6067652Y-71359784D01*
X6460660Y-71016001D01*
X6672414Y-70576687D01*
X6582664Y-70373000D01*
X5173000Y-70373000D01*
X5173000Y-70393000D01*
X4827000Y-70393000D01*
X4827000Y-70373000D01*
X3417336Y-70373000D01*
X3327586Y-70576687D01*
X3539340Y-71016001D01*
X3932348Y-71359784D01*
X4023882Y-71390727D01*
X4007366Y-71394012D01*
X3576856Y-71681669D01*
X3289199Y-72112179D01*
X3188187Y-72620000D01*
X2027000Y-72620000D01*
X2027000Y-69823313D01*
X3327586Y-69823313D01*
X3417336Y-70027000D01*
X4827000Y-70027000D01*
X4827000Y-68873000D01*
X5173000Y-68873000D01*
X5173000Y-70027000D01*
X6582664Y-70027000D01*
X6672414Y-69823313D01*
X13327586Y-69823313D01*
X13417336Y-70027000D01*
X14827000Y-70027000D01*
X14827000Y-68873000D01*
X15173000Y-68873000D01*
X15173000Y-70027000D01*
X16582664Y-70027000D01*
X16672414Y-69823313D01*
X16460660Y-69383999D01*
X16067652Y-69040216D01*
X15573000Y-68873000D01*
X15173000Y-68873000D01*
X14827000Y-68873000D01*
X14427000Y-68873000D01*
X13932348Y-69040216D01*
X13539340Y-69383999D01*
X13327586Y-69823313D01*
X6672414Y-69823313D01*
X6460660Y-69383999D01*
X6067652Y-69040216D01*
X5573000Y-68873000D01*
X5173000Y-68873000D01*
X4827000Y-68873000D01*
X4427000Y-68873000D01*
X3932348Y-69040216D01*
X3539340Y-69383999D01*
X3327586Y-69823313D01*
X2027000Y-69823313D01*
X2027000Y-67554750D01*
X4498000Y-67554750D01*
X4498000Y-68104827D01*
X4578231Y-68298521D01*
X4726478Y-68446769D01*
X4920173Y-68527000D01*
X5720250Y-68527000D01*
X5852000Y-68395250D01*
X5852000Y-67423000D01*
X6198000Y-67423000D01*
X6198000Y-68395250D01*
X6329750Y-68527000D01*
X7129827Y-68527000D01*
X7323522Y-68446769D01*
X7471769Y-68298521D01*
X7552000Y-68104827D01*
X7552000Y-67554750D01*
X7420250Y-67423000D01*
X6198000Y-67423000D01*
X5852000Y-67423000D01*
X4629750Y-67423000D01*
X4498000Y-67554750D01*
X2027000Y-67554750D01*
X2027000Y-66395173D01*
X4498000Y-66395173D01*
X4498000Y-66945250D01*
X4629750Y-67077000D01*
X5852000Y-67077000D01*
X5852000Y-66104750D01*
X6198000Y-66104750D01*
X6198000Y-67077000D01*
X7420250Y-67077000D01*
X7552000Y-66945250D01*
X7552000Y-66395173D01*
X7471769Y-66201479D01*
X7323522Y-66053231D01*
X7129827Y-65973000D01*
X6329750Y-65973000D01*
X6198000Y-66104750D01*
X5852000Y-66104750D01*
X5720250Y-65973000D01*
X4920173Y-65973000D01*
X4726478Y-66053231D01*
X4578231Y-66201479D01*
X4498000Y-66395173D01*
X2027000Y-66395173D01*
X2027000Y-65400000D01*
X2027178Y-65196613D01*
X1871156Y-64819011D01*
X1777000Y-64724691D01*
X1777000Y-53663779D01*
X2922857Y-53663779D01*
X3048495Y-53967846D01*
X3280930Y-54200688D01*
X3584778Y-54326856D01*
X3654850Y-54326917D01*
X3848000Y-54520067D01*
X3848000Y-55566611D01*
X3681260Y-55566465D01*
X3368001Y-55695901D01*
X3128120Y-55935363D01*
X2998138Y-56248396D01*
X2997842Y-56587343D01*
X3072990Y-56769215D01*
X3072990Y-63349990D01*
X3132136Y-63647335D01*
X3300568Y-63899412D01*
X4150578Y-64749422D01*
X4402655Y-64917854D01*
X4700000Y-64977000D01*
X6849518Y-64977000D01*
X7029783Y-65051852D01*
X7368730Y-65052148D01*
X7681989Y-64922712D01*
X7921870Y-64683250D01*
X8051852Y-64370217D01*
X8052148Y-64031270D01*
X7922712Y-63718011D01*
X7683250Y-63478130D01*
X7562324Y-63427917D01*
X7562324Y-62000000D01*
X7525577Y-61804706D01*
X7410158Y-61625340D01*
X7234049Y-61505010D01*
X7025000Y-61462676D01*
X5152000Y-61462676D01*
X5152000Y-59500000D01*
X7573000Y-59500000D01*
X7689236Y-60084357D01*
X8020248Y-60579752D01*
X8673000Y-61232504D01*
X8673000Y-63900000D01*
X8789236Y-64484358D01*
X9082135Y-64922712D01*
X9120248Y-64979752D01*
X10520230Y-66379734D01*
X11015625Y-66710747D01*
X11599982Y-66826982D01*
X12437676Y-66826982D01*
X12437676Y-68000000D01*
X12474423Y-68195294D01*
X12589842Y-68374660D01*
X12765951Y-68494990D01*
X12975000Y-68537324D01*
X14975000Y-68537324D01*
X15170294Y-68500577D01*
X15349660Y-68385158D01*
X15469990Y-68209049D01*
X15512324Y-68000000D01*
X15512324Y-66826982D01*
X16200000Y-66826982D01*
X16784358Y-66710746D01*
X17279752Y-66379734D01*
X17610764Y-65884340D01*
X17727000Y-65299982D01*
X17610764Y-64715624D01*
X17279752Y-64220230D01*
X16784358Y-63889218D01*
X16200000Y-63772982D01*
X15426306Y-63772982D01*
X15469990Y-63709049D01*
X15512324Y-63500000D01*
X15512324Y-62000000D01*
X15475577Y-61804706D01*
X15360158Y-61625340D01*
X15184049Y-61505010D01*
X14975000Y-61462676D01*
X13277000Y-61462676D01*
X13277000Y-60350478D01*
X13351852Y-60170213D01*
X13352148Y-59831266D01*
X13222712Y-59518007D01*
X12983250Y-59278126D01*
X12670217Y-59148144D01*
X12331270Y-59147848D01*
X12018011Y-59277284D01*
X11778130Y-59516746D01*
X11648148Y-59829779D01*
X11647852Y-60168726D01*
X11723000Y-60350598D01*
X11723000Y-60579891D01*
X11610764Y-60015642D01*
X11279752Y-59520248D01*
X10179752Y-58420248D01*
X9684357Y-58089236D01*
X9100000Y-57973000D01*
X8515643Y-58089236D01*
X8020248Y-58420248D01*
X7689236Y-58915643D01*
X7573000Y-59500000D01*
X5152000Y-59500000D01*
X5152000Y-56527000D01*
X5720250Y-56527000D01*
X5852000Y-56395250D01*
X5852000Y-55423000D01*
X6198000Y-55423000D01*
X6198000Y-56395250D01*
X6329750Y-56527000D01*
X7129827Y-56527000D01*
X7323522Y-56446769D01*
X7471769Y-56298521D01*
X7552000Y-56104827D01*
X7552000Y-55554750D01*
X7420250Y-55423000D01*
X6198000Y-55423000D01*
X5852000Y-55423000D01*
X5832000Y-55423000D01*
X5832000Y-55077000D01*
X5852000Y-55077000D01*
X5852000Y-54104750D01*
X6198000Y-54104750D01*
X6198000Y-55077000D01*
X7420250Y-55077000D01*
X7552000Y-54945250D01*
X7552000Y-54395173D01*
X7471769Y-54201479D01*
X7323522Y-54053231D01*
X7129827Y-53973000D01*
X6329750Y-53973000D01*
X6198000Y-54104750D01*
X5852000Y-54104750D01*
X5720250Y-53973000D01*
X5084001Y-53973000D01*
X4961034Y-53788966D01*
X4961031Y-53788964D01*
X4577083Y-53405015D01*
X4577143Y-53336221D01*
X4451505Y-53032154D01*
X4219070Y-52799312D01*
X3915222Y-52673144D01*
X3586221Y-52672857D01*
X3282154Y-52798495D01*
X3049312Y-53030930D01*
X2923144Y-53334778D01*
X2922857Y-53663779D01*
X1777000Y-53663779D01*
X1777000Y-50081846D01*
X1858846Y-50000000D01*
X4487676Y-50000000D01*
X4487676Y-51500000D01*
X4524423Y-51695294D01*
X4639842Y-51874660D01*
X4815951Y-51994990D01*
X5025000Y-52037324D01*
X7025000Y-52037324D01*
X7220294Y-52000577D01*
X7399660Y-51885158D01*
X7519990Y-51709049D01*
X7562324Y-51500000D01*
X7562324Y-50000000D01*
X7525577Y-49804706D01*
X7410158Y-49625340D01*
X7234049Y-49505010D01*
X7126927Y-49483317D01*
X7127143Y-49236221D01*
X7001505Y-48932154D01*
X6769070Y-48699312D01*
X6465222Y-48573144D01*
X6136221Y-48572857D01*
X5832154Y-48698495D01*
X5599312Y-48930930D01*
X5473144Y-49234778D01*
X5473043Y-49350042D01*
X5422631Y-49425490D01*
X5422631Y-49425491D01*
X5415234Y-49462676D01*
X5025000Y-49462676D01*
X4829706Y-49499423D01*
X4650340Y-49614842D01*
X4530010Y-49790951D01*
X4487676Y-50000000D01*
X1858846Y-50000000D01*
X4925311Y-46933535D01*
X5093743Y-46681458D01*
X5152889Y-46384113D01*
X5152889Y-44611938D01*
X5227741Y-44431673D01*
X5228037Y-44092726D01*
X5098601Y-43779467D01*
X4859139Y-43539586D01*
X4644733Y-43450558D01*
X4646769Y-43448522D01*
X4727000Y-43254827D01*
X4727000Y-42804750D01*
X4595250Y-42673000D01*
X3173000Y-42673000D01*
X3173000Y-42693000D01*
X2827000Y-42693000D01*
X2827000Y-42673000D01*
X1404750Y-42673000D01*
X1273000Y-42804750D01*
X1273000Y-43212676D01*
X777000Y-43212676D01*
X777000Y-41745173D01*
X1273000Y-41745173D01*
X1273000Y-42195250D01*
X1404750Y-42327000D01*
X2827000Y-42327000D01*
X2827000Y-41454750D01*
X3173000Y-41454750D01*
X3173000Y-42327000D01*
X4595250Y-42327000D01*
X4727000Y-42195250D01*
X4727000Y-41745173D01*
X4646769Y-41551478D01*
X4498521Y-41403231D01*
X4304827Y-41323000D01*
X3304750Y-41323000D01*
X3173000Y-41454750D01*
X2827000Y-41454750D01*
X2695250Y-41323000D01*
X1695173Y-41323000D01*
X1501479Y-41403231D01*
X1353231Y-41551478D01*
X1273000Y-41745173D01*
X777000Y-41745173D01*
X777000Y-39915824D01*
X798495Y-39967846D01*
X1030930Y-40200688D01*
X1334778Y-40326856D01*
X1663779Y-40327143D01*
X1967846Y-40201505D01*
X2200688Y-39969070D01*
X2326856Y-39665222D01*
X2327143Y-39336221D01*
X2201505Y-39032154D01*
X2152000Y-38982562D01*
X2152000Y-38720068D01*
X2184744Y-38687324D01*
X4200000Y-38687324D01*
X4395294Y-38650577D01*
X4574660Y-38535158D01*
X4694990Y-38359049D01*
X4737324Y-38150000D01*
X4737324Y-36850000D01*
X4700577Y-36654706D01*
X4585158Y-36475340D01*
X4409049Y-36355010D01*
X4223661Y-36317468D01*
X4237324Y-36250000D01*
X4237324Y-35251859D01*
X4568730Y-35252148D01*
X4881989Y-35122712D01*
X5121870Y-34883250D01*
X5251852Y-34570217D01*
X5252051Y-34342767D01*
X5465896Y-34129295D01*
X5592064Y-33825447D01*
X5592351Y-33496446D01*
X5466713Y-33192379D01*
X5452000Y-33177640D01*
X5452000Y-32270068D01*
X8570067Y-29152000D01*
X21000016Y-29152000D01*
X21000021Y-29152001D01*
X21208134Y-29110604D01*
X21249531Y-29102369D01*
X21461055Y-28961034D01*
X22570005Y-27852083D01*
X22668730Y-27852169D01*
X22981989Y-27722733D01*
X23221870Y-27483271D01*
X23350772Y-27172840D01*
X25348000Y-29170068D01*
X25348000Y-34482327D01*
X25299312Y-34530930D01*
X25173144Y-34834778D01*
X25172857Y-35163779D01*
X25298495Y-35467846D01*
X25530930Y-35700688D01*
X25834778Y-35826856D01*
X26163779Y-35827143D01*
X26348000Y-35751024D01*
X26348000Y-38779561D01*
X26339696Y-38774012D01*
X25831875Y-38673000D01*
X25168125Y-38673000D01*
X24660304Y-38774012D01*
X24306024Y-39010734D01*
X24198521Y-38903231D01*
X24004827Y-38823000D01*
X23004750Y-38823000D01*
X22873000Y-38954750D01*
X22873000Y-39827000D01*
X22893000Y-39827000D01*
X22893000Y-40173000D01*
X22873000Y-40173000D01*
X22873000Y-41045250D01*
X23004750Y-41177000D01*
X24004827Y-41177000D01*
X24198521Y-41096769D01*
X24306024Y-40989266D01*
X24660304Y-41225988D01*
X25168125Y-41327000D01*
X25500932Y-41327000D01*
X24979932Y-41848000D01*
X24436948Y-41848000D01*
X24400577Y-41654706D01*
X24285158Y-41475340D01*
X24109049Y-41355010D01*
X23900000Y-41312676D01*
X21777000Y-41312676D01*
X21777000Y-41177000D01*
X22395250Y-41177000D01*
X22527000Y-41045250D01*
X22527000Y-40173000D01*
X22507000Y-40173000D01*
X22507000Y-39827000D01*
X22527000Y-39827000D01*
X22527000Y-38954750D01*
X22395250Y-38823000D01*
X21395173Y-38823000D01*
X21201479Y-38903231D01*
X21153276Y-38951434D01*
X20777000Y-38575158D01*
X20777000Y-36787324D01*
X20975368Y-36787324D01*
X20962676Y-36850000D01*
X20962676Y-38150000D01*
X20999423Y-38345294D01*
X21114842Y-38524660D01*
X21290951Y-38644990D01*
X21500000Y-38687324D01*
X23900000Y-38687324D01*
X24095294Y-38650577D01*
X24274660Y-38535158D01*
X24394990Y-38359049D01*
X24437324Y-38150000D01*
X24437324Y-37567414D01*
X24717846Y-37451505D01*
X24950688Y-37219070D01*
X25076856Y-36915222D01*
X25077143Y-36586221D01*
X24951505Y-36282154D01*
X24719070Y-36049312D01*
X24415222Y-35923144D01*
X24237324Y-35922989D01*
X24237324Y-33750000D01*
X24200577Y-33554706D01*
X24085158Y-33375340D01*
X23909049Y-33255010D01*
X23700000Y-33212676D01*
X20851902Y-33212676D01*
X20852148Y-32931276D01*
X20722712Y-32618017D01*
X20483250Y-32378136D01*
X20170217Y-32248154D01*
X19831270Y-32247858D01*
X19518011Y-32377294D01*
X19278130Y-32616756D01*
X19148148Y-32929789D01*
X19147901Y-33212676D01*
X16300000Y-33212676D01*
X16104706Y-33249423D01*
X15925340Y-33364842D01*
X15852112Y-33472014D01*
X15852148Y-33431270D01*
X15722712Y-33118011D01*
X15483250Y-32878130D01*
X15170217Y-32748148D01*
X14831270Y-32747852D01*
X14518011Y-32877288D01*
X14278130Y-33116750D01*
X14148148Y-33429783D01*
X14147852Y-33768730D01*
X14277288Y-34081989D01*
X14348000Y-34152825D01*
X14348000Y-36099995D01*
X14347999Y-36100000D01*
X14383989Y-36280930D01*
X14397631Y-36349510D01*
X14490812Y-36488966D01*
X14538966Y-36561034D01*
X15562676Y-37584744D01*
X15562676Y-38150000D01*
X15599423Y-38345294D01*
X15714842Y-38524660D01*
X15890951Y-38644990D01*
X16100000Y-38687324D01*
X18500000Y-38687324D01*
X18695294Y-38650577D01*
X18874660Y-38535158D01*
X18994990Y-38359049D01*
X19037324Y-38150000D01*
X19037324Y-36850000D01*
X19025531Y-36787324D01*
X19223000Y-36787324D01*
X19223000Y-38897002D01*
X19282146Y-39194347D01*
X19450578Y-39446424D01*
X20223000Y-40218846D01*
X20223000Y-42118154D01*
X19940589Y-42400565D01*
X19940589Y-42038594D01*
X19940590Y-42038589D01*
X19890959Y-41789080D01*
X19749623Y-41577555D01*
X19211034Y-41038966D01*
X19156262Y-41002369D01*
X18999510Y-40897631D01*
X18970259Y-40891813D01*
X19027000Y-40754827D01*
X19027000Y-40304750D01*
X18895250Y-40173000D01*
X17473000Y-40173000D01*
X17473000Y-40193000D01*
X17127000Y-40193000D01*
X17127000Y-40173000D01*
X17107000Y-40173000D01*
X17107000Y-39827000D01*
X17127000Y-39827000D01*
X17127000Y-38954750D01*
X17473000Y-38954750D01*
X17473000Y-39827000D01*
X18895250Y-39827000D01*
X19027000Y-39695250D01*
X19027000Y-39245173D01*
X18946769Y-39051478D01*
X18798521Y-38903231D01*
X18604827Y-38823000D01*
X17604750Y-38823000D01*
X17473000Y-38954750D01*
X17127000Y-38954750D01*
X16995250Y-38823000D01*
X15995173Y-38823000D01*
X15801479Y-38903231D01*
X15693976Y-39010734D01*
X15339696Y-38774012D01*
X14831875Y-38673000D01*
X14168125Y-38673000D01*
X13660304Y-38774012D01*
X13229794Y-39061669D01*
X12952000Y-39477418D01*
X12952000Y-38000000D01*
X12902369Y-37750490D01*
X12761034Y-37538966D01*
X12761031Y-37538964D01*
X12252062Y-37029994D01*
X12252148Y-36931270D01*
X12197548Y-36799127D01*
X12374660Y-36685158D01*
X12494990Y-36509049D01*
X12537324Y-36300000D01*
X12537324Y-32300000D01*
X12500577Y-32104706D01*
X12385158Y-31925340D01*
X12209049Y-31805010D01*
X12000000Y-31762676D01*
X8000000Y-31762676D01*
X7804706Y-31799423D01*
X7735601Y-31843891D01*
X7565222Y-31773144D01*
X7236221Y-31772857D01*
X6932154Y-31898495D01*
X6699312Y-32130930D01*
X6573144Y-32434778D01*
X6573083Y-32504849D01*
X6338966Y-32738966D01*
X6197631Y-32950490D01*
X6193067Y-32973433D01*
X6147999Y-33200000D01*
X6148000Y-33200005D01*
X6148000Y-44329935D01*
X5738967Y-44738967D01*
X5597632Y-44950492D01*
X5548000Y-45200001D01*
X5597632Y-45449510D01*
X5672946Y-45562226D01*
X5672857Y-45663779D01*
X5798495Y-45967846D01*
X6030930Y-46200688D01*
X6334778Y-46326856D01*
X6663779Y-46327143D01*
X6950329Y-46208743D01*
X7234778Y-46326856D01*
X7462676Y-46327055D01*
X7462676Y-47700000D01*
X7499423Y-47895294D01*
X7614842Y-48074660D01*
X7790951Y-48194990D01*
X8000000Y-48237324D01*
X11163832Y-48237324D01*
X8450578Y-50950578D01*
X8282146Y-51202655D01*
X8223000Y-51500000D01*
X8223000Y-53000000D01*
X8282146Y-53297345D01*
X8450578Y-53549422D01*
X15248849Y-60347693D01*
X15298495Y-60467846D01*
X15530930Y-60700688D01*
X15834778Y-60826856D01*
X16163779Y-60827143D01*
X16467846Y-60701505D01*
X16700688Y-60469070D01*
X16826856Y-60165222D01*
X16827143Y-59836221D01*
X16701505Y-59532154D01*
X16469070Y-59299312D01*
X16347801Y-59248957D01*
X13636168Y-56537324D01*
X14975000Y-56537324D01*
X15170294Y-56500577D01*
X15349660Y-56385158D01*
X15469990Y-56209049D01*
X15512324Y-56000000D01*
X15512324Y-54570000D01*
X20842676Y-54570000D01*
X20842676Y-56270000D01*
X20879423Y-56465294D01*
X20994842Y-56644660D01*
X21170951Y-56764990D01*
X21380000Y-56807324D01*
X23080000Y-56807324D01*
X23275294Y-56770577D01*
X23454660Y-56655158D01*
X23574990Y-56479049D01*
X23617324Y-56270000D01*
X23617324Y-56166182D01*
X23769337Y-56393686D01*
X24216068Y-56692182D01*
X24743023Y-56797000D01*
X24796977Y-56797000D01*
X25323932Y-56692182D01*
X25770663Y-56393686D01*
X26069159Y-55946955D01*
X26173977Y-55420000D01*
X26069159Y-54893045D01*
X25770663Y-54446314D01*
X25323932Y-54147818D01*
X24796977Y-54043000D01*
X24743023Y-54043000D01*
X24216068Y-54147818D01*
X23769337Y-54446314D01*
X23617324Y-54673818D01*
X23617324Y-54570000D01*
X23580577Y-54374706D01*
X23465158Y-54195340D01*
X23289049Y-54075010D01*
X23080000Y-54032676D01*
X21380000Y-54032676D01*
X21184706Y-54069423D01*
X21005340Y-54184842D01*
X20885010Y-54360951D01*
X20842676Y-54570000D01*
X15512324Y-54570000D01*
X15512324Y-54500000D01*
X15475577Y-54304706D01*
X15360158Y-54125340D01*
X15184049Y-54005010D01*
X14975000Y-53962676D01*
X12975000Y-53962676D01*
X12779706Y-53999423D01*
X12600340Y-54114842D01*
X12480010Y-54290951D01*
X12437676Y-54500000D01*
X12437676Y-55338832D01*
X10575692Y-53476848D01*
X10992995Y-53477212D01*
X11444131Y-53290806D01*
X11457961Y-53277000D01*
X16650000Y-53277000D01*
X17043016Y-53198824D01*
X17376199Y-52976199D01*
X21925398Y-48427000D01*
X22149304Y-48427000D01*
X22148148Y-48429783D01*
X22147852Y-48768730D01*
X22277288Y-49081989D01*
X22516750Y-49321870D01*
X22829783Y-49451852D01*
X22929871Y-49451939D01*
X25333757Y-51855825D01*
X25333757Y-52461245D01*
X25263887Y-52530993D01*
X25133905Y-52844026D01*
X25133609Y-53182973D01*
X25263045Y-53496232D01*
X25502507Y-53736113D01*
X25815540Y-53866095D01*
X26154487Y-53866391D01*
X26467746Y-53736955D01*
X26707627Y-53497493D01*
X26837609Y-53184460D01*
X26837905Y-52845513D01*
X26708469Y-52532254D01*
X26637757Y-52461418D01*
X26637757Y-51585762D01*
X26637758Y-51585757D01*
X26588126Y-51336248D01*
X26588126Y-51336247D01*
X26446791Y-51124723D01*
X23852062Y-48529994D01*
X23852148Y-48431270D01*
X23850384Y-48427000D01*
X24350000Y-48427000D01*
X24743016Y-48348824D01*
X25076199Y-48126199D01*
X26748000Y-46454397D01*
X26748000Y-47899995D01*
X26747999Y-47900000D01*
X26782742Y-48074660D01*
X26797631Y-48149510D01*
X26930808Y-48348824D01*
X26938966Y-48361034D01*
X28598000Y-50020068D01*
X28598000Y-53979933D01*
X27679994Y-54897938D01*
X27581270Y-54897852D01*
X27268011Y-55027288D01*
X27028130Y-55266750D01*
X26898148Y-55579783D01*
X26897852Y-55918730D01*
X27027288Y-56231989D01*
X27266750Y-56471870D01*
X27271395Y-56473799D01*
X27248148Y-56529783D01*
X27247852Y-56868730D01*
X27377288Y-57181989D01*
X27616750Y-57421870D01*
X27929783Y-57551852D01*
X28199331Y-57552087D01*
X28199153Y-57755909D01*
X28328589Y-58069168D01*
X28460112Y-58200921D01*
X28448127Y-58229783D01*
X28447831Y-58568730D01*
X28577267Y-58881989D01*
X28816729Y-59121870D01*
X29129762Y-59251852D01*
X29148088Y-59251868D01*
X29147847Y-59528662D01*
X29273485Y-59832729D01*
X29322990Y-59882321D01*
X29322990Y-60449975D01*
X29322989Y-60449980D01*
X29342770Y-60549422D01*
X29372621Y-60699490D01*
X29457724Y-60826856D01*
X29513956Y-60911014D01*
X29697927Y-61094985D01*
X29697867Y-61163779D01*
X29823505Y-61467846D01*
X29948481Y-61593041D01*
X26138728Y-65402793D01*
X26069159Y-65053045D01*
X25770663Y-64606314D01*
X25323932Y-64307818D01*
X24796977Y-64203000D01*
X24743023Y-64203000D01*
X24216068Y-64307818D01*
X23769337Y-64606314D01*
X23500000Y-65009405D01*
X23230663Y-64606314D01*
X22783932Y-64307818D01*
X22256977Y-64203000D01*
X22203023Y-64203000D01*
X21676068Y-64307818D01*
X21229337Y-64606314D01*
X20930841Y-65053045D01*
X20826023Y-65580000D01*
X20930841Y-66106955D01*
X21229337Y-66553686D01*
X21676068Y-66852182D01*
X22203023Y-66957000D01*
X22256977Y-66957000D01*
X22783932Y-66852182D01*
X23230663Y-66553686D01*
X23500000Y-66150595D01*
X23769337Y-66553686D01*
X24216068Y-66852182D01*
X24610819Y-66930703D01*
X20438966Y-71102555D01*
X20297631Y-71314079D01*
X20290584Y-71349507D01*
X20247999Y-71563589D01*
X20248000Y-71563594D01*
X20248000Y-71947002D01*
X20178130Y-72016750D01*
X20048148Y-72329783D01*
X20047852Y-72668730D01*
X20080606Y-72748000D01*
X19870068Y-72748000D01*
X18156024Y-71033956D01*
X18047166Y-70961220D01*
X17944500Y-70892621D01*
X17903103Y-70884386D01*
X17694990Y-70842989D01*
X17694985Y-70842990D01*
X16544053Y-70842990D01*
X16672414Y-70576687D01*
X16582664Y-70373000D01*
X15173000Y-70373000D01*
X15173000Y-70393000D01*
X14827000Y-70393000D01*
X14827000Y-70373000D01*
X13417336Y-70373000D01*
X13327586Y-70576687D01*
X13455947Y-70842990D01*
X8147997Y-70842990D01*
X8083250Y-70778130D01*
X7770217Y-70648148D01*
X7431270Y-70647852D01*
X7118011Y-70777288D01*
X6878130Y-71016750D01*
X6748148Y-71329783D01*
X6747852Y-71668730D01*
X6877288Y-71981989D01*
X7116750Y-72221870D01*
X7429783Y-72351852D01*
X7768730Y-72352148D01*
X8081989Y-72222712D01*
X8157843Y-72146990D01*
X13282275Y-72146990D01*
X13188187Y-72620000D01*
X13289199Y-73127821D01*
X13576856Y-73558331D01*
X14007366Y-73845988D01*
X14515187Y-73947000D01*
X15484813Y-73947000D01*
X15992634Y-73845988D01*
X16423144Y-73558331D01*
X16710801Y-73127821D01*
X16811813Y-72620000D01*
X16717725Y-72146990D01*
X17424922Y-72146990D01*
X19138966Y-73861034D01*
X19350490Y-74002369D01*
X19391887Y-74010604D01*
X19600000Y-74052001D01*
X19600005Y-74052000D01*
X21111999Y-74052000D01*
X21112004Y-74052001D01*
X21320117Y-74010604D01*
X21361514Y-74002369D01*
X21573038Y-73861034D01*
X22461033Y-72973038D01*
X22461036Y-72973036D01*
X22582256Y-72791616D01*
X22602372Y-72761511D01*
X22652003Y-72512002D01*
X22652002Y-72511997D01*
X22652002Y-71370066D01*
X23365898Y-70656170D01*
X23539340Y-71016001D01*
X23932348Y-71359784D01*
X24023882Y-71390727D01*
X24007366Y-71394012D01*
X23576856Y-71681669D01*
X23289199Y-72112179D01*
X23188187Y-72620000D01*
X23289199Y-73127821D01*
X23576856Y-73558331D01*
X24007366Y-73845988D01*
X24515187Y-73947000D01*
X25484813Y-73947000D01*
X25992634Y-73845988D01*
X26423144Y-73558331D01*
X26710801Y-73127821D01*
X26811813Y-72620000D01*
X26710801Y-72112179D01*
X26423144Y-71681669D01*
X25992634Y-71394012D01*
X25976118Y-71390727D01*
X26067652Y-71359784D01*
X26460660Y-71016001D01*
X26672414Y-70576687D01*
X26582664Y-70373000D01*
X25173000Y-70373000D01*
X25173000Y-70393000D01*
X24827000Y-70393000D01*
X24827000Y-70373000D01*
X24807000Y-70373000D01*
X24807000Y-70027000D01*
X24827000Y-70027000D01*
X24827000Y-70007000D01*
X25173000Y-70007000D01*
X25173000Y-70027000D01*
X26582664Y-70027000D01*
X26672414Y-69823313D01*
X33327586Y-69823313D01*
X33417336Y-70027000D01*
X34827000Y-70027000D01*
X34827000Y-68873000D01*
X35173000Y-68873000D01*
X35173000Y-70027000D01*
X36582664Y-70027000D01*
X36672414Y-69823313D01*
X36460660Y-69383999D01*
X36067652Y-69040216D01*
X35573000Y-68873000D01*
X35173000Y-68873000D01*
X34827000Y-68873000D01*
X34427000Y-68873000D01*
X33932348Y-69040216D01*
X33539340Y-69383999D01*
X33327586Y-69823313D01*
X26672414Y-69823313D01*
X26460660Y-69383999D01*
X26067652Y-69040216D01*
X25573000Y-68873000D01*
X25149068Y-68873000D01*
X32861031Y-61161036D01*
X32861034Y-61161034D01*
X33002369Y-60949510D01*
X33052000Y-60700000D01*
X33052000Y-50700714D01*
X34586079Y-49166635D01*
X34631939Y-49098000D01*
X34727414Y-48955111D01*
X34758586Y-48798401D01*
X34777046Y-48705601D01*
X34777045Y-48705596D01*
X34777045Y-42694399D01*
X34727414Y-42444889D01*
X34586079Y-42233365D01*
X34586076Y-42233363D01*
X34352000Y-41999286D01*
X34352000Y-37933221D01*
X34436054Y-37849167D01*
X34436057Y-37849165D01*
X34465733Y-37804750D01*
X35273000Y-37804750D01*
X35273000Y-38254827D01*
X35353231Y-38448522D01*
X35501479Y-38596769D01*
X35695173Y-38677000D01*
X36695250Y-38677000D01*
X36827000Y-38545250D01*
X36827000Y-37673000D01*
X37173000Y-37673000D01*
X37173000Y-38545250D01*
X37304750Y-38677000D01*
X38304827Y-38677000D01*
X38498521Y-38596769D01*
X38646769Y-38448522D01*
X38727000Y-38254827D01*
X38727000Y-37804750D01*
X38595250Y-37673000D01*
X37173000Y-37673000D01*
X36827000Y-37673000D01*
X35404750Y-37673000D01*
X35273000Y-37804750D01*
X34465733Y-37804750D01*
X34577392Y-37637641D01*
X34627023Y-37388131D01*
X34627023Y-31211874D01*
X34627024Y-31211869D01*
X34577393Y-30962360D01*
X34552000Y-30924357D01*
X34552000Y-30870069D01*
X38046046Y-27376023D01*
X38108465Y-27282606D01*
X38187381Y-27164499D01*
X38200213Y-27099988D01*
X38237013Y-26914989D01*
X38237012Y-26914984D01*
X38237012Y-21085017D01*
X38237013Y-21085012D01*
X38187382Y-20835503D01*
X38082212Y-20678105D01*
X38046046Y-20623978D01*
X38046043Y-20623976D01*
X34122000Y-16699932D01*
X34122000Y-7846414D01*
X34220703Y-7805631D01*
X34594319Y-7432666D01*
X34796769Y-6945115D01*
X34797229Y-6417202D01*
X34595631Y-5929297D01*
X34222666Y-5555681D01*
X33735115Y-5353231D01*
X33207202Y-5352771D01*
X32719297Y-5554369D01*
X32345681Y-5927334D01*
X32199891Y-6278433D01*
X32055631Y-5929297D01*
X31682666Y-5555681D01*
X31195115Y-5353231D01*
X30667202Y-5352771D01*
X30179297Y-5554369D01*
X29805681Y-5927334D01*
X29659891Y-6278433D01*
X29515631Y-5929297D01*
X29142666Y-5555681D01*
X28655115Y-5353231D01*
X28127202Y-5352771D01*
X27639297Y-5554369D01*
X27265681Y-5927334D01*
X27119891Y-6278433D01*
X26975631Y-5929297D01*
X26602666Y-5555681D01*
X26115115Y-5353231D01*
X25587202Y-5352771D01*
X25099297Y-5554369D01*
X24725681Y-5927334D01*
X24579891Y-6278433D01*
X24435631Y-5929297D01*
X24062666Y-5555681D01*
X23575115Y-5353231D01*
X23047202Y-5352771D01*
X22914440Y-5407627D01*
X22970067Y-5352000D01*
X24387995Y-5352000D01*
X24388000Y-5352001D01*
X24596113Y-5310604D01*
X24637510Y-5302369D01*
X24849034Y-5161034D01*
X26018993Y-3991075D01*
X26350000Y-4056916D01*
X26843279Y-3958797D01*
X27261461Y-3679377D01*
X27540881Y-3261195D01*
X27620000Y-2863436D01*
X27699119Y-3261195D01*
X27978539Y-3679377D01*
X28396721Y-3958797D01*
X28890000Y-4056916D01*
X29383279Y-3958797D01*
X29801461Y-3679377D01*
X30080881Y-3261195D01*
X30179000Y-2767916D01*
X30179000Y-2232084D01*
X30080881Y-1738805D01*
X29801461Y-1320623D01*
X29383279Y-1041203D01*
X28890000Y-943084D01*
X28558993Y-1008925D01*
X28327068Y-777000D01*
X32915393Y-777000D01*
X32587661Y-995984D01*
G36*
X29804369Y-7430703D02*
X30177334Y-7804319D01*
X30278000Y-7846119D01*
X30278000Y-15066405D01*
X30277999Y-15066410D01*
X30319396Y-15274523D01*
X30327631Y-15315920D01*
X30400937Y-15425631D01*
X30468966Y-15527444D01*
X35596544Y-20655021D01*
X35259297Y-20794369D01*
X34885681Y-21167334D01*
X34683231Y-21654885D01*
X34683197Y-21694406D01*
X31798779Y-24578823D01*
X31576154Y-24912006D01*
X31497978Y-25305022D01*
X31497978Y-31599999D01*
X31530337Y-31762676D01*
X28000000Y-31762676D01*
X27804706Y-31799423D01*
X27652000Y-31897687D01*
X27652000Y-29263589D01*
X27602369Y-29014079D01*
X27461034Y-28802555D01*
X27461031Y-28802553D01*
X24097445Y-25438966D01*
X23885921Y-25297631D01*
X23844524Y-25289396D01*
X23636411Y-25247999D01*
X23636406Y-25248000D01*
X16819554Y-25248000D01*
X16851852Y-25170217D01*
X16851939Y-25070128D01*
X17270067Y-24652000D01*
X23820292Y-24652000D01*
X25747928Y-26579635D01*
X25747842Y-26678360D01*
X25877278Y-26991619D01*
X26116740Y-27231500D01*
X26429773Y-27361482D01*
X26768720Y-27361778D01*
X27081979Y-27232342D01*
X27321860Y-26992880D01*
X27451842Y-26679847D01*
X27452138Y-26340900D01*
X27322702Y-26027641D01*
X27083240Y-25787760D01*
X26770207Y-25657778D01*
X26670118Y-25657691D01*
X24964428Y-23952000D01*
X27529932Y-23952000D01*
X27847938Y-24270005D01*
X27847852Y-24368730D01*
X27977288Y-24681989D01*
X28216750Y-24921870D01*
X28529783Y-25051852D01*
X28868730Y-25052148D01*
X29181989Y-24922712D01*
X29421870Y-24683250D01*
X29551852Y-24370217D01*
X29552148Y-24031270D01*
X29422712Y-23718011D01*
X29183250Y-23478130D01*
X28870217Y-23348148D01*
X28770128Y-23348061D01*
X28664472Y-23242405D01*
X29140703Y-23045631D01*
X29514319Y-22672666D01*
X29660109Y-22321567D01*
X29804369Y-22670703D01*
X30177334Y-23044319D01*
X30664885Y-23246769D01*
X31192798Y-23247229D01*
X31680703Y-23045631D01*
X32054319Y-22672666D01*
X32256769Y-22185115D01*
X32257229Y-21657202D01*
X32055631Y-21169297D01*
X31682666Y-20795681D01*
X31195115Y-20593231D01*
X30667202Y-20592771D01*
X30179297Y-20794369D01*
X29805681Y-21167334D01*
X29659891Y-21518433D01*
X29515631Y-21169297D01*
X29142666Y-20795681D01*
X28655115Y-20593231D01*
X28127202Y-20592771D01*
X28097225Y-20605157D01*
X23306032Y-15813964D01*
X23094508Y-15672629D01*
X23053111Y-15664394D01*
X22844998Y-15622997D01*
X22844993Y-15622998D01*
X10672002Y-15622998D01*
X10422492Y-15672629D01*
X10210968Y-15813964D01*
X10210966Y-15813967D01*
X6288966Y-19735966D01*
X6147631Y-19947490D01*
X6147631Y-19947491D01*
X6097999Y-20197000D01*
X6098000Y-20197005D01*
X6098000Y-20719001D01*
X5795115Y-20593231D01*
X5267202Y-20592771D01*
X4852000Y-20764329D01*
X4852000Y-13260068D01*
X10175595Y-7936473D01*
X10344885Y-8006769D01*
X10872798Y-8007229D01*
X11360703Y-7805631D01*
X11734319Y-7432666D01*
X11880109Y-7081567D01*
X12024369Y-7430703D01*
X12397334Y-7804319D01*
X12884885Y-8006769D01*
X13412798Y-8007229D01*
X13584299Y-7936366D01*
X14358964Y-8711031D01*
X14358966Y-8711034D01*
X14465393Y-8782146D01*
X14570491Y-8852370D01*
X14820000Y-8902001D01*
X14820005Y-8902000D01*
X21449995Y-8902000D01*
X21450000Y-8902001D01*
X21658113Y-8860604D01*
X21699510Y-8852369D01*
X21911034Y-8711034D01*
X22461031Y-8161036D01*
X22461034Y-8161034D01*
X22602369Y-7949510D01*
X22625610Y-7832670D01*
X23044885Y-8006769D01*
X23572798Y-8007229D01*
X24060703Y-7805631D01*
X24434319Y-7432666D01*
X24580109Y-7081567D01*
X24724369Y-7430703D01*
X25097334Y-7804319D01*
X25584885Y-8006769D01*
X26112798Y-8007229D01*
X26600703Y-7805631D01*
X26974319Y-7432666D01*
X27120109Y-7081567D01*
X27264369Y-7430703D01*
X27637334Y-7804319D01*
X28124885Y-8006769D01*
X28652798Y-8007229D01*
X29140703Y-7805631D01*
X29514319Y-7432666D01*
X29660109Y-7081567D01*
X29804369Y-7430703D01*
X29804369Y-7430703D01*
G37*
X29804369Y-7430703D02*
X30177334Y-7804319D01*
X30278000Y-7846119D01*
X30278000Y-15066405D01*
X30277999Y-15066410D01*
X30319396Y-15274523D01*
X30327631Y-15315920D01*
X30400937Y-15425631D01*
X30468966Y-15527444D01*
X35596544Y-20655021D01*
X35259297Y-20794369D01*
X34885681Y-21167334D01*
X34683231Y-21654885D01*
X34683197Y-21694406D01*
X31798779Y-24578823D01*
X31576154Y-24912006D01*
X31497978Y-25305022D01*
X31497978Y-31599999D01*
X31530337Y-31762676D01*
X28000000Y-31762676D01*
X27804706Y-31799423D01*
X27652000Y-31897687D01*
X27652000Y-29263589D01*
X27602369Y-29014079D01*
X27461034Y-28802555D01*
X27461031Y-28802553D01*
X24097445Y-25438966D01*
X23885921Y-25297631D01*
X23844524Y-25289396D01*
X23636411Y-25247999D01*
X23636406Y-25248000D01*
X16819554Y-25248000D01*
X16851852Y-25170217D01*
X16851939Y-25070128D01*
X17270067Y-24652000D01*
X23820292Y-24652000D01*
X25747928Y-26579635D01*
X25747842Y-26678360D01*
X25877278Y-26991619D01*
X26116740Y-27231500D01*
X26429773Y-27361482D01*
X26768720Y-27361778D01*
X27081979Y-27232342D01*
X27321860Y-26992880D01*
X27451842Y-26679847D01*
X27452138Y-26340900D01*
X27322702Y-26027641D01*
X27083240Y-25787760D01*
X26770207Y-25657778D01*
X26670118Y-25657691D01*
X24964428Y-23952000D01*
X27529932Y-23952000D01*
X27847938Y-24270005D01*
X27847852Y-24368730D01*
X27977288Y-24681989D01*
X28216750Y-24921870D01*
X28529783Y-25051852D01*
X28868730Y-25052148D01*
X29181989Y-24922712D01*
X29421870Y-24683250D01*
X29551852Y-24370217D01*
X29552148Y-24031270D01*
X29422712Y-23718011D01*
X29183250Y-23478130D01*
X28870217Y-23348148D01*
X28770128Y-23348061D01*
X28664472Y-23242405D01*
X29140703Y-23045631D01*
X29514319Y-22672666D01*
X29660109Y-22321567D01*
X29804369Y-22670703D01*
X30177334Y-23044319D01*
X30664885Y-23246769D01*
X31192798Y-23247229D01*
X31680703Y-23045631D01*
X32054319Y-22672666D01*
X32256769Y-22185115D01*
X32257229Y-21657202D01*
X32055631Y-21169297D01*
X31682666Y-20795681D01*
X31195115Y-20593231D01*
X30667202Y-20592771D01*
X30179297Y-20794369D01*
X29805681Y-21167334D01*
X29659891Y-21518433D01*
X29515631Y-21169297D01*
X29142666Y-20795681D01*
X28655115Y-20593231D01*
X28127202Y-20592771D01*
X28097225Y-20605157D01*
X23306032Y-15813964D01*
X23094508Y-15672629D01*
X23053111Y-15664394D01*
X22844998Y-15622997D01*
X22844993Y-15622998D01*
X10672002Y-15622998D01*
X10422492Y-15672629D01*
X10210968Y-15813964D01*
X10210966Y-15813967D01*
X6288966Y-19735966D01*
X6147631Y-19947490D01*
X6147631Y-19947491D01*
X6097999Y-20197000D01*
X6098000Y-20197005D01*
X6098000Y-20719001D01*
X5795115Y-20593231D01*
X5267202Y-20592771D01*
X4852000Y-20764329D01*
X4852000Y-13260068D01*
X10175595Y-7936473D01*
X10344885Y-8006769D01*
X10872798Y-8007229D01*
X11360703Y-7805631D01*
X11734319Y-7432666D01*
X11880109Y-7081567D01*
X12024369Y-7430703D01*
X12397334Y-7804319D01*
X12884885Y-8006769D01*
X13412798Y-8007229D01*
X13584299Y-7936366D01*
X14358964Y-8711031D01*
X14358966Y-8711034D01*
X14465393Y-8782146D01*
X14570491Y-8852370D01*
X14820000Y-8902001D01*
X14820005Y-8902000D01*
X21449995Y-8902000D01*
X21450000Y-8902001D01*
X21658113Y-8860604D01*
X21699510Y-8852369D01*
X21911034Y-8711034D01*
X22461031Y-8161036D01*
X22461034Y-8161034D01*
X22602369Y-7949510D01*
X22625610Y-7832670D01*
X23044885Y-8006769D01*
X23572798Y-8007229D01*
X24060703Y-7805631D01*
X24434319Y-7432666D01*
X24580109Y-7081567D01*
X24724369Y-7430703D01*
X25097334Y-7804319D01*
X25584885Y-8006769D01*
X26112798Y-8007229D01*
X26600703Y-7805631D01*
X26974319Y-7432666D01*
X27120109Y-7081567D01*
X27264369Y-7430703D01*
X27637334Y-7804319D01*
X28124885Y-8006769D01*
X28652798Y-8007229D01*
X29140703Y-7805631D01*
X29514319Y-7432666D01*
X29660109Y-7081567D01*
X29804369Y-7430703D01*
G36*
X11283000Y-2327000D02*
X11303000Y-2327000D01*
X11303000Y-2673000D01*
X11283000Y-2673000D01*
X11283000Y-3882246D01*
X11480690Y-3972549D01*
X11922798Y-3746136D01*
X12246724Y-3358352D01*
X12388381Y-2905572D01*
X12459119Y-3261195D01*
X12738539Y-3679377D01*
X13156721Y-3958797D01*
X13650000Y-4056916D01*
X14143279Y-3958797D01*
X14233733Y-3898357D01*
X14205693Y-4039323D01*
X14128130Y-4116750D01*
X13998148Y-4429783D01*
X13998001Y-4598002D01*
X8158802Y-4598002D01*
X9836293Y-2920511D01*
X9973276Y-3358352D01*
X10297202Y-3746136D01*
X10739310Y-3972549D01*
X10937000Y-3882246D01*
X10937000Y-2673000D01*
X10917000Y-2673000D01*
X10917000Y-2327000D01*
X10937000Y-2327000D01*
X10937000Y-2307000D01*
X11283000Y-2307000D01*
X11283000Y-2327000D01*
X11283000Y-2327000D01*
G37*
X11283000Y-2327000D02*
X11303000Y-2327000D01*
X11303000Y-2673000D01*
X11283000Y-2673000D01*
X11283000Y-3882246D01*
X11480690Y-3972549D01*
X11922798Y-3746136D01*
X12246724Y-3358352D01*
X12388381Y-2905572D01*
X12459119Y-3261195D01*
X12738539Y-3679377D01*
X13156721Y-3958797D01*
X13650000Y-4056916D01*
X14143279Y-3958797D01*
X14233733Y-3898357D01*
X14205693Y-4039323D01*
X14128130Y-4116750D01*
X13998148Y-4429783D01*
X13998001Y-4598002D01*
X8158802Y-4598002D01*
X9836293Y-2920511D01*
X9973276Y-3358352D01*
X10297202Y-3746136D01*
X10739310Y-3972549D01*
X10937000Y-3882246D01*
X10937000Y-2673000D01*
X10917000Y-2673000D01*
X10917000Y-2327000D01*
X10937000Y-2327000D01*
X10937000Y-2307000D01*
X11283000Y-2307000D01*
X11283000Y-2327000D01*
M02*
