M48
;DRILL file {KiCad 4.0.6} date 2018 February 05, Monday 13:52:34
;FORMAT={-:-/ absolute / inch / decimal}
FMAT,2
INCH,TZ
T1C0.016
T2C0.020
T3C0.024
T4C0.026
T5C0.035
T6C0.039
T7C0.043
%
G90
G05
M72
T1
X0.0394Y-1.3081
X0.0591Y-1.5551
X0.0709Y-1.1378
X0.1047Y-1.6268
X0.126Y-1.1339
X0.1476Y-2.1063
X0.1516Y-2.2212
X0.1723Y-1.7426
X0.1732Y-1.3543
X0.1811Y-1.1448
X0.1876Y-1.3252
X0.189Y-0.3701
X0.2087Y-1.748
X0.2126Y-2.2756
X0.2126Y-2.2992
X0.2126Y-2.3228
X0.2126Y-2.3465
X0.2126Y-2.3701
X0.2126Y-2.3937
X0.2323Y-2.2638
X0.2323Y-2.2874
X0.2323Y-2.311
X0.2323Y-2.3346
X0.2323Y-2.3583
X0.2323Y-2.3819
X0.248Y-1.9449
X0.252Y-2.2756
X0.252Y-2.2992
X0.252Y-2.3228
X0.252Y-2.3465
X0.252Y-2.3701
X0.252Y-2.3937
X0.2559Y-1.7913
X0.2717Y-2.2638
X0.2717Y-2.2874
X0.2717Y-2.311
X0.2717Y-2.3346
X0.2717Y-2.3583
X0.2717Y-2.3819
X0.2835Y-2.5276
X0.2913Y-1.2835
X0.2913Y-1.7913
X0.2913Y-2.2756
X0.2913Y-2.2992
X0.2913Y-2.3228
X0.2913Y-2.3465
X0.2913Y-2.3701
X0.2913Y-2.3937
X0.2943Y-1.3189
X0.2992Y-2.815
X0.311Y-1.4547
X0.311Y-1.4995
X0.3425Y-0.8071
X0.3681Y-0.9252
X0.4478Y-0.9115
X0.4488Y-1.4606
X0.4764Y-0.7087
X0.4843Y-1.5906
X0.4843Y-2.5108
X0.4921Y-2.3622
X0.502Y-1.6683
X0.5039Y-3.4724
X0.5276Y-0.6772
X0.5748Y-4.0884
X0.5846Y-0.1811
X0.5906Y-1.3228
X0.6201Y-1.7589
X0.6204Y-1.7274
X0.6299Y-0.9843
X0.6299Y-2.3622
X0.6457Y-4.0866
X0.6614Y-3.6417
X0.6693Y-3.9055
X0.6772Y-1.9094
X0.689Y-1.063
X0.6969Y-0.9843
X0.7205Y-0.9843
X0.7323Y-3.4685
X0.7441Y-0.9843
X0.7594Y-1.7006
X0.7677Y-0.9843
X0.7776Y-1.6339
X0.7874Y-1.3031
X0.7913Y-0.9843
X0.7953Y-4.0039
X0.815Y-0.9843
X0.815Y-4.0472
X0.8228Y-2.8543
X0.8386Y-0.9843
X0.8583Y-3.4685
X0.8622Y-0.9843
X0.8858Y-1.063
X0.9016Y-3.9055
X0.9055Y-1.9134
X0.9134Y-3.6457
X0.9291Y-3.4567
X0.9291Y-4.0827
X0.9547Y-1.4469
X0.9961Y-4.0884
X1.0231Y-2.0872
X1.0236Y-1.378
X1.0236Y-3.0748
X1.0472Y-1.0437
X1.0709Y-3.4685
X1.0925Y-2.1949
X1.1019Y-1.9641
X1.1024Y-1.9882
X1.1024Y-2.0118
X1.1063Y-2.2323
X1.122Y-1.9764
X1.122Y-2.
X1.122Y-2.0236
X1.1299Y-0.9528
X1.1438Y-2.2672
X1.1535Y-2.2992
X1.1801Y-2.3372
X1.2018Y-2.4016
X1.2657Y-1.6535
X1.2756Y-1.563
X1.2795Y-1.5197
X1.2835Y-1.6181
X1.2878Y-2.8468
X1.3071Y-2.8071
X1.4016Y-1.5827
X1.4094Y-3.1063
X1.517Y-1.6344
X1.5187Y-1.4567
T4
X0.0394Y-2.5748
X0.7638Y-3.5974
X1.126Y-0.5492
X1.1535Y-0.5768
X1.1673Y-0.3071
X1.1673Y-0.3465
X1.1673Y-0.3858
X1.1673Y-0.4252
X1.1831Y-0.6063
X1.2126Y-0.6358
X1.2421Y-0.6654
X1.2717Y-0.6949
T6
X0.3583Y-2.3425
X0.4232Y-2.0571
X0.6378Y-2.5709
X0.8752Y-2.1819
X0.8752Y-2.2819
X0.8752Y-2.3819
X0.8752Y-2.4819
X0.8752Y-2.5819
X0.9752Y-2.1819
X0.9752Y-2.2819
X0.9752Y-2.3819
X0.9752Y-2.4819
X0.9752Y-2.5819
T7
X0.1177Y-0.263
X0.1177Y-0.363
X0.1177Y-0.463
X0.1177Y-0.563
X0.1177Y-0.663
X0.1177Y-0.763
X0.1177Y-0.863
X0.2177Y-0.263
X0.2177Y-0.863
X0.3177Y-0.263
X0.3177Y-0.863
X0.4177Y-0.263
X0.4177Y-0.863
X0.5177Y-0.263
X0.5177Y-0.863
X0.6177Y-0.263
X0.6177Y-0.863
X0.7177Y-0.263
X0.7177Y-0.863
X0.8177Y-0.263
X0.8177Y-0.863
X0.9177Y-0.263
X0.9177Y-0.863
X1.0177Y-0.263
X1.0177Y-0.863
X1.1177Y-0.263
X1.1177Y-0.863
X1.2177Y-0.263
X1.2177Y-0.863
X1.3177Y-0.263
X1.3177Y-0.863
X1.4177Y-0.263
X1.4177Y-0.863
T2
X0.2165Y-3.1858G85X0.1772Y-3.1858
G05
X0.2165Y-3.6976G85X0.1772Y-3.6976
G05
X0.2165Y-4.2094G85X0.1772Y-4.2094
G05
X0.6102Y-3.1858G85X0.5709Y-3.1858
G05
X0.6102Y-3.6976G85X0.5709Y-3.6976
G05
X0.6102Y-4.2094G85X0.5709Y-4.2094
G05
X1.0039Y-3.1858G85X0.9646Y-3.1858
G05
X1.0039Y-3.6976G85X0.9646Y-3.6976
G05
X1.0039Y-4.2094G85X0.9646Y-4.2094
G05
X1.3976Y-3.1858G85X1.3583Y-3.1858
G05
X1.3976Y-3.6976G85X1.3583Y-3.6976
G05
X1.3976Y-4.2094G85X1.3583Y-4.2094
G05
T3
X0.2106Y-2.7638G85X0.1831Y-2.7638
G05
X0.2146Y-2.8591G85X0.1791Y-2.8591
G05
X0.2106Y-3.2756G85X0.1831Y-3.2756
G05
X0.2146Y-3.3709G85X0.1791Y-3.3709
G05
X0.2106Y-3.7874G85X0.1831Y-3.7874
G05
X0.2146Y-3.8827G85X0.1791Y-3.8827
G05
X0.6043Y-2.7638G85X0.5768Y-2.7638
G05
X0.6083Y-2.8591G85X0.5728Y-2.8591
G05
X0.6043Y-3.2756G85X0.5768Y-3.2756
G05
X0.6083Y-3.3709G85X0.5728Y-3.3709
G05
X0.6043Y-3.7874G85X0.5768Y-3.7874
G05
X0.6083Y-3.8827G85X0.5728Y-3.8827
G05
X0.998Y-2.7638G85X0.9705Y-2.7638
G05
X1.002Y-2.8591G85X0.9665Y-2.8591
G05
X0.998Y-3.2756G85X0.9705Y-3.2756
G05
X1.002Y-3.3709G85X0.9665Y-3.3709
G05
X0.998Y-3.7874G85X0.9705Y-3.7874
G05
X1.002Y-3.8827G85X0.9665Y-3.8827
G05
X1.3917Y-2.7638G85X1.3642Y-2.7638
G05
X1.3957Y-2.8591G85X1.3602Y-2.8591
G05
X1.3917Y-3.2756G85X1.3642Y-3.2756
G05
X1.3957Y-3.3709G85X1.3602Y-3.3709
G05
X1.3917Y-3.7874G85X1.3642Y-3.7874
G05
X1.3957Y-3.8827G85X1.3602Y-3.8827
G05
T5
X0.4374Y-0.0906G85X0.4374Y-0.1063
G05
X0.5374Y-0.0906G85X0.5374Y-0.1063
G05
X0.6374Y-0.0906G85X0.6374Y-0.1063
G05
X0.7374Y-0.0906G85X0.7374Y-0.1063
G05
X0.8374Y-0.0906G85X0.8374Y-0.1063
G05
X0.9374Y-0.0906G85X0.9374Y-0.1063
G05
X1.0374Y-0.0906G85X1.0374Y-0.1063
G05
X1.1374Y-0.0906G85X1.1374Y-0.1063
G05
T0
M30
